G04 #@! TF.GenerationSoftware,KiCad,Pcbnew,8.0.8-8.0.8-0~ubuntu24.04.1*
G04 #@! TF.CreationDate,2025-01-18T17:04:23+01:00*
G04 #@! TF.ProjectId,rf_lna,72665f6c-6e61-42e6-9b69-6361645f7063,rev?*
G04 #@! TF.SameCoordinates,Original*
G04 #@! TF.FileFunction,Copper,L3,Inr*
G04 #@! TF.FilePolarity,Positive*
%FSLAX46Y46*%
G04 Gerber Fmt 4.6, Leading zero omitted, Abs format (unit mm)*
G04 Created by KiCad (PCBNEW 8.0.8-8.0.8-0~ubuntu24.04.1) date 2025-01-18 17:04:23*
%MOMM*%
%LPD*%
G01*
G04 APERTURE LIST*
G04 Aperture macros list*
%AMRoundRect*
0 Rectangle with rounded corners*
0 $1 Rounding radius*
0 $2 $3 $4 $5 $6 $7 $8 $9 X,Y pos of 4 corners*
0 Add a 4 corners polygon primitive as box body*
4,1,4,$2,$3,$4,$5,$6,$7,$8,$9,$2,$3,0*
0 Add four circle primitives for the rounded corners*
1,1,$1+$1,$2,$3*
1,1,$1+$1,$4,$5*
1,1,$1+$1,$6,$7*
1,1,$1+$1,$8,$9*
0 Add four rect primitives between the rounded corners*
20,1,$1+$1,$2,$3,$4,$5,0*
20,1,$1+$1,$4,$5,$6,$7,0*
20,1,$1+$1,$6,$7,$8,$9,0*
20,1,$1+$1,$8,$9,$2,$3,0*%
G04 Aperture macros list end*
G04 #@! TA.AperFunction,ComponentPad*
%ADD10C,2.200000*%
G04 #@! TD*
G04 #@! TA.AperFunction,ComponentPad*
%ADD11RoundRect,0.250000X0.675000X0.675000X-0.675000X0.675000X-0.675000X-0.675000X0.675000X-0.675000X0*%
G04 #@! TD*
G04 #@! TA.AperFunction,ComponentPad*
%ADD12C,1.850000*%
G04 #@! TD*
G04 #@! TA.AperFunction,ViaPad*
%ADD13C,0.500000*%
G04 #@! TD*
G04 #@! TA.AperFunction,ViaPad*
%ADD14C,0.600000*%
G04 #@! TD*
G04 #@! TA.AperFunction,Conductor*
%ADD15C,0.200000*%
G04 #@! TD*
G04 APERTURE END LIST*
D10*
X133600000Y-92800000D03*
X133600000Y-97900000D03*
X138700000Y-92800000D03*
X138700000Y-97900000D03*
D11*
X123612500Y-63640000D03*
D12*
X119412500Y-63640000D03*
D10*
X62650000Y-97950000D03*
X62650000Y-92850000D03*
X57550000Y-97950000D03*
X57550000Y-92850000D03*
X110625000Y-77350000D03*
X110625000Y-72250000D03*
X105525000Y-77350000D03*
X105525000Y-72250000D03*
X64725000Y-76600000D03*
X64725000Y-71500000D03*
X59625000Y-76600000D03*
X59625000Y-71500000D03*
D11*
X78400000Y-56600000D03*
D12*
X74200000Y-56600000D03*
D10*
X133000000Y-70025000D03*
X133000000Y-75125000D03*
X138100000Y-70025000D03*
X138100000Y-75125000D03*
X87670000Y-66180000D03*
X87670000Y-71280000D03*
X92770000Y-66180000D03*
X92770000Y-71280000D03*
D13*
X72270000Y-61230000D03*
X71560000Y-72930000D03*
X51450000Y-110960000D03*
X117540000Y-148010000D03*
X79750000Y-66650000D03*
X57780000Y-106670000D03*
X116290000Y-67630000D03*
X74200000Y-67550000D03*
X115950000Y-132050000D03*
X81950000Y-58950000D03*
X66380000Y-121990000D03*
X72766666Y-96650000D03*
X75450000Y-80250000D03*
X77950000Y-77250000D03*
X117100000Y-94150000D03*
X118640000Y-134760000D03*
X79750000Y-71490000D03*
X118190000Y-111730000D03*
X117790000Y-64780000D03*
X76900000Y-75850000D03*
X104433333Y-96650000D03*
X73700000Y-63800000D03*
X92660000Y-130700000D03*
X51580000Y-127300000D03*
X112400000Y-141730000D03*
X80950000Y-69850000D03*
X117510000Y-141640000D03*
X93810000Y-73370000D03*
X83250000Y-69820000D03*
X118990000Y-75940000D03*
D14*
X100830000Y-127810000D03*
D13*
X79020000Y-121570000D03*
X76880000Y-72050000D03*
X121720000Y-75980000D03*
X91370000Y-148010000D03*
X113310000Y-113980000D03*
X79650000Y-67550000D03*
X73350000Y-67660000D03*
X79840000Y-148010000D03*
X126400000Y-67600000D03*
X80850000Y-64500000D03*
X118440000Y-137060000D03*
X51660000Y-143810000D03*
X71710000Y-71890000D03*
X76900000Y-74250000D03*
X104490000Y-147890000D03*
X103470000Y-114050000D03*
X97230000Y-148010000D03*
X108720000Y-71360000D03*
X125400000Y-80850000D03*
X129090000Y-73820000D03*
X125700000Y-77150000D03*
X72280000Y-60080000D03*
X74390000Y-141800000D03*
X94820000Y-67370000D03*
X117600000Y-75930000D03*
X89000000Y-141590000D03*
X121300000Y-72550000D03*
X71180000Y-69560000D03*
X139830000Y-76820000D03*
X51480000Y-113270000D03*
X71400000Y-75250000D03*
X79850000Y-69950000D03*
X96240000Y-135130000D03*
X131080000Y-76320000D03*
X122680000Y-75990000D03*
X66520000Y-125570000D03*
X131040000Y-71170000D03*
X98100000Y-96650000D03*
X118330000Y-114550000D03*
X118960000Y-69410000D03*
X123180000Y-70930000D03*
X139030000Y-71800000D03*
X74390000Y-148070000D03*
X88510000Y-121430000D03*
X76850000Y-69950000D03*
X112700000Y-70790000D03*
X77250000Y-63700000D03*
X79510000Y-141730000D03*
X136480000Y-76880000D03*
X76140000Y-55470000D03*
X118470000Y-121500000D03*
X70400000Y-72900000D03*
X66433333Y-96650000D03*
X85433333Y-96650000D03*
X89350000Y-135200000D03*
X129766666Y-96650000D03*
X58510000Y-142080000D03*
X116290000Y-73580000D03*
D14*
X100930000Y-131980000D03*
D13*
X125200000Y-76150000D03*
X69090000Y-75190000D03*
X72550000Y-66600000D03*
X109880000Y-128430000D03*
X89630000Y-65320000D03*
X122170000Y-77990000D03*
X140130000Y-68270000D03*
X132140000Y-77180000D03*
X80850000Y-65500000D03*
X78650000Y-79100000D03*
X110766666Y-94150000D03*
X51560000Y-137810000D03*
X67010000Y-129510000D03*
X103520000Y-73590000D03*
X94760000Y-114270000D03*
X51540000Y-115700000D03*
X108930000Y-131500000D03*
X85630000Y-148010000D03*
X105420000Y-131190000D03*
X63700000Y-106600000D03*
X126470000Y-69430000D03*
X72766666Y-94150000D03*
X94990000Y-106340000D03*
X118200000Y-109040000D03*
X114010000Y-76010000D03*
X89720000Y-106130000D03*
X126150000Y-64650000D03*
X98100000Y-94150000D03*
X125580000Y-71620000D03*
X51400000Y-106360000D03*
X94710000Y-64890000D03*
X118880000Y-73570000D03*
X107640000Y-71540000D03*
X113680000Y-106410000D03*
X108790000Y-78180000D03*
X77430000Y-106480000D03*
X79100000Y-96650000D03*
X55760000Y-145510000D03*
X58440000Y-126070000D03*
X89580000Y-72120000D03*
X51580000Y-120710000D03*
X118780000Y-132680000D03*
X107450000Y-78320000D03*
X66870000Y-142150000D03*
X76190000Y-57660000D03*
X117100000Y-96650000D03*
X115850000Y-127790000D03*
X95400000Y-121360000D03*
X104433333Y-94150000D03*
X83520000Y-67640000D03*
X121020000Y-62360000D03*
X115060000Y-76010000D03*
X80850000Y-63600000D03*
X91000000Y-72190000D03*
X113050000Y-131460000D03*
X72340000Y-106600000D03*
X85433333Y-94150000D03*
X123433333Y-94150000D03*
X117970000Y-69370000D03*
X81420000Y-67610000D03*
X105030000Y-75240000D03*
X91766666Y-96650000D03*
X79820000Y-73770000D03*
X134970000Y-76010000D03*
X79860000Y-135340000D03*
X111910000Y-121570000D03*
X80950000Y-57700000D03*
X118470000Y-124660000D03*
X101670000Y-106340000D03*
X72160000Y-57840000D03*
X104880000Y-141730000D03*
X68250000Y-147960000D03*
X105230000Y-135340000D03*
X112970000Y-128360000D03*
X58860000Y-135690000D03*
X121020000Y-64870000D03*
X85510000Y-71190000D03*
X74740000Y-135410000D03*
X74290000Y-79270000D03*
X126950000Y-79900000D03*
X67220000Y-135760000D03*
X62440000Y-147960000D03*
X51400000Y-108780000D03*
X134630000Y-69020000D03*
X125150000Y-73850000D03*
X51580000Y-117980000D03*
X66433333Y-94150000D03*
X77250000Y-80300000D03*
X85660000Y-64930000D03*
X67940000Y-106530000D03*
X51610000Y-130490000D03*
X79100000Y-94150000D03*
X72000000Y-114120000D03*
X57030000Y-148010000D03*
X51660000Y-140640000D03*
X129800000Y-71390000D03*
X110640000Y-148070000D03*
X85610000Y-67640000D03*
X86610000Y-114200000D03*
X74450000Y-66550000D03*
X91766666Y-94150000D03*
X74150000Y-75200000D03*
X125750000Y-70800000D03*
X51530000Y-123440000D03*
X123433333Y-96650000D03*
X79730000Y-129930000D03*
X72210000Y-55440000D03*
X64830000Y-114120000D03*
X123950000Y-80850000D03*
X112750000Y-135340000D03*
X58020000Y-121920000D03*
X95890000Y-141520000D03*
X78510000Y-75000000D03*
X84280000Y-69820000D03*
X82770000Y-106340000D03*
X73900000Y-121640000D03*
X118270000Y-139230000D03*
X121450000Y-73600000D03*
X51560000Y-133910000D03*
X113100000Y-73580000D03*
X104390000Y-121570000D03*
X79020000Y-114120000D03*
X117590000Y-144750000D03*
X77350000Y-65350000D03*
X120710000Y-69440000D03*
X57810000Y-114120000D03*
X79450000Y-125430000D03*
X92800000Y-125360000D03*
X117880000Y-62280000D03*
X118330000Y-117990000D03*
X74160000Y-77210000D03*
D14*
X98650000Y-130010000D03*
D13*
X126230000Y-73820000D03*
X118500000Y-127150000D03*
X68210000Y-75220000D03*
X126550000Y-78250000D03*
X58510000Y-129230000D03*
X110766666Y-96650000D03*
X130100000Y-65700000D03*
X68520000Y-72900000D03*
X122170000Y-80090000D03*
X107520000Y-106410000D03*
X103550000Y-70960000D03*
X125190000Y-75110000D03*
X66790000Y-72930000D03*
X131090000Y-68650000D03*
X129766666Y-94150000D03*
X118310000Y-106520000D03*
X105400000Y-128740000D03*
X139860000Y-73270000D03*
X127610000Y-71380000D03*
X75290000Y-58910000D03*
D15*
X58950000Y-71550000D02*
X53850000Y-71550000D01*
G04 #@! TA.AperFunction,Conductor*
G36*
X149642539Y-50320185D02*
G01*
X149688294Y-50372989D01*
X149699500Y-50424500D01*
X149699500Y-102916504D01*
X149679815Y-102983543D01*
X149627011Y-103029298D01*
X149575755Y-103040504D01*
X50424755Y-103244488D01*
X50357675Y-103224941D01*
X50311812Y-103172231D01*
X50300500Y-103120488D01*
X50300500Y-100951799D01*
X144029499Y-100951799D01*
X144061414Y-101112242D01*
X144061416Y-101112248D01*
X144124019Y-101263386D01*
X144124024Y-101263395D01*
X144214908Y-101399412D01*
X144214911Y-101399416D01*
X144330583Y-101515088D01*
X144330587Y-101515091D01*
X144466604Y-101605975D01*
X144466610Y-101605978D01*
X144466611Y-101605979D01*
X144617752Y-101668584D01*
X144617756Y-101668584D01*
X144617757Y-101668585D01*
X144778200Y-101700500D01*
X144778203Y-101700500D01*
X144941799Y-101700500D01*
X145049742Y-101679028D01*
X145102248Y-101668584D01*
X145253389Y-101605979D01*
X145389413Y-101515091D01*
X145505091Y-101399413D01*
X145595979Y-101263389D01*
X145658584Y-101112248D01*
X145690500Y-100951797D01*
X145690500Y-100788203D01*
X145690500Y-100788200D01*
X145658585Y-100627757D01*
X145658584Y-100627756D01*
X145658584Y-100627752D01*
X145595979Y-100476611D01*
X145595978Y-100476610D01*
X145595975Y-100476604D01*
X145505091Y-100340587D01*
X145505088Y-100340583D01*
X145389416Y-100224911D01*
X145389412Y-100224908D01*
X145253395Y-100134024D01*
X145253386Y-100134019D01*
X145102248Y-100071416D01*
X145102242Y-100071414D01*
X144941799Y-100039500D01*
X144941797Y-100039500D01*
X144778203Y-100039500D01*
X144778201Y-100039500D01*
X144617757Y-100071414D01*
X144617751Y-100071416D01*
X144466613Y-100134019D01*
X144466604Y-100134024D01*
X144330587Y-100224908D01*
X144330583Y-100224911D01*
X144214911Y-100340583D01*
X144214908Y-100340587D01*
X144124024Y-100476604D01*
X144124019Y-100476613D01*
X144061416Y-100627751D01*
X144061414Y-100627757D01*
X144029500Y-100788200D01*
X144029500Y-100788203D01*
X144029500Y-100951797D01*
X144029500Y-100951799D01*
X144029499Y-100951799D01*
X50300500Y-100951799D01*
X50300500Y-100121799D01*
X53389499Y-100121799D01*
X53421414Y-100282242D01*
X53421416Y-100282248D01*
X53484019Y-100433386D01*
X53484024Y-100433395D01*
X53574908Y-100569412D01*
X53574911Y-100569416D01*
X53690583Y-100685088D01*
X53690587Y-100685091D01*
X53826604Y-100775975D01*
X53826610Y-100775978D01*
X53826611Y-100775979D01*
X53977752Y-100838584D01*
X53977756Y-100838584D01*
X53977757Y-100838585D01*
X54138200Y-100870500D01*
X54138203Y-100870500D01*
X54301799Y-100870500D01*
X54409742Y-100849028D01*
X54462248Y-100838584D01*
X54613389Y-100775979D01*
X54749413Y-100685091D01*
X54865091Y-100569413D01*
X54955979Y-100433389D01*
X55018584Y-100282248D01*
X55048068Y-100134024D01*
X55050500Y-100121799D01*
X55050500Y-99958200D01*
X55018585Y-99797757D01*
X55018584Y-99797756D01*
X55018584Y-99797752D01*
X54955979Y-99646611D01*
X54955978Y-99646610D01*
X54955975Y-99646604D01*
X54865091Y-99510587D01*
X54865088Y-99510583D01*
X54749416Y-99394911D01*
X54749412Y-99394908D01*
X54613395Y-99304024D01*
X54613386Y-99304019D01*
X54462248Y-99241416D01*
X54462242Y-99241414D01*
X54301799Y-99209500D01*
X54301797Y-99209500D01*
X54138203Y-99209500D01*
X54138201Y-99209500D01*
X53977757Y-99241414D01*
X53977751Y-99241416D01*
X53826613Y-99304019D01*
X53826604Y-99304024D01*
X53690587Y-99394908D01*
X53690583Y-99394911D01*
X53574911Y-99510583D01*
X53574908Y-99510587D01*
X53484024Y-99646604D01*
X53484019Y-99646613D01*
X53421416Y-99797751D01*
X53421414Y-99797757D01*
X53389500Y-99958200D01*
X53389500Y-99958203D01*
X53389500Y-100121797D01*
X53389500Y-100121799D01*
X53389499Y-100121799D01*
X50300500Y-100121799D01*
X50300500Y-97950000D01*
X55945052Y-97950000D01*
X55964812Y-98201072D01*
X56023603Y-98445956D01*
X56119980Y-98678631D01*
X56251568Y-98893362D01*
X56252266Y-98894179D01*
X56910689Y-98235755D01*
X56929668Y-98281574D01*
X57006274Y-98396224D01*
X57103776Y-98493726D01*
X57218426Y-98570332D01*
X57264242Y-98589309D01*
X56605819Y-99247732D01*
X56605819Y-99247733D01*
X56606634Y-99248429D01*
X56821368Y-99380019D01*
X57054043Y-99476396D01*
X57298927Y-99535187D01*
X57550000Y-99554947D01*
X57801072Y-99535187D01*
X58045956Y-99476396D01*
X58278631Y-99380019D01*
X58493361Y-99248432D01*
X58493363Y-99248430D01*
X58494180Y-99247732D01*
X57835757Y-98589309D01*
X57881574Y-98570332D01*
X57996224Y-98493726D01*
X58093726Y-98396224D01*
X58170332Y-98281574D01*
X58189309Y-98235757D01*
X58847732Y-98894180D01*
X58848430Y-98893363D01*
X58848432Y-98893361D01*
X58980019Y-98678631D01*
X59076396Y-98445956D01*
X59135187Y-98201072D01*
X59154947Y-97950000D01*
X61045052Y-97950000D01*
X61064812Y-98201072D01*
X61123603Y-98445956D01*
X61219980Y-98678631D01*
X61351568Y-98893362D01*
X61352266Y-98894179D01*
X62010689Y-98235755D01*
X62029668Y-98281574D01*
X62106274Y-98396224D01*
X62203776Y-98493726D01*
X62318426Y-98570332D01*
X62364242Y-98589309D01*
X61705819Y-99247732D01*
X61705819Y-99247733D01*
X61706634Y-99248429D01*
X61921368Y-99380019D01*
X62154043Y-99476396D01*
X62398927Y-99535187D01*
X62650000Y-99554947D01*
X62901072Y-99535187D01*
X63145956Y-99476396D01*
X63378631Y-99380019D01*
X63593361Y-99248432D01*
X63593363Y-99248430D01*
X63594180Y-99247732D01*
X62935757Y-98589309D01*
X62981574Y-98570332D01*
X63096224Y-98493726D01*
X63193726Y-98396224D01*
X63270332Y-98281574D01*
X63289309Y-98235757D01*
X63947732Y-98894180D01*
X63948430Y-98893363D01*
X63948432Y-98893361D01*
X64080019Y-98678631D01*
X64176396Y-98445956D01*
X64235187Y-98201072D01*
X64254947Y-97950000D01*
X64251012Y-97900000D01*
X131995052Y-97900000D01*
X132014812Y-98151072D01*
X132073603Y-98395956D01*
X132169980Y-98628631D01*
X132301568Y-98843362D01*
X132302266Y-98844179D01*
X132960689Y-98185755D01*
X132979668Y-98231574D01*
X133056274Y-98346224D01*
X133153776Y-98443726D01*
X133268426Y-98520332D01*
X133314242Y-98539309D01*
X132655819Y-99197732D01*
X132655819Y-99197733D01*
X132656634Y-99198429D01*
X132871368Y-99330019D01*
X133104043Y-99426396D01*
X133348927Y-99485187D01*
X133600000Y-99504947D01*
X133851072Y-99485187D01*
X134095956Y-99426396D01*
X134328631Y-99330019D01*
X134543361Y-99198432D01*
X134543363Y-99198430D01*
X134544180Y-99197732D01*
X133885757Y-98539309D01*
X133931574Y-98520332D01*
X134046224Y-98443726D01*
X134143726Y-98346224D01*
X134220332Y-98231574D01*
X134239309Y-98185757D01*
X134897732Y-98844180D01*
X134898430Y-98843363D01*
X134898432Y-98843361D01*
X135030019Y-98628631D01*
X135126396Y-98395956D01*
X135185187Y-98151072D01*
X135204947Y-97900000D01*
X137095052Y-97900000D01*
X137114812Y-98151072D01*
X137173603Y-98395956D01*
X137269980Y-98628631D01*
X137401568Y-98843362D01*
X137402266Y-98844179D01*
X138060689Y-98185755D01*
X138079668Y-98231574D01*
X138156274Y-98346224D01*
X138253776Y-98443726D01*
X138368426Y-98520332D01*
X138414242Y-98539309D01*
X137755819Y-99197732D01*
X137755819Y-99197733D01*
X137756634Y-99198429D01*
X137971368Y-99330019D01*
X138204043Y-99426396D01*
X138448927Y-99485187D01*
X138700000Y-99504947D01*
X138951072Y-99485187D01*
X139195956Y-99426396D01*
X139428631Y-99330019D01*
X139643361Y-99198432D01*
X139643363Y-99198430D01*
X139644180Y-99197732D01*
X138985757Y-98539309D01*
X139031574Y-98520332D01*
X139146224Y-98443726D01*
X139243726Y-98346224D01*
X139320332Y-98231574D01*
X139339309Y-98185757D01*
X139997732Y-98844180D01*
X139998430Y-98843363D01*
X139998432Y-98843361D01*
X140130019Y-98628631D01*
X140226396Y-98395956D01*
X140285187Y-98151072D01*
X140304947Y-97900000D01*
X140285187Y-97648927D01*
X140226396Y-97404043D01*
X140130019Y-97171368D01*
X139998429Y-96956634D01*
X139997733Y-96955819D01*
X139997732Y-96955819D01*
X139339309Y-97614242D01*
X139320332Y-97568426D01*
X139243726Y-97453776D01*
X139146224Y-97356274D01*
X139031574Y-97279668D01*
X138985755Y-97260689D01*
X139644179Y-96602266D01*
X139643362Y-96601568D01*
X139428631Y-96469980D01*
X139195956Y-96373603D01*
X138951072Y-96314812D01*
X138700000Y-96295052D01*
X138448927Y-96314812D01*
X138204043Y-96373603D01*
X137971368Y-96469980D01*
X137756637Y-96601567D01*
X137755818Y-96602266D01*
X138414242Y-97260690D01*
X138368426Y-97279668D01*
X138253776Y-97356274D01*
X138156274Y-97453776D01*
X138079668Y-97568426D01*
X138060690Y-97614242D01*
X137402266Y-96955818D01*
X137401567Y-96956637D01*
X137269980Y-97171368D01*
X137173603Y-97404043D01*
X137114812Y-97648927D01*
X137095052Y-97900000D01*
X135204947Y-97900000D01*
X135185187Y-97648927D01*
X135126396Y-97404043D01*
X135030019Y-97171368D01*
X134898429Y-96956634D01*
X134897733Y-96955819D01*
X134897732Y-96955819D01*
X134239309Y-97614242D01*
X134220332Y-97568426D01*
X134143726Y-97453776D01*
X134046224Y-97356274D01*
X133931574Y-97279668D01*
X133885755Y-97260689D01*
X134544179Y-96602266D01*
X134543362Y-96601568D01*
X134328631Y-96469980D01*
X134095956Y-96373603D01*
X133851072Y-96314812D01*
X133600000Y-96295052D01*
X133348927Y-96314812D01*
X133104043Y-96373603D01*
X132871368Y-96469980D01*
X132656637Y-96601567D01*
X132655818Y-96602266D01*
X133314242Y-97260690D01*
X133268426Y-97279668D01*
X133153776Y-97356274D01*
X133056274Y-97453776D01*
X132979668Y-97568426D01*
X132960690Y-97614242D01*
X132302266Y-96955818D01*
X132301567Y-96956637D01*
X132169980Y-97171368D01*
X132073603Y-97404043D01*
X132014812Y-97648927D01*
X131995052Y-97900000D01*
X64251012Y-97900000D01*
X64235187Y-97698927D01*
X64176396Y-97454043D01*
X64080019Y-97221368D01*
X63948429Y-97006634D01*
X63947733Y-97005819D01*
X63947732Y-97005819D01*
X63289309Y-97664242D01*
X63270332Y-97618426D01*
X63193726Y-97503776D01*
X63096224Y-97406274D01*
X62981574Y-97329668D01*
X62935755Y-97310689D01*
X63594179Y-96652266D01*
X63593362Y-96651568D01*
X63378631Y-96519980D01*
X63145956Y-96423603D01*
X62901072Y-96364812D01*
X62650000Y-96345052D01*
X62398927Y-96364812D01*
X62154043Y-96423603D01*
X61921368Y-96519980D01*
X61706637Y-96651567D01*
X61705818Y-96652266D01*
X62364242Y-97310690D01*
X62318426Y-97329668D01*
X62203776Y-97406274D01*
X62106274Y-97503776D01*
X62029668Y-97618426D01*
X62010690Y-97664242D01*
X61352266Y-97005818D01*
X61351567Y-97006637D01*
X61219980Y-97221368D01*
X61123603Y-97454043D01*
X61064812Y-97698927D01*
X61045052Y-97950000D01*
X59154947Y-97950000D01*
X59135187Y-97698927D01*
X59076396Y-97454043D01*
X58980019Y-97221368D01*
X58848429Y-97006634D01*
X58847733Y-97005819D01*
X58847732Y-97005819D01*
X58189309Y-97664242D01*
X58170332Y-97618426D01*
X58093726Y-97503776D01*
X57996224Y-97406274D01*
X57881574Y-97329668D01*
X57835755Y-97310689D01*
X58494179Y-96652266D01*
X58493362Y-96651568D01*
X58278631Y-96519980D01*
X58045956Y-96423603D01*
X57801072Y-96364812D01*
X57550000Y-96345052D01*
X57298927Y-96364812D01*
X57054043Y-96423603D01*
X56821368Y-96519980D01*
X56606637Y-96651567D01*
X56605818Y-96652266D01*
X57264242Y-97310690D01*
X57218426Y-97329668D01*
X57103776Y-97406274D01*
X57006274Y-97503776D01*
X56929668Y-97618426D01*
X56910690Y-97664242D01*
X56252266Y-97005818D01*
X56251567Y-97006637D01*
X56119980Y-97221368D01*
X56023603Y-97454043D01*
X55964812Y-97698927D01*
X55945052Y-97950000D01*
X50300500Y-97950000D01*
X50300500Y-95305513D01*
X58899500Y-95305513D01*
X58899500Y-95494486D01*
X58929059Y-95681118D01*
X58987454Y-95860836D01*
X59073240Y-96029199D01*
X59184310Y-96182073D01*
X59317927Y-96315690D01*
X59470801Y-96426760D01*
X59541033Y-96462545D01*
X59639163Y-96512545D01*
X59639165Y-96512545D01*
X59639168Y-96512547D01*
X59735497Y-96543846D01*
X59818881Y-96570940D01*
X60005514Y-96600500D01*
X60005519Y-96600500D01*
X60194486Y-96600500D01*
X60381118Y-96570940D01*
X60444025Y-96550500D01*
X60560832Y-96512547D01*
X60729199Y-96426760D01*
X60882073Y-96315690D01*
X61015690Y-96182073D01*
X61126760Y-96029199D01*
X61212547Y-95860832D01*
X61270940Y-95681118D01*
X61278859Y-95631118D01*
X61300500Y-95494486D01*
X61300500Y-95305513D01*
X61292581Y-95255513D01*
X134949500Y-95255513D01*
X134949500Y-95444486D01*
X134979059Y-95631118D01*
X135037454Y-95810836D01*
X135062931Y-95860836D01*
X135123240Y-95979199D01*
X135234310Y-96132073D01*
X135367927Y-96265690D01*
X135520801Y-96376760D01*
X135600347Y-96417290D01*
X135689163Y-96462545D01*
X135689165Y-96462545D01*
X135689168Y-96462547D01*
X135785497Y-96493846D01*
X135868881Y-96520940D01*
X136055514Y-96550500D01*
X136055519Y-96550500D01*
X136244486Y-96550500D01*
X136431118Y-96520940D01*
X136456955Y-96512545D01*
X136610832Y-96462547D01*
X136779199Y-96376760D01*
X136932073Y-96265690D01*
X137065690Y-96132073D01*
X137176760Y-95979199D01*
X137262547Y-95810832D01*
X137320940Y-95631118D01*
X137350500Y-95444486D01*
X137350500Y-95255513D01*
X137320940Y-95068881D01*
X137262545Y-94889163D01*
X137176759Y-94720800D01*
X137065690Y-94567927D01*
X136932073Y-94434310D01*
X136779199Y-94323240D01*
X136610836Y-94237454D01*
X136431118Y-94179059D01*
X136244486Y-94149500D01*
X136244481Y-94149500D01*
X136055519Y-94149500D01*
X136055514Y-94149500D01*
X135868881Y-94179059D01*
X135689163Y-94237454D01*
X135520800Y-94323240D01*
X135451982Y-94373240D01*
X135367927Y-94434310D01*
X135367925Y-94434312D01*
X135367924Y-94434312D01*
X135234312Y-94567924D01*
X135234312Y-94567925D01*
X135234310Y-94567927D01*
X135197985Y-94617924D01*
X135123240Y-94720800D01*
X135037454Y-94889163D01*
X134979059Y-95068881D01*
X134949500Y-95255513D01*
X61292581Y-95255513D01*
X61270940Y-95118881D01*
X61212545Y-94939163D01*
X61126759Y-94770800D01*
X61015690Y-94617927D01*
X60882073Y-94484310D01*
X60729199Y-94373240D01*
X60560836Y-94287454D01*
X60381118Y-94229059D01*
X60194486Y-94199500D01*
X60194481Y-94199500D01*
X60005519Y-94199500D01*
X60005514Y-94199500D01*
X59818881Y-94229059D01*
X59639163Y-94287454D01*
X59470800Y-94373240D01*
X59454357Y-94385187D01*
X59317927Y-94484310D01*
X59317925Y-94484312D01*
X59317924Y-94484312D01*
X59184312Y-94617924D01*
X59184312Y-94617925D01*
X59184310Y-94617927D01*
X59136610Y-94683579D01*
X59073240Y-94770800D01*
X58987454Y-94939163D01*
X58929059Y-95118881D01*
X58899500Y-95305513D01*
X50300500Y-95305513D01*
X50300500Y-92850000D01*
X55945052Y-92850000D01*
X55964812Y-93101072D01*
X56023603Y-93345956D01*
X56119980Y-93578631D01*
X56251568Y-93793362D01*
X56252266Y-93794179D01*
X56910689Y-93135755D01*
X56929668Y-93181574D01*
X57006274Y-93296224D01*
X57103776Y-93393726D01*
X57218426Y-93470332D01*
X57264242Y-93489309D01*
X56605819Y-94147732D01*
X56605819Y-94147733D01*
X56606634Y-94148429D01*
X56821368Y-94280019D01*
X57054043Y-94376396D01*
X57298927Y-94435187D01*
X57550000Y-94454947D01*
X57801072Y-94435187D01*
X58045956Y-94376396D01*
X58278631Y-94280019D01*
X58493361Y-94148432D01*
X58493363Y-94148430D01*
X58494180Y-94147732D01*
X57835757Y-93489309D01*
X57881574Y-93470332D01*
X57996224Y-93393726D01*
X58093726Y-93296224D01*
X58170332Y-93181574D01*
X58189309Y-93135757D01*
X58847732Y-93794180D01*
X58848430Y-93793363D01*
X58848432Y-93793361D01*
X58980019Y-93578631D01*
X59076396Y-93345956D01*
X59135187Y-93101072D01*
X59154947Y-92850000D01*
X61045052Y-92850000D01*
X61064812Y-93101072D01*
X61123603Y-93345956D01*
X61219980Y-93578631D01*
X61351568Y-93793362D01*
X61352266Y-93794179D01*
X62010689Y-93135755D01*
X62029668Y-93181574D01*
X62106274Y-93296224D01*
X62203776Y-93393726D01*
X62318426Y-93470332D01*
X62364242Y-93489309D01*
X61705819Y-94147732D01*
X61705819Y-94147733D01*
X61706634Y-94148429D01*
X61921368Y-94280019D01*
X62154043Y-94376396D01*
X62398927Y-94435187D01*
X62650000Y-94454947D01*
X62901072Y-94435187D01*
X63145956Y-94376396D01*
X63378631Y-94280019D01*
X63593361Y-94148432D01*
X63593363Y-94148430D01*
X63594180Y-94147732D01*
X62935757Y-93489309D01*
X62981574Y-93470332D01*
X63096224Y-93393726D01*
X63193726Y-93296224D01*
X63270332Y-93181574D01*
X63289309Y-93135757D01*
X63947732Y-93794180D01*
X63948430Y-93793363D01*
X63948432Y-93793361D01*
X64080019Y-93578631D01*
X64176396Y-93345956D01*
X64235187Y-93101072D01*
X64254947Y-92850000D01*
X64251012Y-92800000D01*
X131995052Y-92800000D01*
X132014812Y-93051072D01*
X132073603Y-93295956D01*
X132169980Y-93528631D01*
X132301568Y-93743362D01*
X132302266Y-93744179D01*
X132960689Y-93085755D01*
X132979668Y-93131574D01*
X133056274Y-93246224D01*
X133153776Y-93343726D01*
X133268426Y-93420332D01*
X133314242Y-93439309D01*
X132655819Y-94097732D01*
X132655819Y-94097733D01*
X132656634Y-94098429D01*
X132871368Y-94230019D01*
X133104043Y-94326396D01*
X133348927Y-94385187D01*
X133600000Y-94404947D01*
X133851072Y-94385187D01*
X134095956Y-94326396D01*
X134328631Y-94230019D01*
X134543361Y-94098432D01*
X134543363Y-94098430D01*
X134544180Y-94097732D01*
X133885757Y-93439309D01*
X133931574Y-93420332D01*
X134046224Y-93343726D01*
X134143726Y-93246224D01*
X134220332Y-93131574D01*
X134239309Y-93085757D01*
X134897732Y-93744180D01*
X134898430Y-93743363D01*
X134898432Y-93743361D01*
X135030019Y-93528631D01*
X135126396Y-93295956D01*
X135185187Y-93051072D01*
X135204947Y-92800000D01*
X137095052Y-92800000D01*
X137114812Y-93051072D01*
X137173603Y-93295956D01*
X137269980Y-93528631D01*
X137401568Y-93743362D01*
X137402266Y-93744179D01*
X138060689Y-93085755D01*
X138079668Y-93131574D01*
X138156274Y-93246224D01*
X138253776Y-93343726D01*
X138368426Y-93420332D01*
X138414242Y-93439309D01*
X137755819Y-94097732D01*
X137755819Y-94097733D01*
X137756634Y-94098429D01*
X137971368Y-94230019D01*
X138204043Y-94326396D01*
X138448927Y-94385187D01*
X138700000Y-94404947D01*
X138951072Y-94385187D01*
X139195956Y-94326396D01*
X139428631Y-94230019D01*
X139643361Y-94098432D01*
X139643363Y-94098430D01*
X139644180Y-94097732D01*
X138985757Y-93439309D01*
X139031574Y-93420332D01*
X139146224Y-93343726D01*
X139243726Y-93246224D01*
X139320332Y-93131574D01*
X139339309Y-93085757D01*
X139997732Y-93744180D01*
X139998430Y-93743363D01*
X139998432Y-93743361D01*
X140130019Y-93528631D01*
X140226396Y-93295956D01*
X140285187Y-93051072D01*
X140304947Y-92800000D01*
X140285187Y-92548927D01*
X140226396Y-92304043D01*
X140130019Y-92071368D01*
X139998429Y-91856634D01*
X139997733Y-91855819D01*
X139997732Y-91855819D01*
X139339309Y-92514242D01*
X139320332Y-92468426D01*
X139243726Y-92353776D01*
X139146224Y-92256274D01*
X139031574Y-92179668D01*
X138985755Y-92160689D01*
X139644179Y-91502266D01*
X139643362Y-91501568D01*
X139428631Y-91369980D01*
X139195956Y-91273603D01*
X138951072Y-91214812D01*
X138700000Y-91195052D01*
X138448927Y-91214812D01*
X138204043Y-91273603D01*
X137971368Y-91369980D01*
X137756637Y-91501567D01*
X137755818Y-91502266D01*
X138414242Y-92160690D01*
X138368426Y-92179668D01*
X138253776Y-92256274D01*
X138156274Y-92353776D01*
X138079668Y-92468426D01*
X138060690Y-92514242D01*
X137402266Y-91855818D01*
X137401567Y-91856637D01*
X137269980Y-92071368D01*
X137173603Y-92304043D01*
X137114812Y-92548927D01*
X137095052Y-92800000D01*
X135204947Y-92800000D01*
X135185187Y-92548927D01*
X135126396Y-92304043D01*
X135030019Y-92071368D01*
X134898429Y-91856634D01*
X134897733Y-91855819D01*
X134897732Y-91855819D01*
X134239309Y-92514242D01*
X134220332Y-92468426D01*
X134143726Y-92353776D01*
X134046224Y-92256274D01*
X133931574Y-92179668D01*
X133885755Y-92160689D01*
X134544179Y-91502266D01*
X134543362Y-91501568D01*
X134328631Y-91369980D01*
X134095956Y-91273603D01*
X133851072Y-91214812D01*
X133600000Y-91195052D01*
X133348927Y-91214812D01*
X133104043Y-91273603D01*
X132871368Y-91369980D01*
X132656637Y-91501567D01*
X132655818Y-91502266D01*
X133314242Y-92160690D01*
X133268426Y-92179668D01*
X133153776Y-92256274D01*
X133056274Y-92353776D01*
X132979668Y-92468426D01*
X132960690Y-92514242D01*
X132302266Y-91855818D01*
X132301567Y-91856637D01*
X132169980Y-92071368D01*
X132073603Y-92304043D01*
X132014812Y-92548927D01*
X131995052Y-92800000D01*
X64251012Y-92800000D01*
X64235187Y-92598927D01*
X64176396Y-92354043D01*
X64080019Y-92121368D01*
X63948429Y-91906634D01*
X63947733Y-91905819D01*
X63947732Y-91905819D01*
X63289309Y-92564242D01*
X63270332Y-92518426D01*
X63193726Y-92403776D01*
X63096224Y-92306274D01*
X62981574Y-92229668D01*
X62935755Y-92210689D01*
X63594179Y-91552266D01*
X63593362Y-91551568D01*
X63378631Y-91419980D01*
X63145956Y-91323603D01*
X62901072Y-91264812D01*
X62650000Y-91245052D01*
X62398927Y-91264812D01*
X62154043Y-91323603D01*
X61921368Y-91419980D01*
X61706637Y-91551567D01*
X61705818Y-91552266D01*
X62364242Y-92210690D01*
X62318426Y-92229668D01*
X62203776Y-92306274D01*
X62106274Y-92403776D01*
X62029668Y-92518426D01*
X62010690Y-92564242D01*
X61352266Y-91905818D01*
X61351567Y-91906637D01*
X61219980Y-92121368D01*
X61123603Y-92354043D01*
X61064812Y-92598927D01*
X61045052Y-92850000D01*
X59154947Y-92850000D01*
X59135187Y-92598927D01*
X59076396Y-92354043D01*
X58980019Y-92121368D01*
X58848429Y-91906634D01*
X58847733Y-91905819D01*
X58847732Y-91905819D01*
X58189309Y-92564242D01*
X58170332Y-92518426D01*
X58093726Y-92403776D01*
X57996224Y-92306274D01*
X57881574Y-92229668D01*
X57835755Y-92210689D01*
X58494179Y-91552266D01*
X58493362Y-91551568D01*
X58278631Y-91419980D01*
X58045956Y-91323603D01*
X57801072Y-91264812D01*
X57550000Y-91245052D01*
X57298927Y-91264812D01*
X57054043Y-91323603D01*
X56821368Y-91419980D01*
X56606637Y-91551567D01*
X56605818Y-91552266D01*
X57264242Y-92210690D01*
X57218426Y-92229668D01*
X57103776Y-92306274D01*
X57006274Y-92403776D01*
X56929668Y-92518426D01*
X56910690Y-92564242D01*
X56252266Y-91905818D01*
X56251567Y-91906637D01*
X56119980Y-92121368D01*
X56023603Y-92354043D01*
X55964812Y-92598927D01*
X55945052Y-92850000D01*
X50300500Y-92850000D01*
X50300500Y-76600000D01*
X58020052Y-76600000D01*
X58039812Y-76851072D01*
X58098603Y-77095956D01*
X58194980Y-77328631D01*
X58326568Y-77543362D01*
X58327266Y-77544179D01*
X58985689Y-76885755D01*
X59004668Y-76931574D01*
X59081274Y-77046224D01*
X59178776Y-77143726D01*
X59293426Y-77220332D01*
X59339242Y-77239309D01*
X58680819Y-77897732D01*
X58680819Y-77897733D01*
X58681634Y-77898429D01*
X58896368Y-78030019D01*
X59129043Y-78126396D01*
X59373927Y-78185187D01*
X59625000Y-78204947D01*
X59876072Y-78185187D01*
X60120956Y-78126396D01*
X60353631Y-78030019D01*
X60568361Y-77898432D01*
X60568363Y-77898430D01*
X60569180Y-77897732D01*
X59910757Y-77239309D01*
X59956574Y-77220332D01*
X60071224Y-77143726D01*
X60168726Y-77046224D01*
X60245332Y-76931574D01*
X60264309Y-76885757D01*
X60922732Y-77544180D01*
X60923430Y-77543363D01*
X60923432Y-77543361D01*
X61055019Y-77328631D01*
X61151396Y-77095956D01*
X61210187Y-76851072D01*
X61229947Y-76600000D01*
X63120052Y-76600000D01*
X63139812Y-76851072D01*
X63198603Y-77095956D01*
X63294980Y-77328631D01*
X63426568Y-77543362D01*
X63427266Y-77544179D01*
X64085689Y-76885755D01*
X64104668Y-76931574D01*
X64181274Y-77046224D01*
X64278776Y-77143726D01*
X64393426Y-77220332D01*
X64439242Y-77239309D01*
X63780819Y-77897732D01*
X63780819Y-77897733D01*
X63781634Y-77898429D01*
X63996368Y-78030019D01*
X64229043Y-78126396D01*
X64473927Y-78185187D01*
X64725000Y-78204947D01*
X64976072Y-78185187D01*
X65220956Y-78126396D01*
X65453631Y-78030019D01*
X65668361Y-77898432D01*
X65668363Y-77898430D01*
X65669180Y-77897732D01*
X65010757Y-77239309D01*
X65056574Y-77220332D01*
X65171224Y-77143726D01*
X65268726Y-77046224D01*
X65345332Y-76931574D01*
X65364309Y-76885757D01*
X66022732Y-77544180D01*
X66023430Y-77543363D01*
X66023432Y-77543361D01*
X66141924Y-77350000D01*
X103920052Y-77350000D01*
X103939812Y-77601072D01*
X103998603Y-77845956D01*
X104094980Y-78078631D01*
X104226568Y-78293362D01*
X104227266Y-78294179D01*
X104885689Y-77635755D01*
X104904668Y-77681574D01*
X104981274Y-77796224D01*
X105078776Y-77893726D01*
X105193426Y-77970332D01*
X105239242Y-77989309D01*
X104580819Y-78647732D01*
X104580819Y-78647733D01*
X104581634Y-78648429D01*
X104796368Y-78780019D01*
X105029043Y-78876396D01*
X105273927Y-78935187D01*
X105525000Y-78954947D01*
X105776072Y-78935187D01*
X106020956Y-78876396D01*
X106253631Y-78780019D01*
X106468361Y-78648432D01*
X106468363Y-78648430D01*
X106469180Y-78647732D01*
X105810757Y-77989309D01*
X105856574Y-77970332D01*
X105971224Y-77893726D01*
X106068726Y-77796224D01*
X106145332Y-77681574D01*
X106164309Y-77635757D01*
X106822732Y-78294180D01*
X106823430Y-78293363D01*
X106823432Y-78293361D01*
X106955019Y-78078631D01*
X107051396Y-77845956D01*
X107110187Y-77601072D01*
X107129947Y-77350000D01*
X109020052Y-77350000D01*
X109039812Y-77601072D01*
X109098603Y-77845956D01*
X109194980Y-78078631D01*
X109326568Y-78293362D01*
X109327266Y-78294179D01*
X109985689Y-77635755D01*
X110004668Y-77681574D01*
X110081274Y-77796224D01*
X110178776Y-77893726D01*
X110293426Y-77970332D01*
X110339242Y-77989309D01*
X109680819Y-78647732D01*
X109680819Y-78647733D01*
X109681634Y-78648429D01*
X109896368Y-78780019D01*
X110129043Y-78876396D01*
X110373927Y-78935187D01*
X110625000Y-78954947D01*
X110876072Y-78935187D01*
X111120956Y-78876396D01*
X111353631Y-78780019D01*
X111568361Y-78648432D01*
X111568363Y-78648430D01*
X111569180Y-78647732D01*
X110910757Y-77989309D01*
X110956574Y-77970332D01*
X111071224Y-77893726D01*
X111168726Y-77796224D01*
X111245332Y-77681574D01*
X111264309Y-77635757D01*
X111922732Y-78294180D01*
X111923430Y-78293363D01*
X111923432Y-78293361D01*
X112055019Y-78078631D01*
X112151396Y-77845956D01*
X112210187Y-77601072D01*
X112229947Y-77350000D01*
X112210187Y-77098927D01*
X112151396Y-76854043D01*
X112055019Y-76621368D01*
X111923429Y-76406634D01*
X111922733Y-76405819D01*
X111922732Y-76405819D01*
X111264309Y-77064242D01*
X111245332Y-77018426D01*
X111168726Y-76903776D01*
X111071224Y-76806274D01*
X110956574Y-76729668D01*
X110910755Y-76710689D01*
X111569179Y-76052266D01*
X111568362Y-76051568D01*
X111353631Y-75919980D01*
X111120956Y-75823603D01*
X110876072Y-75764812D01*
X110625000Y-75745052D01*
X110373927Y-75764812D01*
X110129043Y-75823603D01*
X109896368Y-75919980D01*
X109681637Y-76051567D01*
X109680818Y-76052266D01*
X110339242Y-76710690D01*
X110293426Y-76729668D01*
X110178776Y-76806274D01*
X110081274Y-76903776D01*
X110004668Y-77018426D01*
X109985690Y-77064242D01*
X109327266Y-76405818D01*
X109326567Y-76406637D01*
X109194980Y-76621368D01*
X109098603Y-76854043D01*
X109039812Y-77098927D01*
X109020052Y-77350000D01*
X107129947Y-77350000D01*
X107110187Y-77098927D01*
X107051396Y-76854043D01*
X106955019Y-76621368D01*
X106823429Y-76406634D01*
X106822733Y-76405819D01*
X106822732Y-76405819D01*
X106164309Y-77064242D01*
X106145332Y-77018426D01*
X106068726Y-76903776D01*
X105971224Y-76806274D01*
X105856574Y-76729668D01*
X105810755Y-76710689D01*
X106469179Y-76052266D01*
X106468362Y-76051568D01*
X106253631Y-75919980D01*
X106020956Y-75823603D01*
X105776072Y-75764812D01*
X105525000Y-75745052D01*
X105273927Y-75764812D01*
X105029043Y-75823603D01*
X104796368Y-75919980D01*
X104581637Y-76051567D01*
X104580818Y-76052266D01*
X105239242Y-76710690D01*
X105193426Y-76729668D01*
X105078776Y-76806274D01*
X104981274Y-76903776D01*
X104904668Y-77018426D01*
X104885690Y-77064242D01*
X104227266Y-76405818D01*
X104226567Y-76406637D01*
X104094980Y-76621368D01*
X103998603Y-76854043D01*
X103939812Y-77098927D01*
X103920052Y-77350000D01*
X66141924Y-77350000D01*
X66155019Y-77328631D01*
X66251396Y-77095956D01*
X66310187Y-76851072D01*
X66329947Y-76600000D01*
X66310187Y-76348927D01*
X66251396Y-76104043D01*
X66155019Y-75871368D01*
X66023429Y-75656634D01*
X66022733Y-75655819D01*
X66022732Y-75655819D01*
X65364309Y-76314242D01*
X65345332Y-76268426D01*
X65268726Y-76153776D01*
X65171224Y-76056274D01*
X65056574Y-75979668D01*
X65010755Y-75960689D01*
X65669179Y-75302266D01*
X65668362Y-75301568D01*
X65453631Y-75169980D01*
X65220956Y-75073603D01*
X64976072Y-75014812D01*
X64725000Y-74995052D01*
X64473927Y-75014812D01*
X64229043Y-75073603D01*
X63996368Y-75169980D01*
X63781637Y-75301567D01*
X63780818Y-75302266D01*
X64439242Y-75960690D01*
X64393426Y-75979668D01*
X64278776Y-76056274D01*
X64181274Y-76153776D01*
X64104668Y-76268426D01*
X64085690Y-76314242D01*
X63427266Y-75655818D01*
X63426567Y-75656637D01*
X63294980Y-75871368D01*
X63198603Y-76104043D01*
X63139812Y-76348927D01*
X63120052Y-76600000D01*
X61229947Y-76600000D01*
X61210187Y-76348927D01*
X61151396Y-76104043D01*
X61055019Y-75871368D01*
X60923429Y-75656634D01*
X60922733Y-75655819D01*
X60922732Y-75655819D01*
X60264309Y-76314242D01*
X60245332Y-76268426D01*
X60168726Y-76153776D01*
X60071224Y-76056274D01*
X59956574Y-75979668D01*
X59910755Y-75960689D01*
X60569179Y-75302266D01*
X60568362Y-75301568D01*
X60353631Y-75169980D01*
X60120956Y-75073603D01*
X59876072Y-75014812D01*
X59625000Y-74995052D01*
X59373927Y-75014812D01*
X59129043Y-75073603D01*
X58896368Y-75169980D01*
X58681637Y-75301567D01*
X58680818Y-75302266D01*
X59339242Y-75960690D01*
X59293426Y-75979668D01*
X59178776Y-76056274D01*
X59081274Y-76153776D01*
X59004668Y-76268426D01*
X58985690Y-76314242D01*
X58327266Y-75655818D01*
X58326567Y-75656637D01*
X58194980Y-75871368D01*
X58098603Y-76104043D01*
X58039812Y-76348927D01*
X58020052Y-76600000D01*
X50300500Y-76600000D01*
X50300500Y-73955513D01*
X60974500Y-73955513D01*
X60974500Y-74144486D01*
X61004059Y-74331118D01*
X61062454Y-74510836D01*
X61122684Y-74629043D01*
X61148240Y-74679199D01*
X61259310Y-74832073D01*
X61392927Y-74965690D01*
X61545801Y-75076760D01*
X61625347Y-75117290D01*
X61714163Y-75162545D01*
X61714165Y-75162545D01*
X61714168Y-75162547D01*
X61810497Y-75193846D01*
X61893881Y-75220940D01*
X62080514Y-75250500D01*
X62080519Y-75250500D01*
X62269486Y-75250500D01*
X62456118Y-75220940D01*
X62635832Y-75162547D01*
X62804199Y-75076760D01*
X62957073Y-74965690D01*
X63090690Y-74832073D01*
X63182642Y-74705513D01*
X106874500Y-74705513D01*
X106874500Y-74894486D01*
X106904059Y-75081118D01*
X106962454Y-75260836D01*
X107048240Y-75429199D01*
X107159310Y-75582073D01*
X107292927Y-75715690D01*
X107445801Y-75826760D01*
X107525347Y-75867290D01*
X107614163Y-75912545D01*
X107614165Y-75912545D01*
X107614168Y-75912547D01*
X107658345Y-75926901D01*
X107793881Y-75970940D01*
X107980514Y-76000500D01*
X107980519Y-76000500D01*
X108169486Y-76000500D01*
X108356118Y-75970940D01*
X108535832Y-75912547D01*
X108704199Y-75826760D01*
X108857073Y-75715690D01*
X108990690Y-75582073D01*
X109101760Y-75429199D01*
X109187547Y-75260832D01*
X109231682Y-75125000D01*
X131395052Y-75125000D01*
X131414812Y-75376072D01*
X131473603Y-75620956D01*
X131569980Y-75853631D01*
X131701568Y-76068362D01*
X131702266Y-76069179D01*
X132360689Y-75410755D01*
X132379668Y-75456574D01*
X132456274Y-75571224D01*
X132553776Y-75668726D01*
X132668426Y-75745332D01*
X132714242Y-75764309D01*
X132055819Y-76422732D01*
X132055819Y-76422733D01*
X132056634Y-76423429D01*
X132271368Y-76555019D01*
X132504043Y-76651396D01*
X132748927Y-76710187D01*
X133000000Y-76729947D01*
X133251072Y-76710187D01*
X133495956Y-76651396D01*
X133728631Y-76555019D01*
X133943361Y-76423432D01*
X133943363Y-76423430D01*
X133944180Y-76422732D01*
X133285757Y-75764309D01*
X133331574Y-75745332D01*
X133446224Y-75668726D01*
X133543726Y-75571224D01*
X133620332Y-75456574D01*
X133639309Y-75410757D01*
X134297732Y-76069180D01*
X134298430Y-76068363D01*
X134298432Y-76068361D01*
X134430019Y-75853631D01*
X134526396Y-75620956D01*
X134585187Y-75376072D01*
X134604947Y-75125000D01*
X136495052Y-75125000D01*
X136514812Y-75376072D01*
X136573603Y-75620956D01*
X136669980Y-75853631D01*
X136801568Y-76068362D01*
X136802266Y-76069179D01*
X137460689Y-75410755D01*
X137479668Y-75456574D01*
X137556274Y-75571224D01*
X137653776Y-75668726D01*
X137768426Y-75745332D01*
X137814242Y-75764309D01*
X137155819Y-76422732D01*
X137155819Y-76422733D01*
X137156634Y-76423429D01*
X137371368Y-76555019D01*
X137604043Y-76651396D01*
X137848927Y-76710187D01*
X138100000Y-76729947D01*
X138351072Y-76710187D01*
X138595956Y-76651396D01*
X138828631Y-76555019D01*
X139043361Y-76423432D01*
X139043363Y-76423430D01*
X139044180Y-76422732D01*
X138385757Y-75764309D01*
X138431574Y-75745332D01*
X138546224Y-75668726D01*
X138643726Y-75571224D01*
X138720332Y-75456574D01*
X138739309Y-75410757D01*
X139397732Y-76069180D01*
X139398430Y-76068363D01*
X139398432Y-76068361D01*
X139530019Y-75853631D01*
X139626396Y-75620956D01*
X139685187Y-75376072D01*
X139704947Y-75125000D01*
X139685187Y-74873927D01*
X139626396Y-74629043D01*
X139530019Y-74396368D01*
X139398429Y-74181634D01*
X139397733Y-74180819D01*
X139397732Y-74180819D01*
X138739309Y-74839242D01*
X138720332Y-74793426D01*
X138643726Y-74678776D01*
X138546224Y-74581274D01*
X138431574Y-74504668D01*
X138385755Y-74485689D01*
X139044179Y-73827266D01*
X139043362Y-73826568D01*
X138828631Y-73694980D01*
X138595956Y-73598603D01*
X138351072Y-73539812D01*
X138100000Y-73520052D01*
X137848927Y-73539812D01*
X137604043Y-73598603D01*
X137371368Y-73694980D01*
X137156637Y-73826567D01*
X137155818Y-73827266D01*
X137814242Y-74485690D01*
X137768426Y-74504668D01*
X137653776Y-74581274D01*
X137556274Y-74678776D01*
X137479668Y-74793426D01*
X137460690Y-74839242D01*
X136802266Y-74180818D01*
X136801567Y-74181637D01*
X136669980Y-74396368D01*
X136573603Y-74629043D01*
X136514812Y-74873927D01*
X136495052Y-75125000D01*
X134604947Y-75125000D01*
X134585187Y-74873927D01*
X134526396Y-74629043D01*
X134430019Y-74396368D01*
X134298429Y-74181634D01*
X134297733Y-74180819D01*
X134297732Y-74180819D01*
X133639309Y-74839242D01*
X133620332Y-74793426D01*
X133543726Y-74678776D01*
X133446224Y-74581274D01*
X133331574Y-74504668D01*
X133285755Y-74485689D01*
X133944179Y-73827266D01*
X133943362Y-73826568D01*
X133728631Y-73694980D01*
X133495956Y-73598603D01*
X133251072Y-73539812D01*
X133000000Y-73520052D01*
X132748927Y-73539812D01*
X132504043Y-73598603D01*
X132271368Y-73694980D01*
X132056637Y-73826567D01*
X132055818Y-73827266D01*
X132714242Y-74485690D01*
X132668426Y-74504668D01*
X132553776Y-74581274D01*
X132456274Y-74678776D01*
X132379668Y-74793426D01*
X132360690Y-74839242D01*
X131702266Y-74180818D01*
X131701567Y-74181637D01*
X131569980Y-74396368D01*
X131473603Y-74629043D01*
X131414812Y-74873927D01*
X131395052Y-75125000D01*
X109231682Y-75125000D01*
X109245940Y-75081118D01*
X109256442Y-75014812D01*
X109275500Y-74894486D01*
X109275500Y-74705513D01*
X109245940Y-74518881D01*
X109215436Y-74425000D01*
X109187547Y-74339168D01*
X109187545Y-74339165D01*
X109187545Y-74339163D01*
X109107281Y-74181637D01*
X109101760Y-74170801D01*
X108990690Y-74017927D01*
X108857073Y-73884310D01*
X108704199Y-73773240D01*
X108650620Y-73745940D01*
X108535836Y-73687454D01*
X108356118Y-73629059D01*
X108169486Y-73599500D01*
X108169481Y-73599500D01*
X107980519Y-73599500D01*
X107980514Y-73599500D01*
X107793881Y-73629059D01*
X107614163Y-73687454D01*
X107445800Y-73773240D01*
X107372403Y-73826567D01*
X107292927Y-73884310D01*
X107292925Y-73884312D01*
X107292924Y-73884312D01*
X107159312Y-74017924D01*
X107159312Y-74017925D01*
X107159310Y-74017927D01*
X107111610Y-74083579D01*
X107048240Y-74170800D01*
X106962454Y-74339163D01*
X106904059Y-74518881D01*
X106874500Y-74705513D01*
X63182642Y-74705513D01*
X63201760Y-74679199D01*
X63287547Y-74510832D01*
X63345940Y-74331118D01*
X63375500Y-74144486D01*
X63375500Y-73955513D01*
X63345940Y-73768881D01*
X63290904Y-73599500D01*
X63287547Y-73589168D01*
X63287545Y-73589165D01*
X63287545Y-73589163D01*
X63201759Y-73420800D01*
X63090690Y-73267927D01*
X62957073Y-73134310D01*
X62804199Y-73023240D01*
X62635836Y-72937454D01*
X62456118Y-72879059D01*
X62269486Y-72849500D01*
X62269481Y-72849500D01*
X62080519Y-72849500D01*
X62080514Y-72849500D01*
X61893881Y-72879059D01*
X61714163Y-72937454D01*
X61545800Y-73023240D01*
X61460539Y-73085187D01*
X61392927Y-73134310D01*
X61392925Y-73134312D01*
X61392924Y-73134312D01*
X61259312Y-73267924D01*
X61259312Y-73267925D01*
X61259310Y-73267927D01*
X61211610Y-73333579D01*
X61148240Y-73420800D01*
X61062454Y-73589163D01*
X61004059Y-73768881D01*
X60974500Y-73955513D01*
X50300500Y-73955513D01*
X50300500Y-71500000D01*
X58020052Y-71500000D01*
X58039812Y-71751072D01*
X58098603Y-71995956D01*
X58194980Y-72228631D01*
X58326568Y-72443362D01*
X58327266Y-72444179D01*
X58985689Y-71785755D01*
X59004668Y-71831574D01*
X59081274Y-71946224D01*
X59178776Y-72043726D01*
X59293426Y-72120332D01*
X59339242Y-72139309D01*
X58680819Y-72797732D01*
X58680819Y-72797733D01*
X58681634Y-72798429D01*
X58896368Y-72930019D01*
X59129043Y-73026396D01*
X59373927Y-73085187D01*
X59625000Y-73104947D01*
X59876072Y-73085187D01*
X60120956Y-73026396D01*
X60353631Y-72930019D01*
X60568361Y-72798432D01*
X60568363Y-72798430D01*
X60569180Y-72797732D01*
X59910757Y-72139309D01*
X59956574Y-72120332D01*
X60071224Y-72043726D01*
X60168726Y-71946224D01*
X60245332Y-71831574D01*
X60264309Y-71785757D01*
X60922732Y-72444180D01*
X60923430Y-72443363D01*
X60923432Y-72443361D01*
X61055019Y-72228631D01*
X61151396Y-71995956D01*
X61210187Y-71751072D01*
X61229947Y-71500000D01*
X63120052Y-71500000D01*
X63139812Y-71751072D01*
X63198603Y-71995956D01*
X63294980Y-72228631D01*
X63426568Y-72443362D01*
X63427266Y-72444179D01*
X64085689Y-71785755D01*
X64104668Y-71831574D01*
X64181274Y-71946224D01*
X64278776Y-72043726D01*
X64393426Y-72120332D01*
X64439242Y-72139309D01*
X63780819Y-72797732D01*
X63780819Y-72797733D01*
X63781634Y-72798429D01*
X63996368Y-72930019D01*
X64229043Y-73026396D01*
X64473927Y-73085187D01*
X64725000Y-73104947D01*
X64976072Y-73085187D01*
X65220956Y-73026396D01*
X65453631Y-72930019D01*
X65668361Y-72798432D01*
X65668363Y-72798430D01*
X65669180Y-72797732D01*
X65010757Y-72139309D01*
X65056574Y-72120332D01*
X65171224Y-72043726D01*
X65268726Y-71946224D01*
X65345332Y-71831574D01*
X65364309Y-71785757D01*
X66022732Y-72444180D01*
X66023430Y-72443363D01*
X66023432Y-72443361D01*
X66155019Y-72228631D01*
X66251396Y-71995956D01*
X66310187Y-71751072D01*
X66329947Y-71500000D01*
X66312633Y-71280000D01*
X86065052Y-71280000D01*
X86084812Y-71531072D01*
X86143603Y-71775956D01*
X86239980Y-72008631D01*
X86371568Y-72223362D01*
X86372266Y-72224179D01*
X87030689Y-71565755D01*
X87049668Y-71611574D01*
X87126274Y-71726224D01*
X87223776Y-71823726D01*
X87338426Y-71900332D01*
X87384242Y-71919309D01*
X86725819Y-72577732D01*
X86725819Y-72577733D01*
X86726634Y-72578429D01*
X86941368Y-72710019D01*
X87174043Y-72806396D01*
X87418927Y-72865187D01*
X87670000Y-72884947D01*
X87921072Y-72865187D01*
X88165956Y-72806396D01*
X88398631Y-72710019D01*
X88613361Y-72578432D01*
X88613363Y-72578430D01*
X88614180Y-72577732D01*
X87955757Y-71919309D01*
X88001574Y-71900332D01*
X88116224Y-71823726D01*
X88213726Y-71726224D01*
X88290332Y-71611574D01*
X88309309Y-71565757D01*
X88967732Y-72224180D01*
X88968430Y-72223363D01*
X88968432Y-72223361D01*
X89100019Y-72008631D01*
X89196396Y-71775956D01*
X89255187Y-71531072D01*
X89274947Y-71280000D01*
X91165052Y-71280000D01*
X91184812Y-71531072D01*
X91243603Y-71775956D01*
X91339980Y-72008631D01*
X91471568Y-72223362D01*
X91472266Y-72224179D01*
X92130689Y-71565755D01*
X92149668Y-71611574D01*
X92226274Y-71726224D01*
X92323776Y-71823726D01*
X92438426Y-71900332D01*
X92484242Y-71919309D01*
X91825819Y-72577732D01*
X91825819Y-72577733D01*
X91826634Y-72578429D01*
X92041368Y-72710019D01*
X92274043Y-72806396D01*
X92518927Y-72865187D01*
X92770000Y-72884947D01*
X93021072Y-72865187D01*
X93265956Y-72806396D01*
X93498631Y-72710019D01*
X93713361Y-72578432D01*
X93713363Y-72578430D01*
X93714180Y-72577732D01*
X93386448Y-72250000D01*
X103920052Y-72250000D01*
X103939812Y-72501072D01*
X103998603Y-72745956D01*
X104094980Y-72978631D01*
X104226568Y-73193362D01*
X104227266Y-73194179D01*
X104885689Y-72535755D01*
X104904668Y-72581574D01*
X104981274Y-72696224D01*
X105078776Y-72793726D01*
X105193426Y-72870332D01*
X105239242Y-72889309D01*
X104580819Y-73547732D01*
X104580819Y-73547733D01*
X104581634Y-73548429D01*
X104796368Y-73680019D01*
X105029043Y-73776396D01*
X105273927Y-73835187D01*
X105525000Y-73854947D01*
X105776072Y-73835187D01*
X106020956Y-73776396D01*
X106253631Y-73680019D01*
X106468361Y-73548432D01*
X106468363Y-73548430D01*
X106469180Y-73547732D01*
X105810757Y-72889309D01*
X105856574Y-72870332D01*
X105971224Y-72793726D01*
X106068726Y-72696224D01*
X106145332Y-72581574D01*
X106164309Y-72535757D01*
X106822732Y-73194180D01*
X106823430Y-73193363D01*
X106823432Y-73193361D01*
X106955019Y-72978631D01*
X107051396Y-72745956D01*
X107110187Y-72501072D01*
X107129947Y-72250000D01*
X109020052Y-72250000D01*
X109039812Y-72501072D01*
X109098603Y-72745956D01*
X109194980Y-72978631D01*
X109326568Y-73193362D01*
X109327266Y-73194179D01*
X109985689Y-72535755D01*
X110004668Y-72581574D01*
X110081274Y-72696224D01*
X110178776Y-72793726D01*
X110293426Y-72870332D01*
X110339242Y-72889309D01*
X109680819Y-73547732D01*
X109680819Y-73547733D01*
X109681634Y-73548429D01*
X109896368Y-73680019D01*
X110129043Y-73776396D01*
X110373927Y-73835187D01*
X110625000Y-73854947D01*
X110876072Y-73835187D01*
X111120956Y-73776396D01*
X111353631Y-73680019D01*
X111568361Y-73548432D01*
X111568363Y-73548430D01*
X111569180Y-73547732D01*
X110910757Y-72889309D01*
X110956574Y-72870332D01*
X111071224Y-72793726D01*
X111168726Y-72696224D01*
X111245332Y-72581574D01*
X111264309Y-72535757D01*
X111922732Y-73194180D01*
X111923430Y-73193363D01*
X111923432Y-73193361D01*
X112055019Y-72978631D01*
X112151396Y-72745956D01*
X112210187Y-72501072D01*
X112211805Y-72480513D01*
X134349500Y-72480513D01*
X134349500Y-72669486D01*
X134379059Y-72856118D01*
X134437454Y-73035836D01*
X134517718Y-73193361D01*
X134523240Y-73204199D01*
X134634310Y-73357073D01*
X134767927Y-73490690D01*
X134920801Y-73601760D01*
X135000347Y-73642290D01*
X135089163Y-73687545D01*
X135089165Y-73687545D01*
X135089168Y-73687547D01*
X135185497Y-73718846D01*
X135268881Y-73745940D01*
X135455514Y-73775500D01*
X135455519Y-73775500D01*
X135644486Y-73775500D01*
X135831118Y-73745940D01*
X136010832Y-73687547D01*
X136011017Y-73687453D01*
X136017014Y-73684396D01*
X136179199Y-73601760D01*
X136332073Y-73490690D01*
X136465690Y-73357073D01*
X136576760Y-73204199D01*
X136662547Y-73035832D01*
X136720940Y-72856118D01*
X136728815Y-72806396D01*
X136750500Y-72669486D01*
X136750500Y-72480513D01*
X136720940Y-72293881D01*
X136681695Y-72173099D01*
X136662547Y-72114168D01*
X136662545Y-72114165D01*
X136662545Y-72114163D01*
X136594185Y-71980000D01*
X136576760Y-71945801D01*
X136465690Y-71792927D01*
X136332073Y-71659310D01*
X136179199Y-71548240D01*
X136126460Y-71521368D01*
X136010836Y-71462454D01*
X135831118Y-71404059D01*
X135644486Y-71374500D01*
X135644481Y-71374500D01*
X135455519Y-71374500D01*
X135455514Y-71374500D01*
X135268881Y-71404059D01*
X135089163Y-71462454D01*
X134920800Y-71548240D01*
X134835539Y-71610187D01*
X134767927Y-71659310D01*
X134767925Y-71659312D01*
X134767924Y-71659312D01*
X134634312Y-71792924D01*
X134634312Y-71792925D01*
X134634310Y-71792927D01*
X134626428Y-71803776D01*
X134523240Y-71945800D01*
X134437454Y-72114163D01*
X134379059Y-72293881D01*
X134349500Y-72480513D01*
X112211805Y-72480513D01*
X112229947Y-72250000D01*
X112210187Y-71998927D01*
X112151396Y-71754043D01*
X112055019Y-71521368D01*
X111923429Y-71306634D01*
X111922733Y-71305819D01*
X111922732Y-71305819D01*
X111264309Y-71964242D01*
X111245332Y-71918426D01*
X111168726Y-71803776D01*
X111071224Y-71706274D01*
X110956574Y-71629668D01*
X110910755Y-71610689D01*
X111569179Y-70952266D01*
X111568362Y-70951568D01*
X111353631Y-70819980D01*
X111120956Y-70723603D01*
X110876072Y-70664812D01*
X110625000Y-70645052D01*
X110373927Y-70664812D01*
X110129043Y-70723603D01*
X109896368Y-70819980D01*
X109681637Y-70951567D01*
X109680818Y-70952266D01*
X110339242Y-71610690D01*
X110293426Y-71629668D01*
X110178776Y-71706274D01*
X110081274Y-71803776D01*
X110004668Y-71918426D01*
X109985690Y-71964242D01*
X109327266Y-71305818D01*
X109326567Y-71306637D01*
X109194980Y-71521368D01*
X109098603Y-71754043D01*
X109039812Y-71998927D01*
X109020052Y-72250000D01*
X107129947Y-72250000D01*
X107110187Y-71998927D01*
X107051396Y-71754043D01*
X106955019Y-71521368D01*
X106823429Y-71306634D01*
X106822733Y-71305819D01*
X106822732Y-71305819D01*
X106164309Y-71964242D01*
X106145332Y-71918426D01*
X106068726Y-71803776D01*
X105971224Y-71706274D01*
X105856574Y-71629668D01*
X105810755Y-71610689D01*
X106469179Y-70952266D01*
X106468362Y-70951568D01*
X106253631Y-70819980D01*
X106020956Y-70723603D01*
X105776072Y-70664812D01*
X105525000Y-70645052D01*
X105273927Y-70664812D01*
X105029043Y-70723603D01*
X104796368Y-70819980D01*
X104581637Y-70951567D01*
X104580818Y-70952266D01*
X105239242Y-71610690D01*
X105193426Y-71629668D01*
X105078776Y-71706274D01*
X104981274Y-71803776D01*
X104904668Y-71918426D01*
X104885690Y-71964242D01*
X104227266Y-71305818D01*
X104226567Y-71306637D01*
X104094980Y-71521368D01*
X103998603Y-71754043D01*
X103939812Y-71998927D01*
X103920052Y-72250000D01*
X93386448Y-72250000D01*
X93055757Y-71919309D01*
X93101574Y-71900332D01*
X93216224Y-71823726D01*
X93313726Y-71726224D01*
X93390332Y-71611574D01*
X93409309Y-71565757D01*
X94067732Y-72224180D01*
X94068430Y-72223363D01*
X94068432Y-72223361D01*
X94200019Y-72008631D01*
X94296396Y-71775956D01*
X94355187Y-71531072D01*
X94374947Y-71280000D01*
X94355187Y-71028927D01*
X94296396Y-70784043D01*
X94200019Y-70551368D01*
X94068429Y-70336634D01*
X94067733Y-70335819D01*
X94067732Y-70335819D01*
X93409309Y-70994242D01*
X93390332Y-70948426D01*
X93313726Y-70833776D01*
X93216224Y-70736274D01*
X93101574Y-70659668D01*
X93055755Y-70640689D01*
X93671445Y-70025000D01*
X131395052Y-70025000D01*
X131414812Y-70276072D01*
X131473603Y-70520956D01*
X131569980Y-70753631D01*
X131701568Y-70968362D01*
X131702266Y-70969179D01*
X132360689Y-70310755D01*
X132379668Y-70356574D01*
X132456274Y-70471224D01*
X132553776Y-70568726D01*
X132668426Y-70645332D01*
X132714242Y-70664309D01*
X132055819Y-71322732D01*
X132055819Y-71322733D01*
X132056634Y-71323429D01*
X132271368Y-71455019D01*
X132504043Y-71551396D01*
X132748927Y-71610187D01*
X133000000Y-71629947D01*
X133251072Y-71610187D01*
X133495956Y-71551396D01*
X133728631Y-71455019D01*
X133943361Y-71323432D01*
X133943363Y-71323430D01*
X133944180Y-71322732D01*
X133285757Y-70664309D01*
X133331574Y-70645332D01*
X133446224Y-70568726D01*
X133543726Y-70471224D01*
X133620332Y-70356574D01*
X133639309Y-70310757D01*
X134297732Y-70969180D01*
X134298430Y-70968363D01*
X134298432Y-70968361D01*
X134430019Y-70753631D01*
X134526396Y-70520956D01*
X134585187Y-70276072D01*
X134604947Y-70025000D01*
X136495052Y-70025000D01*
X136514812Y-70276072D01*
X136573603Y-70520956D01*
X136669980Y-70753631D01*
X136801568Y-70968362D01*
X136802266Y-70969179D01*
X137460689Y-70310755D01*
X137479668Y-70356574D01*
X137556274Y-70471224D01*
X137653776Y-70568726D01*
X137768426Y-70645332D01*
X137814242Y-70664309D01*
X137155819Y-71322732D01*
X137155819Y-71322733D01*
X137156634Y-71323429D01*
X137371368Y-71455019D01*
X137604043Y-71551396D01*
X137848927Y-71610187D01*
X138100000Y-71629947D01*
X138351072Y-71610187D01*
X138595956Y-71551396D01*
X138828631Y-71455019D01*
X139043361Y-71323432D01*
X139043363Y-71323430D01*
X139044180Y-71322732D01*
X138385757Y-70664309D01*
X138431574Y-70645332D01*
X138546224Y-70568726D01*
X138643726Y-70471224D01*
X138720332Y-70356574D01*
X138739309Y-70310757D01*
X139397732Y-70969180D01*
X139398430Y-70968363D01*
X139398432Y-70968361D01*
X139530019Y-70753631D01*
X139626396Y-70520956D01*
X139685187Y-70276072D01*
X139704947Y-70025000D01*
X139685187Y-69773927D01*
X139626396Y-69529043D01*
X139530019Y-69296368D01*
X139398429Y-69081634D01*
X139397733Y-69080819D01*
X139397732Y-69080819D01*
X138739309Y-69739242D01*
X138720332Y-69693426D01*
X138643726Y-69578776D01*
X138546224Y-69481274D01*
X138431574Y-69404668D01*
X138385755Y-69385689D01*
X139044179Y-68727266D01*
X139043362Y-68726568D01*
X138828631Y-68594980D01*
X138595956Y-68498603D01*
X138351072Y-68439812D01*
X138100000Y-68420052D01*
X137848927Y-68439812D01*
X137604043Y-68498603D01*
X137371368Y-68594980D01*
X137156637Y-68726567D01*
X137155818Y-68727266D01*
X137814242Y-69385690D01*
X137768426Y-69404668D01*
X137653776Y-69481274D01*
X137556274Y-69578776D01*
X137479668Y-69693426D01*
X137460690Y-69739242D01*
X136802266Y-69080818D01*
X136801567Y-69081637D01*
X136669980Y-69296368D01*
X136573603Y-69529043D01*
X136514812Y-69773927D01*
X136495052Y-70025000D01*
X134604947Y-70025000D01*
X134585187Y-69773927D01*
X134526396Y-69529043D01*
X134430019Y-69296368D01*
X134298429Y-69081634D01*
X134297733Y-69080819D01*
X134297732Y-69080819D01*
X133639309Y-69739242D01*
X133620332Y-69693426D01*
X133543726Y-69578776D01*
X133446224Y-69481274D01*
X133331574Y-69404668D01*
X133285755Y-69385689D01*
X133944179Y-68727266D01*
X133943362Y-68726568D01*
X133728631Y-68594980D01*
X133495956Y-68498603D01*
X133251072Y-68439812D01*
X133000000Y-68420052D01*
X132748927Y-68439812D01*
X132504043Y-68498603D01*
X132271368Y-68594980D01*
X132056637Y-68726567D01*
X132055818Y-68727266D01*
X132714242Y-69385690D01*
X132668426Y-69404668D01*
X132553776Y-69481274D01*
X132456274Y-69578776D01*
X132379668Y-69693426D01*
X132360690Y-69739242D01*
X131702266Y-69080818D01*
X131701567Y-69081637D01*
X131569980Y-69296368D01*
X131473603Y-69529043D01*
X131414812Y-69773927D01*
X131395052Y-70025000D01*
X93671445Y-70025000D01*
X93714179Y-69982266D01*
X93713362Y-69981568D01*
X93498631Y-69849980D01*
X93265956Y-69753603D01*
X93021072Y-69694812D01*
X92770000Y-69675052D01*
X92518927Y-69694812D01*
X92274043Y-69753603D01*
X92041368Y-69849980D01*
X91826637Y-69981567D01*
X91825818Y-69982266D01*
X92484242Y-70640690D01*
X92438426Y-70659668D01*
X92323776Y-70736274D01*
X92226274Y-70833776D01*
X92149668Y-70948426D01*
X92130690Y-70994242D01*
X91472266Y-70335818D01*
X91471567Y-70336637D01*
X91339980Y-70551368D01*
X91243603Y-70784043D01*
X91184812Y-71028927D01*
X91165052Y-71280000D01*
X89274947Y-71280000D01*
X89255187Y-71028927D01*
X89196396Y-70784043D01*
X89100019Y-70551368D01*
X88968429Y-70336634D01*
X88967733Y-70335819D01*
X88967732Y-70335819D01*
X88309309Y-70994242D01*
X88290332Y-70948426D01*
X88213726Y-70833776D01*
X88116224Y-70736274D01*
X88001574Y-70659668D01*
X87955755Y-70640689D01*
X88614179Y-69982266D01*
X88613362Y-69981568D01*
X88398631Y-69849980D01*
X88165956Y-69753603D01*
X87921072Y-69694812D01*
X87670000Y-69675052D01*
X87418927Y-69694812D01*
X87174043Y-69753603D01*
X86941368Y-69849980D01*
X86726637Y-69981567D01*
X86725818Y-69982266D01*
X87384242Y-70640690D01*
X87338426Y-70659668D01*
X87223776Y-70736274D01*
X87126274Y-70833776D01*
X87049668Y-70948426D01*
X87030690Y-70994242D01*
X86372266Y-70335818D01*
X86371567Y-70336637D01*
X86239980Y-70551368D01*
X86143603Y-70784043D01*
X86084812Y-71028927D01*
X86065052Y-71280000D01*
X66312633Y-71280000D01*
X66310187Y-71248927D01*
X66251396Y-71004043D01*
X66155019Y-70771368D01*
X66023429Y-70556634D01*
X66022733Y-70555819D01*
X66022732Y-70555819D01*
X65364309Y-71214242D01*
X65345332Y-71168426D01*
X65268726Y-71053776D01*
X65171224Y-70956274D01*
X65056574Y-70879668D01*
X65010755Y-70860689D01*
X65669179Y-70202266D01*
X65668362Y-70201568D01*
X65453631Y-70069980D01*
X65220956Y-69973603D01*
X64976072Y-69914812D01*
X64725000Y-69895052D01*
X64473927Y-69914812D01*
X64229043Y-69973603D01*
X63996368Y-70069980D01*
X63781637Y-70201567D01*
X63780818Y-70202266D01*
X64439242Y-70860690D01*
X64393426Y-70879668D01*
X64278776Y-70956274D01*
X64181274Y-71053776D01*
X64104668Y-71168426D01*
X64085690Y-71214242D01*
X63427266Y-70555818D01*
X63426567Y-70556637D01*
X63294980Y-70771368D01*
X63198603Y-71004043D01*
X63139812Y-71248927D01*
X63120052Y-71500000D01*
X61229947Y-71500000D01*
X61210187Y-71248927D01*
X61151396Y-71004043D01*
X61055019Y-70771368D01*
X60923429Y-70556634D01*
X60922733Y-70555819D01*
X60922732Y-70555819D01*
X60264309Y-71214242D01*
X60245332Y-71168426D01*
X60168726Y-71053776D01*
X60071224Y-70956274D01*
X59956574Y-70879668D01*
X59910755Y-70860689D01*
X60569179Y-70202266D01*
X60568362Y-70201568D01*
X60353631Y-70069980D01*
X60120956Y-69973603D01*
X59876072Y-69914812D01*
X59625000Y-69895052D01*
X59373927Y-69914812D01*
X59129043Y-69973603D01*
X58896368Y-70069980D01*
X58681637Y-70201567D01*
X58680818Y-70202266D01*
X59339242Y-70860690D01*
X59293426Y-70879668D01*
X59178776Y-70956274D01*
X59081274Y-71053776D01*
X59004668Y-71168426D01*
X58985690Y-71214242D01*
X58327266Y-70555818D01*
X58326567Y-70556637D01*
X58194980Y-70771368D01*
X58098603Y-71004043D01*
X58039812Y-71248927D01*
X58020052Y-71500000D01*
X50300500Y-71500000D01*
X50300500Y-68635513D01*
X89019500Y-68635513D01*
X89019500Y-68824486D01*
X89049059Y-69011118D01*
X89107454Y-69190836D01*
X89161226Y-69296368D01*
X89193240Y-69359199D01*
X89304310Y-69512073D01*
X89437927Y-69645690D01*
X89590801Y-69756760D01*
X89670347Y-69797290D01*
X89759163Y-69842545D01*
X89759165Y-69842545D01*
X89759168Y-69842547D01*
X89855497Y-69873846D01*
X89938881Y-69900940D01*
X90125514Y-69930500D01*
X90125519Y-69930500D01*
X90314486Y-69930500D01*
X90501118Y-69900940D01*
X90519239Y-69895052D01*
X90680832Y-69842547D01*
X90849199Y-69756760D01*
X91002073Y-69645690D01*
X91135690Y-69512073D01*
X91246760Y-69359199D01*
X91332547Y-69190832D01*
X91390940Y-69011118D01*
X91420500Y-68824486D01*
X91420500Y-68635513D01*
X91390940Y-68448881D01*
X91332545Y-68269163D01*
X91246759Y-68100800D01*
X91135690Y-67947927D01*
X91002073Y-67814310D01*
X90849199Y-67703240D01*
X90680836Y-67617454D01*
X90501118Y-67559059D01*
X90314486Y-67529500D01*
X90314481Y-67529500D01*
X90125519Y-67529500D01*
X90125514Y-67529500D01*
X89938881Y-67559059D01*
X89759163Y-67617454D01*
X89590800Y-67703240D01*
X89505539Y-67765187D01*
X89437927Y-67814310D01*
X89437925Y-67814312D01*
X89437924Y-67814312D01*
X89304312Y-67947924D01*
X89304312Y-67947925D01*
X89304310Y-67947927D01*
X89256610Y-68013579D01*
X89193240Y-68100800D01*
X89107454Y-68269163D01*
X89049059Y-68448881D01*
X89019500Y-68635513D01*
X50300500Y-68635513D01*
X50300500Y-66180000D01*
X86065052Y-66180000D01*
X86084812Y-66431072D01*
X86143603Y-66675956D01*
X86239980Y-66908631D01*
X86371568Y-67123362D01*
X86372266Y-67124179D01*
X87030689Y-66465755D01*
X87049668Y-66511574D01*
X87126274Y-66626224D01*
X87223776Y-66723726D01*
X87338426Y-66800332D01*
X87384242Y-66819309D01*
X86725819Y-67477732D01*
X86725819Y-67477733D01*
X86726634Y-67478429D01*
X86941368Y-67610019D01*
X87174043Y-67706396D01*
X87418927Y-67765187D01*
X87670000Y-67784947D01*
X87921072Y-67765187D01*
X88165956Y-67706396D01*
X88398631Y-67610019D01*
X88613361Y-67478432D01*
X88613363Y-67478430D01*
X88614180Y-67477732D01*
X87955757Y-66819309D01*
X88001574Y-66800332D01*
X88116224Y-66723726D01*
X88213726Y-66626224D01*
X88290332Y-66511574D01*
X88309309Y-66465757D01*
X88967732Y-67124180D01*
X88968430Y-67123363D01*
X88968432Y-67123361D01*
X89100019Y-66908631D01*
X89196396Y-66675956D01*
X89255187Y-66431072D01*
X89274947Y-66180000D01*
X91165052Y-66180000D01*
X91184812Y-66431072D01*
X91243603Y-66675956D01*
X91339980Y-66908631D01*
X91471568Y-67123362D01*
X91472266Y-67124179D01*
X92130689Y-66465755D01*
X92149668Y-66511574D01*
X92226274Y-66626224D01*
X92323776Y-66723726D01*
X92438426Y-66800332D01*
X92484242Y-66819309D01*
X91825819Y-67477732D01*
X91825819Y-67477733D01*
X91826634Y-67478429D01*
X92041368Y-67610019D01*
X92274043Y-67706396D01*
X92518927Y-67765187D01*
X92770000Y-67784947D01*
X93021072Y-67765187D01*
X93265956Y-67706396D01*
X93498631Y-67610019D01*
X93713361Y-67478432D01*
X93713363Y-67478430D01*
X93714180Y-67477732D01*
X93055757Y-66819309D01*
X93101574Y-66800332D01*
X93216224Y-66723726D01*
X93313726Y-66626224D01*
X93390332Y-66511574D01*
X93409309Y-66465757D01*
X94067732Y-67124180D01*
X94068430Y-67123363D01*
X94068432Y-67123361D01*
X94200019Y-66908631D01*
X94296396Y-66675956D01*
X94355187Y-66431072D01*
X94374947Y-66180000D01*
X94355187Y-65928927D01*
X94296396Y-65684043D01*
X94200019Y-65451368D01*
X94068429Y-65236634D01*
X94067733Y-65235819D01*
X94067732Y-65235819D01*
X93409309Y-65894242D01*
X93390332Y-65848426D01*
X93313726Y-65733776D01*
X93216224Y-65636274D01*
X93101574Y-65559668D01*
X93055755Y-65540689D01*
X93714179Y-64882266D01*
X93713362Y-64881568D01*
X93498631Y-64749980D01*
X93265956Y-64653603D01*
X93021072Y-64594812D01*
X92770000Y-64575052D01*
X92518927Y-64594812D01*
X92274043Y-64653603D01*
X92041368Y-64749980D01*
X91826637Y-64881567D01*
X91825818Y-64882266D01*
X92484242Y-65540690D01*
X92438426Y-65559668D01*
X92323776Y-65636274D01*
X92226274Y-65733776D01*
X92149668Y-65848426D01*
X92130690Y-65894242D01*
X91472266Y-65235818D01*
X91471567Y-65236637D01*
X91339980Y-65451368D01*
X91243603Y-65684043D01*
X91184812Y-65928927D01*
X91165052Y-66180000D01*
X89274947Y-66180000D01*
X89255187Y-65928927D01*
X89196396Y-65684043D01*
X89100019Y-65451368D01*
X88968429Y-65236634D01*
X88967733Y-65235819D01*
X88967732Y-65235819D01*
X88309309Y-65894242D01*
X88290332Y-65848426D01*
X88213726Y-65733776D01*
X88116224Y-65636274D01*
X88001574Y-65559668D01*
X87955755Y-65540689D01*
X88614179Y-64882266D01*
X88613362Y-64881568D01*
X88398631Y-64749980D01*
X88165956Y-64653603D01*
X87921072Y-64594812D01*
X87670000Y-64575052D01*
X87418927Y-64594812D01*
X87174043Y-64653603D01*
X86941368Y-64749980D01*
X86726637Y-64881567D01*
X86725818Y-64882266D01*
X87384242Y-65540690D01*
X87338426Y-65559668D01*
X87223776Y-65636274D01*
X87126274Y-65733776D01*
X87049668Y-65848426D01*
X87030690Y-65894242D01*
X86372266Y-65235818D01*
X86371567Y-65236637D01*
X86239980Y-65451368D01*
X86143603Y-65684043D01*
X86084812Y-65928927D01*
X86065052Y-66180000D01*
X50300500Y-66180000D01*
X50300500Y-63639994D01*
X117982616Y-63639994D01*
X117982616Y-63640005D01*
X118002117Y-63875347D01*
X118060091Y-64104283D01*
X118154953Y-64320546D01*
X118243250Y-64455695D01*
X118990774Y-63708171D01*
X119016463Y-63804044D01*
X119072416Y-63900956D01*
X119151544Y-63980084D01*
X119248456Y-64036037D01*
X119344328Y-64061725D01*
X118595886Y-64810165D01*
X118595887Y-64810166D01*
X118630424Y-64837048D01*
X118630433Y-64837054D01*
X118838111Y-64949445D01*
X118838129Y-64949452D01*
X119061481Y-65026129D01*
X119294421Y-65065000D01*
X119530579Y-65065000D01*
X119763518Y-65026129D01*
X119986870Y-64949452D01*
X119986888Y-64949445D01*
X120194565Y-64837054D01*
X120194577Y-64837047D01*
X120229111Y-64810166D01*
X120229111Y-64810165D01*
X119480671Y-64061725D01*
X119576544Y-64036037D01*
X119673456Y-63980084D01*
X119752584Y-63900956D01*
X119808537Y-63804044D01*
X119834225Y-63708172D01*
X120581748Y-64455695D01*
X120670042Y-64320553D01*
X120670047Y-64320545D01*
X120764908Y-64104283D01*
X120822882Y-63875347D01*
X120842384Y-63640005D01*
X120842384Y-63639994D01*
X120822882Y-63404652D01*
X120764908Y-63175716D01*
X120670044Y-62959448D01*
X120640993Y-62914983D01*
X122187000Y-62914983D01*
X122187000Y-64365001D01*
X122187001Y-64365018D01*
X122197500Y-64467796D01*
X122197501Y-64467799D01*
X122233042Y-64575052D01*
X122252686Y-64634334D01*
X122344788Y-64783656D01*
X122468844Y-64907712D01*
X122618166Y-64999814D01*
X122784703Y-65054999D01*
X122887491Y-65065500D01*
X124337508Y-65065499D01*
X124440297Y-65054999D01*
X124606834Y-64999814D01*
X124756156Y-64907712D01*
X124880212Y-64783656D01*
X124972314Y-64634334D01*
X125027499Y-64467797D01*
X125038000Y-64365009D01*
X125037999Y-62914992D01*
X125027499Y-62812203D01*
X124972314Y-62645666D01*
X124880212Y-62496344D01*
X124756156Y-62372288D01*
X124606834Y-62280186D01*
X124440297Y-62225001D01*
X124440295Y-62225000D01*
X124337510Y-62214500D01*
X122887498Y-62214500D01*
X122887481Y-62214501D01*
X122784703Y-62225000D01*
X122784700Y-62225001D01*
X122618168Y-62280185D01*
X122618163Y-62280187D01*
X122468842Y-62372289D01*
X122344789Y-62496342D01*
X122252687Y-62645663D01*
X122252686Y-62645666D01*
X122197501Y-62812203D01*
X122197501Y-62812204D01*
X122197500Y-62812204D01*
X122187000Y-62914983D01*
X120640993Y-62914983D01*
X120581748Y-62824303D01*
X119834225Y-63571827D01*
X119808537Y-63475956D01*
X119752584Y-63379044D01*
X119673456Y-63299916D01*
X119576544Y-63243963D01*
X119480672Y-63218274D01*
X120229111Y-62469833D01*
X120229111Y-62469832D01*
X120194573Y-62442950D01*
X120194573Y-62442949D01*
X119986878Y-62330550D01*
X119986870Y-62330547D01*
X119763518Y-62253870D01*
X119530579Y-62215000D01*
X119294421Y-62215000D01*
X119061481Y-62253870D01*
X118838129Y-62330547D01*
X118838121Y-62330550D01*
X118630425Y-62442950D01*
X118630419Y-62442954D01*
X118595887Y-62469831D01*
X118595887Y-62469833D01*
X119344328Y-63218274D01*
X119248456Y-63243963D01*
X119151544Y-63299916D01*
X119072416Y-63379044D01*
X119016463Y-63475956D01*
X118990774Y-63571827D01*
X118243250Y-62824303D01*
X118154954Y-62959450D01*
X118060091Y-63175716D01*
X118002117Y-63404652D01*
X117982616Y-63639994D01*
X50300500Y-63639994D01*
X50300500Y-56599994D01*
X72770116Y-56599994D01*
X72770116Y-56600005D01*
X72789617Y-56835347D01*
X72847591Y-57064283D01*
X72942453Y-57280546D01*
X73030750Y-57415695D01*
X73778274Y-56668171D01*
X73803963Y-56764044D01*
X73859916Y-56860956D01*
X73939044Y-56940084D01*
X74035956Y-56996037D01*
X74131828Y-57021725D01*
X73383386Y-57770165D01*
X73383387Y-57770166D01*
X73417924Y-57797048D01*
X73417933Y-57797054D01*
X73625611Y-57909445D01*
X73625629Y-57909452D01*
X73848981Y-57986129D01*
X74081921Y-58025000D01*
X74318079Y-58025000D01*
X74551018Y-57986129D01*
X74774370Y-57909452D01*
X74774388Y-57909445D01*
X74982065Y-57797054D01*
X74982077Y-57797047D01*
X75016611Y-57770166D01*
X75016611Y-57770165D01*
X74268171Y-57021725D01*
X74364044Y-56996037D01*
X74460956Y-56940084D01*
X74540084Y-56860956D01*
X74596037Y-56764044D01*
X74621725Y-56668172D01*
X75369248Y-57415695D01*
X75457542Y-57280553D01*
X75457547Y-57280545D01*
X75552408Y-57064283D01*
X75610382Y-56835347D01*
X75629884Y-56600005D01*
X75629884Y-56599994D01*
X75610382Y-56364652D01*
X75552408Y-56135716D01*
X75457544Y-55919448D01*
X75428493Y-55874983D01*
X76974500Y-55874983D01*
X76974500Y-57325001D01*
X76974501Y-57325018D01*
X76985000Y-57427796D01*
X76985001Y-57427799D01*
X77040185Y-57594331D01*
X77040186Y-57594334D01*
X77132288Y-57743656D01*
X77256344Y-57867712D01*
X77405666Y-57959814D01*
X77572203Y-58014999D01*
X77674991Y-58025500D01*
X79125008Y-58025499D01*
X79227797Y-58014999D01*
X79394334Y-57959814D01*
X79543656Y-57867712D01*
X79667712Y-57743656D01*
X79759814Y-57594334D01*
X79814999Y-57427797D01*
X79825500Y-57325009D01*
X79825499Y-56461799D01*
X110099499Y-56461799D01*
X110131414Y-56622242D01*
X110131416Y-56622248D01*
X110194019Y-56773386D01*
X110194024Y-56773395D01*
X110284908Y-56909412D01*
X110284911Y-56909416D01*
X110400583Y-57025088D01*
X110400587Y-57025091D01*
X110536604Y-57115975D01*
X110536610Y-57115978D01*
X110536611Y-57115979D01*
X110687752Y-57178584D01*
X110687756Y-57178584D01*
X110687757Y-57178585D01*
X110848200Y-57210500D01*
X110848203Y-57210500D01*
X111011799Y-57210500D01*
X111119742Y-57189028D01*
X111172248Y-57178584D01*
X111323389Y-57115979D01*
X111459413Y-57025091D01*
X111575091Y-56909413D01*
X111665979Y-56773389D01*
X111728584Y-56622248D01*
X111760500Y-56461797D01*
X111760500Y-56298203D01*
X111760500Y-56298200D01*
X111728585Y-56137757D01*
X111728584Y-56137756D01*
X111728584Y-56137752D01*
X111665979Y-55986611D01*
X111665978Y-55986610D01*
X111665975Y-55986604D01*
X111575091Y-55850587D01*
X111575088Y-55850583D01*
X111459416Y-55734911D01*
X111459412Y-55734908D01*
X111323395Y-55644024D01*
X111323386Y-55644019D01*
X111172248Y-55581416D01*
X111172242Y-55581414D01*
X111011799Y-55549500D01*
X111011797Y-55549500D01*
X110848203Y-55549500D01*
X110848201Y-55549500D01*
X110687757Y-55581414D01*
X110687751Y-55581416D01*
X110536613Y-55644019D01*
X110536604Y-55644024D01*
X110400587Y-55734908D01*
X110400583Y-55734911D01*
X110284911Y-55850583D01*
X110284908Y-55850587D01*
X110194024Y-55986604D01*
X110194019Y-55986613D01*
X110131416Y-56137751D01*
X110131414Y-56137757D01*
X110099500Y-56298200D01*
X110099500Y-56298203D01*
X110099500Y-56461797D01*
X110099500Y-56461799D01*
X110099499Y-56461799D01*
X79825499Y-56461799D01*
X79825499Y-55874992D01*
X79814999Y-55772203D01*
X79759814Y-55605666D01*
X79667712Y-55456344D01*
X79543656Y-55332288D01*
X79394334Y-55240186D01*
X79227797Y-55185001D01*
X79227795Y-55185000D01*
X79125010Y-55174500D01*
X77674998Y-55174500D01*
X77674981Y-55174501D01*
X77572203Y-55185000D01*
X77572200Y-55185001D01*
X77405668Y-55240185D01*
X77405663Y-55240187D01*
X77256342Y-55332289D01*
X77132289Y-55456342D01*
X77040187Y-55605663D01*
X77040186Y-55605666D01*
X76985001Y-55772203D01*
X76985001Y-55772204D01*
X76985000Y-55772204D01*
X76974500Y-55874983D01*
X75428493Y-55874983D01*
X75369248Y-55784303D01*
X74621725Y-56531827D01*
X74596037Y-56435956D01*
X74540084Y-56339044D01*
X74460956Y-56259916D01*
X74364044Y-56203963D01*
X74268172Y-56178274D01*
X75016611Y-55429833D01*
X75016611Y-55429832D01*
X74982073Y-55402950D01*
X74982073Y-55402949D01*
X74774378Y-55290550D01*
X74774370Y-55290547D01*
X74551018Y-55213870D01*
X74318079Y-55175000D01*
X74081921Y-55175000D01*
X73848981Y-55213870D01*
X73625629Y-55290547D01*
X73625621Y-55290550D01*
X73417925Y-55402950D01*
X73417919Y-55402954D01*
X73383387Y-55429831D01*
X73383387Y-55429833D01*
X74131828Y-56178274D01*
X74035956Y-56203963D01*
X73939044Y-56259916D01*
X73859916Y-56339044D01*
X73803963Y-56435956D01*
X73778274Y-56531827D01*
X73030750Y-55784303D01*
X72942454Y-55919450D01*
X72847591Y-56135716D01*
X72789617Y-56364652D01*
X72770116Y-56599994D01*
X50300500Y-56599994D01*
X50300500Y-50424500D01*
X50320185Y-50357461D01*
X50372989Y-50311706D01*
X50424500Y-50300500D01*
X149575500Y-50300500D01*
X149642539Y-50320185D01*
G37*
G04 #@! TD.AperFunction*
M02*
