G04 #@! TF.GenerationSoftware,KiCad,Pcbnew,8.0.8-8.0.8-0~ubuntu24.04.1*
G04 #@! TF.CreationDate,2025-01-18T16:04:07+01:00*
G04 #@! TF.ProjectId,rf_lna,72665f6c-6e61-42e6-9b69-6361645f7063,rev?*
G04 #@! TF.SameCoordinates,Original*
G04 #@! TF.FileFunction,Copper,L4,Bot*
G04 #@! TF.FilePolarity,Positive*
%FSLAX46Y46*%
G04 Gerber Fmt 4.6, Leading zero omitted, Abs format (unit mm)*
G04 Created by KiCad (PCBNEW 8.0.8-8.0.8-0~ubuntu24.04.1) date 2025-01-18 16:04:07*
%MOMM*%
%LPD*%
G01*
G04 APERTURE LIST*
G04 Aperture macros list*
%AMRoundRect*
0 Rectangle with rounded corners*
0 $1 Rounding radius*
0 $2 $3 $4 $5 $6 $7 $8 $9 X,Y pos of 4 corners*
0 Add a 4 corners polygon primitive as box body*
4,1,4,$2,$3,$4,$5,$6,$7,$8,$9,$2,$3,0*
0 Add four circle primitives for the rounded corners*
1,1,$1+$1,$2,$3*
1,1,$1+$1,$4,$5*
1,1,$1+$1,$6,$7*
1,1,$1+$1,$8,$9*
0 Add four rect primitives between the rounded corners*
20,1,$1+$1,$2,$3,$4,$5,0*
20,1,$1+$1,$4,$5,$6,$7,0*
20,1,$1+$1,$6,$7,$8,$9,0*
20,1,$1+$1,$8,$9,$2,$3,0*%
G04 Aperture macros list end*
G04 #@! TA.AperFunction,ComponentPad*
%ADD10RoundRect,0.200100X-0.949900X-0.949900X0.949900X-0.949900X0.949900X0.949900X-0.949900X0.949900X0*%
G04 #@! TD*
G04 #@! TA.AperFunction,ComponentPad*
%ADD11C,2.200000*%
G04 #@! TD*
G04 #@! TA.AperFunction,ComponentPad*
%ADD12RoundRect,0.250000X0.675000X0.675000X-0.675000X0.675000X-0.675000X-0.675000X0.675000X-0.675000X0*%
G04 #@! TD*
G04 #@! TA.AperFunction,ComponentPad*
%ADD13C,1.850000*%
G04 #@! TD*
G04 #@! TA.AperFunction,ComponentPad*
%ADD14RoundRect,0.200100X0.949900X0.949900X-0.949900X0.949900X-0.949900X-0.949900X0.949900X-0.949900X0*%
G04 #@! TD*
G04 #@! TA.AperFunction,ViaPad*
%ADD15C,0.500000*%
G04 #@! TD*
G04 #@! TA.AperFunction,ViaPad*
%ADD16C,0.600000*%
G04 #@! TD*
G04 APERTURE END LIST*
D10*
X136150000Y-95350000D03*
D11*
X133600000Y-92800000D03*
X133600000Y-97900000D03*
X138700000Y-92800000D03*
X138700000Y-97900000D03*
D12*
X123612500Y-63640000D03*
D13*
X119412500Y-63640000D03*
D14*
X60100000Y-95400000D03*
D11*
X62650000Y-97950000D03*
X62650000Y-92850000D03*
X57550000Y-97950000D03*
X57550000Y-92850000D03*
D14*
X108075000Y-74800000D03*
D11*
X110625000Y-77350000D03*
X110625000Y-72250000D03*
X105525000Y-77350000D03*
X105525000Y-72250000D03*
D14*
X62175000Y-74050000D03*
D11*
X64725000Y-76600000D03*
X64725000Y-71500000D03*
X59625000Y-76600000D03*
X59625000Y-71500000D03*
D14*
X100825000Y-129900000D03*
D11*
X103375000Y-132450000D03*
X103375000Y-127350000D03*
X98275000Y-132450000D03*
X98275000Y-127350000D03*
D12*
X78400000Y-56600000D03*
D13*
X74200000Y-56600000D03*
D10*
X135550000Y-72575000D03*
D11*
X133000000Y-70025000D03*
X133000000Y-75125000D03*
X138100000Y-70025000D03*
X138100000Y-75125000D03*
D10*
X90220000Y-68730000D03*
D11*
X87670000Y-66180000D03*
X87670000Y-71280000D03*
X92770000Y-66180000D03*
X92770000Y-71280000D03*
D15*
X72270000Y-61230000D03*
X71560000Y-72930000D03*
X51450000Y-110960000D03*
X117540000Y-148010000D03*
X79750000Y-66650000D03*
X57780000Y-106670000D03*
X116290000Y-67630000D03*
X74200000Y-67550000D03*
X115950000Y-132050000D03*
X81950000Y-58950000D03*
X66380000Y-121990000D03*
X72766666Y-96650000D03*
X75450000Y-80250000D03*
X77950000Y-77250000D03*
X117100000Y-94150000D03*
X118640000Y-134760000D03*
X79750000Y-71490000D03*
X118190000Y-111730000D03*
X117790000Y-64780000D03*
X76900000Y-75850000D03*
X104433333Y-96650000D03*
X73700000Y-63800000D03*
X92660000Y-130700000D03*
X51580000Y-127300000D03*
X112400000Y-141730000D03*
X80950000Y-69850000D03*
X117510000Y-141640000D03*
X93810000Y-73370000D03*
X83250000Y-69820000D03*
X118990000Y-75940000D03*
D16*
X100830000Y-127810000D03*
D15*
X79020000Y-121570000D03*
X76880000Y-72050000D03*
X121720000Y-75980000D03*
X91370000Y-148010000D03*
X113310000Y-113980000D03*
X79650000Y-67550000D03*
X73350000Y-67660000D03*
X79840000Y-148010000D03*
X126400000Y-67600000D03*
X80850000Y-64500000D03*
X118440000Y-137060000D03*
X51660000Y-143810000D03*
X71710000Y-71890000D03*
X76900000Y-74250000D03*
X104490000Y-147890000D03*
X103470000Y-114050000D03*
X97230000Y-148010000D03*
X108720000Y-71360000D03*
X125400000Y-80850000D03*
X129090000Y-73820000D03*
X125700000Y-77150000D03*
X72280000Y-60080000D03*
X74390000Y-141800000D03*
X94820000Y-67370000D03*
X117600000Y-75930000D03*
X89000000Y-141590000D03*
X121300000Y-72550000D03*
X71180000Y-69560000D03*
X139830000Y-76820000D03*
X51480000Y-113270000D03*
X71400000Y-75250000D03*
X79850000Y-69950000D03*
X96240000Y-135130000D03*
X131080000Y-76320000D03*
X122680000Y-75990000D03*
X66520000Y-125570000D03*
X131040000Y-71170000D03*
X98100000Y-96650000D03*
X118330000Y-114550000D03*
X118960000Y-69410000D03*
X123180000Y-70930000D03*
X139030000Y-71800000D03*
X74390000Y-148070000D03*
X88510000Y-121430000D03*
X76850000Y-69950000D03*
X112700000Y-70790000D03*
X77250000Y-63700000D03*
X79510000Y-141730000D03*
X136480000Y-76880000D03*
X76140000Y-55470000D03*
X118470000Y-121500000D03*
X70400000Y-72900000D03*
X66433333Y-96650000D03*
X85433333Y-96650000D03*
X89350000Y-135200000D03*
X129766666Y-96650000D03*
X58510000Y-142080000D03*
X116290000Y-73580000D03*
D16*
X100930000Y-131980000D03*
D15*
X125200000Y-76150000D03*
X69090000Y-75190000D03*
X72550000Y-66600000D03*
X109880000Y-128430000D03*
X89630000Y-65320000D03*
X122170000Y-77990000D03*
X140130000Y-68270000D03*
X132140000Y-77180000D03*
X80850000Y-65500000D03*
X78650000Y-79100000D03*
X110766666Y-94150000D03*
X51560000Y-137810000D03*
X67010000Y-129510000D03*
X103520000Y-73590000D03*
X94760000Y-114270000D03*
X51540000Y-115700000D03*
X108930000Y-131500000D03*
X85630000Y-148010000D03*
X105420000Y-131190000D03*
X63700000Y-106600000D03*
X126470000Y-69430000D03*
X72766666Y-94150000D03*
X94990000Y-106340000D03*
X118200000Y-109040000D03*
X114010000Y-76010000D03*
X89720000Y-106130000D03*
X126150000Y-64650000D03*
X98100000Y-94150000D03*
X125580000Y-71620000D03*
X51400000Y-106360000D03*
X94710000Y-64890000D03*
X118880000Y-73570000D03*
X107640000Y-71540000D03*
X113680000Y-106410000D03*
X108790000Y-78180000D03*
X77430000Y-106480000D03*
X79100000Y-96650000D03*
X51760000Y-147230000D03*
X58440000Y-126070000D03*
X89580000Y-72120000D03*
X51580000Y-120710000D03*
X118780000Y-132680000D03*
X107450000Y-78320000D03*
X66870000Y-142150000D03*
X76190000Y-57660000D03*
X117100000Y-96650000D03*
X115850000Y-127790000D03*
X95400000Y-121360000D03*
X104433333Y-94150000D03*
X83520000Y-67640000D03*
X121020000Y-62360000D03*
X115060000Y-76010000D03*
X80850000Y-63600000D03*
X91000000Y-72190000D03*
X113050000Y-131460000D03*
X72340000Y-106600000D03*
X85433333Y-94150000D03*
X123433333Y-94150000D03*
X117970000Y-69370000D03*
X81420000Y-67610000D03*
X105030000Y-75240000D03*
X91766666Y-96650000D03*
X79820000Y-73770000D03*
X134970000Y-76010000D03*
X79860000Y-135340000D03*
X111910000Y-121570000D03*
X80950000Y-57700000D03*
X118470000Y-124660000D03*
X101670000Y-106340000D03*
X72160000Y-57840000D03*
X104880000Y-141730000D03*
X68250000Y-147960000D03*
X105230000Y-135340000D03*
X112970000Y-128360000D03*
X58860000Y-135690000D03*
X121020000Y-64870000D03*
X85510000Y-71190000D03*
X74740000Y-135410000D03*
X74290000Y-79270000D03*
X126950000Y-79900000D03*
X67220000Y-135760000D03*
X62440000Y-147960000D03*
X51400000Y-108780000D03*
X134630000Y-69020000D03*
X125150000Y-73850000D03*
X51580000Y-117980000D03*
X66433333Y-94150000D03*
X77250000Y-80300000D03*
X85660000Y-64930000D03*
X67940000Y-106530000D03*
X51610000Y-130490000D03*
X79100000Y-94150000D03*
X72000000Y-114120000D03*
X57030000Y-148010000D03*
X51660000Y-140640000D03*
X129800000Y-71390000D03*
X110640000Y-148070000D03*
X85610000Y-67640000D03*
X86610000Y-114200000D03*
X74450000Y-66550000D03*
X91766666Y-94150000D03*
X74150000Y-75200000D03*
X125750000Y-70800000D03*
X51530000Y-123440000D03*
X123433333Y-96650000D03*
X79730000Y-129930000D03*
X72210000Y-55440000D03*
X64830000Y-114120000D03*
X123950000Y-80850000D03*
X112750000Y-135340000D03*
X58020000Y-121920000D03*
X95890000Y-141520000D03*
X78510000Y-75000000D03*
X84280000Y-69820000D03*
X82770000Y-106340000D03*
X73900000Y-121640000D03*
X118270000Y-139230000D03*
X121450000Y-73600000D03*
X51560000Y-133910000D03*
X113100000Y-73580000D03*
X104390000Y-121570000D03*
X79020000Y-114120000D03*
X117590000Y-144750000D03*
X77350000Y-65350000D03*
X120710000Y-69440000D03*
X57810000Y-114120000D03*
X79450000Y-125430000D03*
X92800000Y-125360000D03*
X117880000Y-62280000D03*
X118330000Y-117990000D03*
X74160000Y-77210000D03*
D16*
X98650000Y-130010000D03*
D15*
X126230000Y-73820000D03*
X118500000Y-127150000D03*
X68210000Y-75220000D03*
X126550000Y-78250000D03*
X58510000Y-129230000D03*
X110766666Y-96650000D03*
X130100000Y-65700000D03*
X68520000Y-72900000D03*
X122170000Y-80090000D03*
X107520000Y-106410000D03*
X103550000Y-70960000D03*
X125190000Y-75110000D03*
X66790000Y-72930000D03*
X131090000Y-68650000D03*
X129766666Y-94150000D03*
X118310000Y-106520000D03*
X105400000Y-128740000D03*
X139860000Y-73270000D03*
X127610000Y-71380000D03*
X75290000Y-58910000D03*
G04 #@! TA.AperFunction,Conductor*
G36*
X149642539Y-50320185D02*
G01*
X149688294Y-50372989D01*
X149699500Y-50424500D01*
X149699500Y-102916504D01*
X149679815Y-102983543D01*
X149627011Y-103029298D01*
X149575755Y-103040504D01*
X50424755Y-103244488D01*
X50357675Y-103224941D01*
X50311812Y-103172231D01*
X50300500Y-103120488D01*
X50300500Y-92850000D01*
X55945052Y-92850000D01*
X55964812Y-93101072D01*
X56023603Y-93345956D01*
X56119980Y-93578631D01*
X56251568Y-93793362D01*
X56252266Y-93794179D01*
X56910689Y-93135755D01*
X56929668Y-93181574D01*
X57006274Y-93296224D01*
X57103776Y-93393726D01*
X57218426Y-93470332D01*
X57264242Y-93489309D01*
X56605819Y-94147732D01*
X56605819Y-94147733D01*
X56606634Y-94148429D01*
X56821368Y-94280019D01*
X57054043Y-94376396D01*
X57298927Y-94435187D01*
X57550000Y-94454947D01*
X57801072Y-94435187D01*
X58045956Y-94376396D01*
X58278047Y-94280261D01*
X58347516Y-94272792D01*
X58409996Y-94304067D01*
X58445648Y-94364156D01*
X58449500Y-94394822D01*
X58449500Y-96405177D01*
X58429815Y-96472216D01*
X58377011Y-96517971D01*
X58307853Y-96527915D01*
X58278048Y-96519738D01*
X58045959Y-96423604D01*
X57801072Y-96364812D01*
X57550000Y-96345052D01*
X57298927Y-96364812D01*
X57054043Y-96423603D01*
X56821368Y-96519980D01*
X56606637Y-96651567D01*
X56605818Y-96652266D01*
X57264243Y-97310690D01*
X57218426Y-97329668D01*
X57103776Y-97406274D01*
X57006274Y-97503776D01*
X56929668Y-97618426D01*
X56910690Y-97664242D01*
X56252266Y-97005818D01*
X56251567Y-97006637D01*
X56119980Y-97221368D01*
X56023603Y-97454043D01*
X55964812Y-97698927D01*
X55945052Y-97950000D01*
X55964812Y-98201072D01*
X56023603Y-98445956D01*
X56119980Y-98678631D01*
X56251568Y-98893362D01*
X56252266Y-98894179D01*
X56910689Y-98235755D01*
X56929668Y-98281574D01*
X57006274Y-98396224D01*
X57103776Y-98493726D01*
X57218426Y-98570332D01*
X57264242Y-98589309D01*
X56605819Y-99247732D01*
X56605819Y-99247733D01*
X56606634Y-99248429D01*
X56821368Y-99380019D01*
X57054043Y-99476396D01*
X57298927Y-99535187D01*
X57550000Y-99554947D01*
X57801072Y-99535187D01*
X58045956Y-99476396D01*
X58278631Y-99380019D01*
X58493361Y-99248432D01*
X58493363Y-99248430D01*
X58494180Y-99247732D01*
X57835757Y-98589309D01*
X57881574Y-98570332D01*
X57996224Y-98493726D01*
X58093726Y-98396224D01*
X58170332Y-98281574D01*
X58189309Y-98235756D01*
X58847732Y-98894180D01*
X58848430Y-98893363D01*
X58848432Y-98893361D01*
X58980019Y-98678631D01*
X59076396Y-98445956D01*
X59135187Y-98201072D01*
X59154947Y-97950000D01*
X59135187Y-97698927D01*
X59076396Y-97454043D01*
X58980261Y-97221953D01*
X58972792Y-97152484D01*
X59004067Y-97090004D01*
X59064156Y-97054352D01*
X59094822Y-97050500D01*
X61105178Y-97050500D01*
X61172217Y-97070185D01*
X61217972Y-97122989D01*
X61227916Y-97192147D01*
X61219739Y-97221953D01*
X61123603Y-97454043D01*
X61064812Y-97698927D01*
X61045052Y-97950000D01*
X61064812Y-98201072D01*
X61123603Y-98445956D01*
X61219980Y-98678631D01*
X61351568Y-98893362D01*
X61352266Y-98894179D01*
X62010689Y-98235755D01*
X62029668Y-98281574D01*
X62106274Y-98396224D01*
X62203776Y-98493726D01*
X62318426Y-98570332D01*
X62364242Y-98589309D01*
X61705819Y-99247732D01*
X61705819Y-99247733D01*
X61706634Y-99248429D01*
X61921368Y-99380019D01*
X62154043Y-99476396D01*
X62398927Y-99535187D01*
X62650000Y-99554947D01*
X62901072Y-99535187D01*
X63145956Y-99476396D01*
X63378631Y-99380019D01*
X63593361Y-99248432D01*
X63593363Y-99248430D01*
X63594180Y-99247732D01*
X62935757Y-98589309D01*
X62981574Y-98570332D01*
X63096224Y-98493726D01*
X63193726Y-98396224D01*
X63270332Y-98281574D01*
X63289309Y-98235757D01*
X63947732Y-98894180D01*
X63948430Y-98893363D01*
X63948432Y-98893361D01*
X64080019Y-98678631D01*
X64176396Y-98445956D01*
X64235187Y-98201072D01*
X64254947Y-97950000D01*
X64235187Y-97698927D01*
X64176396Y-97454043D01*
X64080019Y-97221368D01*
X63948429Y-97006634D01*
X63947733Y-97005819D01*
X63947732Y-97005819D01*
X63289309Y-97664242D01*
X63270332Y-97618426D01*
X63193726Y-97503776D01*
X63096224Y-97406274D01*
X62981574Y-97329668D01*
X62935755Y-97310689D01*
X63594179Y-96652266D01*
X63593362Y-96651568D01*
X63378631Y-96519980D01*
X63145956Y-96423603D01*
X62901072Y-96364812D01*
X62650000Y-96345052D01*
X62398927Y-96364812D01*
X62154041Y-96423604D01*
X62154039Y-96423604D01*
X61921952Y-96519738D01*
X61852483Y-96527207D01*
X61790004Y-96495932D01*
X61754352Y-96435843D01*
X61750500Y-96405177D01*
X61750500Y-94394822D01*
X61770185Y-94327783D01*
X61822989Y-94282028D01*
X61892147Y-94272084D01*
X61921953Y-94280261D01*
X62154043Y-94376396D01*
X62398927Y-94435187D01*
X62650000Y-94454947D01*
X62901072Y-94435187D01*
X63145956Y-94376396D01*
X63378631Y-94280019D01*
X63593361Y-94148432D01*
X63593363Y-94148430D01*
X63594180Y-94147732D01*
X62935756Y-93489309D01*
X62981574Y-93470332D01*
X63096224Y-93393726D01*
X63193726Y-93296224D01*
X63270332Y-93181574D01*
X63289309Y-93135757D01*
X63947732Y-93794180D01*
X63948430Y-93793363D01*
X63948432Y-93793361D01*
X64080019Y-93578631D01*
X64176396Y-93345956D01*
X64235187Y-93101072D01*
X64254947Y-92850000D01*
X64251012Y-92800000D01*
X131995052Y-92800000D01*
X132014812Y-93051072D01*
X132073603Y-93295956D01*
X132169980Y-93528631D01*
X132301568Y-93743362D01*
X132302266Y-93744179D01*
X132960689Y-93085755D01*
X132979668Y-93131574D01*
X133056274Y-93246224D01*
X133153776Y-93343726D01*
X133268426Y-93420332D01*
X133314242Y-93439309D01*
X132655819Y-94097732D01*
X132655819Y-94097733D01*
X132656634Y-94098429D01*
X132871368Y-94230019D01*
X133104043Y-94326396D01*
X133348927Y-94385187D01*
X133600000Y-94404947D01*
X133851072Y-94385187D01*
X134095956Y-94326396D01*
X134328047Y-94230261D01*
X134397516Y-94222792D01*
X134459996Y-94254067D01*
X134495648Y-94314156D01*
X134499500Y-94344822D01*
X134499500Y-96355177D01*
X134479815Y-96422216D01*
X134427011Y-96467971D01*
X134357853Y-96477915D01*
X134328048Y-96469738D01*
X134095959Y-96373604D01*
X133851072Y-96314812D01*
X133600000Y-96295052D01*
X133348927Y-96314812D01*
X133104043Y-96373603D01*
X132871368Y-96469980D01*
X132656637Y-96601567D01*
X132655818Y-96602266D01*
X133314243Y-97260690D01*
X133268426Y-97279668D01*
X133153776Y-97356274D01*
X133056274Y-97453776D01*
X132979668Y-97568426D01*
X132960690Y-97614242D01*
X132302266Y-96955818D01*
X132301567Y-96956637D01*
X132169980Y-97171368D01*
X132073603Y-97404043D01*
X132014812Y-97648927D01*
X131995052Y-97900000D01*
X132014812Y-98151072D01*
X132073603Y-98395956D01*
X132169980Y-98628631D01*
X132301568Y-98843362D01*
X132302266Y-98844179D01*
X132960689Y-98185755D01*
X132979668Y-98231574D01*
X133056274Y-98346224D01*
X133153776Y-98443726D01*
X133268426Y-98520332D01*
X133314242Y-98539309D01*
X132655819Y-99197732D01*
X132655819Y-99197733D01*
X132656634Y-99198429D01*
X132871368Y-99330019D01*
X133104043Y-99426396D01*
X133348927Y-99485187D01*
X133600000Y-99504947D01*
X133851072Y-99485187D01*
X134095956Y-99426396D01*
X134328631Y-99330019D01*
X134543361Y-99198432D01*
X134543363Y-99198430D01*
X134544180Y-99197732D01*
X133885757Y-98539309D01*
X133931574Y-98520332D01*
X134046224Y-98443726D01*
X134143726Y-98346224D01*
X134220332Y-98231574D01*
X134239309Y-98185756D01*
X134897732Y-98844180D01*
X134898430Y-98843363D01*
X134898432Y-98843361D01*
X135030019Y-98628631D01*
X135126396Y-98395956D01*
X135185187Y-98151072D01*
X135204947Y-97900000D01*
X135185187Y-97648927D01*
X135126396Y-97404043D01*
X135030261Y-97171953D01*
X135022792Y-97102484D01*
X135054067Y-97040004D01*
X135114156Y-97004352D01*
X135144822Y-97000500D01*
X137155178Y-97000500D01*
X137222217Y-97020185D01*
X137267972Y-97072989D01*
X137277916Y-97142147D01*
X137269739Y-97171953D01*
X137173603Y-97404043D01*
X137114812Y-97648927D01*
X137095052Y-97900000D01*
X137114812Y-98151072D01*
X137173603Y-98395956D01*
X137269980Y-98628631D01*
X137401568Y-98843362D01*
X137402266Y-98844179D01*
X138060689Y-98185755D01*
X138079668Y-98231574D01*
X138156274Y-98346224D01*
X138253776Y-98443726D01*
X138368426Y-98520332D01*
X138414242Y-98539309D01*
X137755819Y-99197732D01*
X137755819Y-99197733D01*
X137756634Y-99198429D01*
X137971368Y-99330019D01*
X138204043Y-99426396D01*
X138448927Y-99485187D01*
X138700000Y-99504947D01*
X138951072Y-99485187D01*
X139195956Y-99426396D01*
X139428631Y-99330019D01*
X139643361Y-99198432D01*
X139643363Y-99198430D01*
X139644180Y-99197732D01*
X138985757Y-98539309D01*
X139031574Y-98520332D01*
X139146224Y-98443726D01*
X139243726Y-98346224D01*
X139320332Y-98231574D01*
X139339309Y-98185757D01*
X139997732Y-98844180D01*
X139998430Y-98843363D01*
X139998432Y-98843361D01*
X140130019Y-98628631D01*
X140226396Y-98395956D01*
X140285187Y-98151072D01*
X140304947Y-97900000D01*
X140285187Y-97648927D01*
X140226396Y-97404043D01*
X140130019Y-97171368D01*
X139998429Y-96956634D01*
X139997733Y-96955819D01*
X139997732Y-96955819D01*
X139339309Y-97614242D01*
X139320332Y-97568426D01*
X139243726Y-97453776D01*
X139146224Y-97356274D01*
X139031574Y-97279668D01*
X138985755Y-97260689D01*
X139644179Y-96602266D01*
X139643362Y-96601568D01*
X139428631Y-96469980D01*
X139195956Y-96373603D01*
X138951072Y-96314812D01*
X138700000Y-96295052D01*
X138448927Y-96314812D01*
X138204041Y-96373604D01*
X138204039Y-96373604D01*
X137971952Y-96469738D01*
X137902483Y-96477207D01*
X137840004Y-96445932D01*
X137804352Y-96385843D01*
X137800500Y-96355177D01*
X137800500Y-94344822D01*
X137820185Y-94277783D01*
X137872989Y-94232028D01*
X137942147Y-94222084D01*
X137971953Y-94230261D01*
X138204043Y-94326396D01*
X138448927Y-94385187D01*
X138700000Y-94404947D01*
X138951072Y-94385187D01*
X139195956Y-94326396D01*
X139428631Y-94230019D01*
X139643361Y-94098432D01*
X139643363Y-94098430D01*
X139644180Y-94097732D01*
X138985756Y-93439309D01*
X139031574Y-93420332D01*
X139146224Y-93343726D01*
X139243726Y-93246224D01*
X139320332Y-93131574D01*
X139339309Y-93085757D01*
X139997732Y-93744180D01*
X139998430Y-93743363D01*
X139998432Y-93743361D01*
X140130019Y-93528631D01*
X140226396Y-93295956D01*
X140285187Y-93051072D01*
X140304947Y-92800000D01*
X140285187Y-92548927D01*
X140226396Y-92304043D01*
X140130019Y-92071368D01*
X139998429Y-91856634D01*
X139997733Y-91855819D01*
X139997732Y-91855819D01*
X139339309Y-92514242D01*
X139320332Y-92468426D01*
X139243726Y-92353776D01*
X139146224Y-92256274D01*
X139031574Y-92179668D01*
X138985755Y-92160689D01*
X139644179Y-91502266D01*
X139643362Y-91501568D01*
X139428631Y-91369980D01*
X139195956Y-91273603D01*
X138951072Y-91214812D01*
X138700000Y-91195052D01*
X138448927Y-91214812D01*
X138204043Y-91273603D01*
X137971368Y-91369980D01*
X137756637Y-91501567D01*
X137755818Y-91502266D01*
X138414242Y-92160690D01*
X138368426Y-92179668D01*
X138253776Y-92256274D01*
X138156274Y-92353776D01*
X138079668Y-92468426D01*
X138060690Y-92514243D01*
X137402266Y-91855818D01*
X137401567Y-91856637D01*
X137269980Y-92071368D01*
X137173603Y-92304043D01*
X137114812Y-92548927D01*
X137095052Y-92800000D01*
X137114812Y-93051072D01*
X137173603Y-93295956D01*
X137269739Y-93528047D01*
X137277208Y-93597516D01*
X137245933Y-93659996D01*
X137185844Y-93695648D01*
X137155178Y-93699500D01*
X135144822Y-93699500D01*
X135077783Y-93679815D01*
X135032028Y-93627011D01*
X135022084Y-93557853D01*
X135030261Y-93528047D01*
X135126396Y-93295956D01*
X135185187Y-93051072D01*
X135204947Y-92800000D01*
X135185187Y-92548927D01*
X135126396Y-92304043D01*
X135030019Y-92071368D01*
X134898429Y-91856634D01*
X134897733Y-91855819D01*
X134897732Y-91855819D01*
X134239309Y-92514242D01*
X134220332Y-92468426D01*
X134143726Y-92353776D01*
X134046224Y-92256274D01*
X133931574Y-92179668D01*
X133885755Y-92160689D01*
X134544179Y-91502266D01*
X134543362Y-91501568D01*
X134328631Y-91369980D01*
X134095956Y-91273603D01*
X133851072Y-91214812D01*
X133600000Y-91195052D01*
X133348927Y-91214812D01*
X133104043Y-91273603D01*
X132871368Y-91369980D01*
X132656637Y-91501567D01*
X132655818Y-91502266D01*
X133314242Y-92160690D01*
X133268426Y-92179668D01*
X133153776Y-92256274D01*
X133056274Y-92353776D01*
X132979668Y-92468426D01*
X132960690Y-92514242D01*
X132302266Y-91855818D01*
X132301567Y-91856637D01*
X132169980Y-92071368D01*
X132073603Y-92304043D01*
X132014812Y-92548927D01*
X131995052Y-92800000D01*
X64251012Y-92800000D01*
X64235187Y-92598927D01*
X64176396Y-92354043D01*
X64080019Y-92121368D01*
X63948429Y-91906634D01*
X63947733Y-91905819D01*
X63947732Y-91905819D01*
X63289309Y-92564242D01*
X63270332Y-92518426D01*
X63193726Y-92403776D01*
X63096224Y-92306274D01*
X62981574Y-92229668D01*
X62935755Y-92210689D01*
X63594179Y-91552266D01*
X63593362Y-91551568D01*
X63378631Y-91419980D01*
X63145956Y-91323603D01*
X62901072Y-91264812D01*
X62650000Y-91245052D01*
X62398927Y-91264812D01*
X62154043Y-91323603D01*
X61921368Y-91419980D01*
X61706637Y-91551567D01*
X61705818Y-91552266D01*
X62364242Y-92210690D01*
X62318426Y-92229668D01*
X62203776Y-92306274D01*
X62106274Y-92403776D01*
X62029668Y-92518426D01*
X62010690Y-92564243D01*
X61352266Y-91905818D01*
X61351567Y-91906637D01*
X61219980Y-92121368D01*
X61123603Y-92354043D01*
X61064812Y-92598927D01*
X61045052Y-92850000D01*
X61064812Y-93101072D01*
X61123603Y-93345956D01*
X61219739Y-93578047D01*
X61227208Y-93647516D01*
X61195933Y-93709996D01*
X61135844Y-93745648D01*
X61105178Y-93749500D01*
X59094822Y-93749500D01*
X59027783Y-93729815D01*
X58982028Y-93677011D01*
X58972084Y-93607853D01*
X58980261Y-93578047D01*
X59076396Y-93345956D01*
X59135187Y-93101072D01*
X59154947Y-92850000D01*
X59135187Y-92598927D01*
X59076396Y-92354043D01*
X58980019Y-92121368D01*
X58848429Y-91906634D01*
X58847733Y-91905819D01*
X58847732Y-91905819D01*
X58189309Y-92564242D01*
X58170332Y-92518426D01*
X58093726Y-92403776D01*
X57996224Y-92306274D01*
X57881574Y-92229668D01*
X57835755Y-92210689D01*
X58494179Y-91552266D01*
X58493362Y-91551568D01*
X58278631Y-91419980D01*
X58045956Y-91323603D01*
X57801072Y-91264812D01*
X57550000Y-91245052D01*
X57298927Y-91264812D01*
X57054043Y-91323603D01*
X56821368Y-91419980D01*
X56606637Y-91551567D01*
X56605818Y-91552266D01*
X57264242Y-92210690D01*
X57218426Y-92229668D01*
X57103776Y-92306274D01*
X57006274Y-92403776D01*
X56929668Y-92518426D01*
X56910690Y-92564242D01*
X56252266Y-91905818D01*
X56251567Y-91906637D01*
X56119980Y-92121368D01*
X56023603Y-92354043D01*
X55964812Y-92598927D01*
X55945052Y-92850000D01*
X50300500Y-92850000D01*
X50300500Y-71500000D01*
X58020052Y-71500000D01*
X58039812Y-71751072D01*
X58098603Y-71995956D01*
X58194980Y-72228631D01*
X58326568Y-72443362D01*
X58327266Y-72444179D01*
X58985689Y-71785755D01*
X59004668Y-71831574D01*
X59081274Y-71946224D01*
X59178776Y-72043726D01*
X59293426Y-72120332D01*
X59339242Y-72139309D01*
X58680819Y-72797732D01*
X58680819Y-72797733D01*
X58681634Y-72798429D01*
X58896368Y-72930019D01*
X59129043Y-73026396D01*
X59373927Y-73085187D01*
X59625000Y-73104947D01*
X59876072Y-73085187D01*
X60120956Y-73026396D01*
X60353047Y-72930261D01*
X60422516Y-72922792D01*
X60484996Y-72954067D01*
X60520648Y-73014156D01*
X60524500Y-73044822D01*
X60524500Y-75055177D01*
X60504815Y-75122216D01*
X60452011Y-75167971D01*
X60382853Y-75177915D01*
X60353048Y-75169738D01*
X60120959Y-75073604D01*
X59876072Y-75014812D01*
X59625000Y-74995052D01*
X59373927Y-75014812D01*
X59129043Y-75073603D01*
X58896368Y-75169980D01*
X58681637Y-75301567D01*
X58680818Y-75302266D01*
X59339243Y-75960690D01*
X59293426Y-75979668D01*
X59178776Y-76056274D01*
X59081274Y-76153776D01*
X59004668Y-76268426D01*
X58985690Y-76314242D01*
X58327266Y-75655818D01*
X58326567Y-75656637D01*
X58194980Y-75871368D01*
X58098603Y-76104043D01*
X58039812Y-76348927D01*
X58020052Y-76600000D01*
X58039812Y-76851072D01*
X58098603Y-77095956D01*
X58194980Y-77328631D01*
X58326568Y-77543362D01*
X58327266Y-77544179D01*
X58985689Y-76885755D01*
X59004668Y-76931574D01*
X59081274Y-77046224D01*
X59178776Y-77143726D01*
X59293426Y-77220332D01*
X59339242Y-77239309D01*
X58680819Y-77897732D01*
X58680819Y-77897733D01*
X58681634Y-77898429D01*
X58896368Y-78030019D01*
X59129043Y-78126396D01*
X59373927Y-78185187D01*
X59625000Y-78204947D01*
X59876072Y-78185187D01*
X60120956Y-78126396D01*
X60353631Y-78030019D01*
X60568361Y-77898432D01*
X60568363Y-77898430D01*
X60569180Y-77897732D01*
X59910757Y-77239309D01*
X59956574Y-77220332D01*
X60071224Y-77143726D01*
X60168726Y-77046224D01*
X60245332Y-76931574D01*
X60264309Y-76885756D01*
X60922732Y-77544180D01*
X60923430Y-77543363D01*
X60923432Y-77543361D01*
X61055019Y-77328631D01*
X61151396Y-77095956D01*
X61210187Y-76851072D01*
X61229947Y-76600000D01*
X61210187Y-76348927D01*
X61151396Y-76104043D01*
X61055261Y-75871953D01*
X61047792Y-75802484D01*
X61079067Y-75740004D01*
X61139156Y-75704352D01*
X61169822Y-75700500D01*
X63180178Y-75700500D01*
X63247217Y-75720185D01*
X63292972Y-75772989D01*
X63302916Y-75842147D01*
X63294739Y-75871953D01*
X63198603Y-76104043D01*
X63139812Y-76348927D01*
X63120052Y-76600000D01*
X63139812Y-76851072D01*
X63198603Y-77095956D01*
X63294980Y-77328631D01*
X63426568Y-77543362D01*
X63427266Y-77544179D01*
X64085689Y-76885755D01*
X64104668Y-76931574D01*
X64181274Y-77046224D01*
X64278776Y-77143726D01*
X64393426Y-77220332D01*
X64439242Y-77239309D01*
X63780819Y-77897732D01*
X63780819Y-77897733D01*
X63781634Y-77898429D01*
X63996368Y-78030019D01*
X64229043Y-78126396D01*
X64473927Y-78185187D01*
X64725000Y-78204947D01*
X64976072Y-78185187D01*
X65220956Y-78126396D01*
X65453631Y-78030019D01*
X65668361Y-77898432D01*
X65668363Y-77898430D01*
X65669180Y-77897732D01*
X65010757Y-77239309D01*
X65056574Y-77220332D01*
X65171224Y-77143726D01*
X65268726Y-77046224D01*
X65345332Y-76931574D01*
X65364309Y-76885757D01*
X66022732Y-77544180D01*
X66023430Y-77543363D01*
X66023432Y-77543361D01*
X66155019Y-77328631D01*
X66251396Y-77095956D01*
X66310187Y-76851072D01*
X66329947Y-76600000D01*
X66310187Y-76348927D01*
X66251396Y-76104043D01*
X66155019Y-75871368D01*
X66023429Y-75656634D01*
X66022733Y-75655819D01*
X66022732Y-75655819D01*
X65364309Y-76314242D01*
X65345332Y-76268426D01*
X65268726Y-76153776D01*
X65171224Y-76056274D01*
X65056574Y-75979668D01*
X65010755Y-75960689D01*
X65669179Y-75302266D01*
X65668362Y-75301568D01*
X65453631Y-75169980D01*
X65220956Y-75073603D01*
X64976072Y-75014812D01*
X64725000Y-74995052D01*
X64473927Y-75014812D01*
X64229041Y-75073604D01*
X64229039Y-75073604D01*
X63996952Y-75169738D01*
X63927483Y-75177207D01*
X63865004Y-75145932D01*
X63829352Y-75085843D01*
X63825500Y-75055177D01*
X63825500Y-73044822D01*
X63845185Y-72977783D01*
X63897989Y-72932028D01*
X63967147Y-72922084D01*
X63996953Y-72930261D01*
X64229043Y-73026396D01*
X64473927Y-73085187D01*
X64725000Y-73104947D01*
X64976072Y-73085187D01*
X65220956Y-73026396D01*
X65453631Y-72930019D01*
X65668361Y-72798432D01*
X65668363Y-72798430D01*
X65669180Y-72797732D01*
X65010756Y-72139309D01*
X65056574Y-72120332D01*
X65171224Y-72043726D01*
X65268726Y-71946224D01*
X65345332Y-71831574D01*
X65364309Y-71785757D01*
X66022732Y-72444180D01*
X66023430Y-72443363D01*
X66023432Y-72443361D01*
X66155019Y-72228631D01*
X66251396Y-71995956D01*
X66310187Y-71751072D01*
X66329947Y-71500000D01*
X66310187Y-71248927D01*
X66251396Y-71004043D01*
X66155019Y-70771368D01*
X66023429Y-70556634D01*
X66022733Y-70555819D01*
X66022732Y-70555819D01*
X65364309Y-71214242D01*
X65345332Y-71168426D01*
X65268726Y-71053776D01*
X65171224Y-70956274D01*
X65056574Y-70879668D01*
X65010755Y-70860689D01*
X65669179Y-70202266D01*
X65668362Y-70201568D01*
X65453631Y-70069980D01*
X65220956Y-69973603D01*
X64976072Y-69914812D01*
X64725000Y-69895052D01*
X64473927Y-69914812D01*
X64229043Y-69973603D01*
X63996368Y-70069980D01*
X63781637Y-70201567D01*
X63780818Y-70202266D01*
X64439242Y-70860690D01*
X64393426Y-70879668D01*
X64278776Y-70956274D01*
X64181274Y-71053776D01*
X64104668Y-71168426D01*
X64085690Y-71214243D01*
X63427266Y-70555818D01*
X63426567Y-70556637D01*
X63294980Y-70771368D01*
X63198603Y-71004043D01*
X63139812Y-71248927D01*
X63120052Y-71500000D01*
X63139812Y-71751072D01*
X63198603Y-71995956D01*
X63294739Y-72228047D01*
X63302208Y-72297516D01*
X63270933Y-72359996D01*
X63210844Y-72395648D01*
X63180178Y-72399500D01*
X61169822Y-72399500D01*
X61102783Y-72379815D01*
X61057028Y-72327011D01*
X61047084Y-72257853D01*
X61055261Y-72228047D01*
X61151396Y-71995956D01*
X61210187Y-71751072D01*
X61229947Y-71500000D01*
X61210187Y-71248927D01*
X61151396Y-71004043D01*
X61055019Y-70771368D01*
X60923429Y-70556634D01*
X60922733Y-70555819D01*
X60922732Y-70555819D01*
X60264309Y-71214242D01*
X60245332Y-71168426D01*
X60168726Y-71053776D01*
X60071224Y-70956274D01*
X59956574Y-70879668D01*
X59910755Y-70860689D01*
X60569179Y-70202266D01*
X60568362Y-70201568D01*
X60353631Y-70069980D01*
X60120956Y-69973603D01*
X59876072Y-69914812D01*
X59625000Y-69895052D01*
X59373927Y-69914812D01*
X59129043Y-69973603D01*
X58896368Y-70069980D01*
X58681637Y-70201567D01*
X58680818Y-70202266D01*
X59339242Y-70860690D01*
X59293426Y-70879668D01*
X59178776Y-70956274D01*
X59081274Y-71053776D01*
X59004668Y-71168426D01*
X58985690Y-71214242D01*
X58327266Y-70555818D01*
X58326567Y-70556637D01*
X58194980Y-70771368D01*
X58098603Y-71004043D01*
X58039812Y-71248927D01*
X58020052Y-71500000D01*
X50300500Y-71500000D01*
X50300500Y-66180000D01*
X86065052Y-66180000D01*
X86084812Y-66431072D01*
X86143603Y-66675956D01*
X86239980Y-66908631D01*
X86371568Y-67123362D01*
X86372266Y-67124179D01*
X87030689Y-66465755D01*
X87049668Y-66511574D01*
X87126274Y-66626224D01*
X87223776Y-66723726D01*
X87338426Y-66800332D01*
X87384242Y-66819309D01*
X86725819Y-67477732D01*
X86725819Y-67477733D01*
X86726634Y-67478429D01*
X86941368Y-67610019D01*
X87174043Y-67706396D01*
X87418927Y-67765187D01*
X87670000Y-67784947D01*
X87921072Y-67765187D01*
X88165956Y-67706396D01*
X88398047Y-67610261D01*
X88467516Y-67602792D01*
X88529996Y-67634067D01*
X88565648Y-67694156D01*
X88569500Y-67724822D01*
X88569500Y-69735177D01*
X88549815Y-69802216D01*
X88497011Y-69847971D01*
X88427853Y-69857915D01*
X88398048Y-69849738D01*
X88165959Y-69753604D01*
X87921072Y-69694812D01*
X87670000Y-69675052D01*
X87418927Y-69694812D01*
X87174043Y-69753603D01*
X86941368Y-69849980D01*
X86726637Y-69981567D01*
X86725818Y-69982266D01*
X87384243Y-70640690D01*
X87338426Y-70659668D01*
X87223776Y-70736274D01*
X87126274Y-70833776D01*
X87049668Y-70948426D01*
X87030690Y-70994242D01*
X86372266Y-70335818D01*
X86371567Y-70336637D01*
X86239980Y-70551368D01*
X86143603Y-70784043D01*
X86084812Y-71028927D01*
X86065052Y-71280000D01*
X86084812Y-71531072D01*
X86143603Y-71775956D01*
X86239980Y-72008631D01*
X86371568Y-72223362D01*
X86372266Y-72224179D01*
X87030689Y-71565755D01*
X87049668Y-71611574D01*
X87126274Y-71726224D01*
X87223776Y-71823726D01*
X87338426Y-71900332D01*
X87384242Y-71919309D01*
X86725819Y-72577732D01*
X86725819Y-72577733D01*
X86726634Y-72578429D01*
X86941368Y-72710019D01*
X87174043Y-72806396D01*
X87418927Y-72865187D01*
X87670000Y-72884947D01*
X87921072Y-72865187D01*
X88165956Y-72806396D01*
X88398631Y-72710019D01*
X88613361Y-72578432D01*
X88613363Y-72578430D01*
X88614180Y-72577732D01*
X87955757Y-71919309D01*
X88001574Y-71900332D01*
X88116224Y-71823726D01*
X88213726Y-71726224D01*
X88290332Y-71611574D01*
X88309309Y-71565756D01*
X88967732Y-72224180D01*
X88968430Y-72223363D01*
X88968432Y-72223361D01*
X89100019Y-72008631D01*
X89196396Y-71775956D01*
X89255187Y-71531072D01*
X89274947Y-71280000D01*
X89255187Y-71028927D01*
X89196396Y-70784043D01*
X89100261Y-70551953D01*
X89092792Y-70482484D01*
X89124067Y-70420004D01*
X89184156Y-70384352D01*
X89214822Y-70380500D01*
X91225178Y-70380500D01*
X91292217Y-70400185D01*
X91337972Y-70452989D01*
X91347916Y-70522147D01*
X91339739Y-70551953D01*
X91243603Y-70784043D01*
X91184812Y-71028927D01*
X91165052Y-71280000D01*
X91184812Y-71531072D01*
X91243603Y-71775956D01*
X91339980Y-72008631D01*
X91471568Y-72223362D01*
X91472266Y-72224179D01*
X92130689Y-71565755D01*
X92149668Y-71611574D01*
X92226274Y-71726224D01*
X92323776Y-71823726D01*
X92438426Y-71900332D01*
X92484242Y-71919309D01*
X91825819Y-72577732D01*
X91825819Y-72577733D01*
X91826634Y-72578429D01*
X92041368Y-72710019D01*
X92274043Y-72806396D01*
X92518927Y-72865187D01*
X92770000Y-72884947D01*
X93021072Y-72865187D01*
X93265956Y-72806396D01*
X93498631Y-72710019D01*
X93713361Y-72578432D01*
X93713363Y-72578430D01*
X93714180Y-72577732D01*
X93386448Y-72250000D01*
X103920052Y-72250000D01*
X103939812Y-72501072D01*
X103998603Y-72745956D01*
X104094980Y-72978631D01*
X104226568Y-73193362D01*
X104227266Y-73194179D01*
X104885689Y-72535755D01*
X104904668Y-72581574D01*
X104981274Y-72696224D01*
X105078776Y-72793726D01*
X105193426Y-72870332D01*
X105239242Y-72889309D01*
X104580819Y-73547732D01*
X104580819Y-73547733D01*
X104581634Y-73548429D01*
X104796368Y-73680019D01*
X105029043Y-73776396D01*
X105273927Y-73835187D01*
X105525000Y-73854947D01*
X105776072Y-73835187D01*
X106020956Y-73776396D01*
X106253047Y-73680261D01*
X106322516Y-73672792D01*
X106384996Y-73704067D01*
X106420648Y-73764156D01*
X106424500Y-73794822D01*
X106424500Y-75805177D01*
X106404815Y-75872216D01*
X106352011Y-75917971D01*
X106282853Y-75927915D01*
X106253048Y-75919738D01*
X106020959Y-75823604D01*
X105776072Y-75764812D01*
X105525000Y-75745052D01*
X105273927Y-75764812D01*
X105029043Y-75823603D01*
X104796368Y-75919980D01*
X104581637Y-76051567D01*
X104580818Y-76052266D01*
X105239243Y-76710690D01*
X105193426Y-76729668D01*
X105078776Y-76806274D01*
X104981274Y-76903776D01*
X104904668Y-77018426D01*
X104885690Y-77064242D01*
X104227266Y-76405818D01*
X104226567Y-76406637D01*
X104094980Y-76621368D01*
X103998603Y-76854043D01*
X103939812Y-77098927D01*
X103920052Y-77350000D01*
X103939812Y-77601072D01*
X103998603Y-77845956D01*
X104094980Y-78078631D01*
X104226568Y-78293362D01*
X104227266Y-78294179D01*
X104885689Y-77635755D01*
X104904668Y-77681574D01*
X104981274Y-77796224D01*
X105078776Y-77893726D01*
X105193426Y-77970332D01*
X105239242Y-77989309D01*
X104580819Y-78647732D01*
X104580819Y-78647733D01*
X104581634Y-78648429D01*
X104796368Y-78780019D01*
X105029043Y-78876396D01*
X105273927Y-78935187D01*
X105525000Y-78954947D01*
X105776072Y-78935187D01*
X106020956Y-78876396D01*
X106253631Y-78780019D01*
X106468361Y-78648432D01*
X106468363Y-78648430D01*
X106469180Y-78647732D01*
X105810757Y-77989309D01*
X105856574Y-77970332D01*
X105971224Y-77893726D01*
X106068726Y-77796224D01*
X106145332Y-77681574D01*
X106164309Y-77635756D01*
X106822732Y-78294180D01*
X106823430Y-78293363D01*
X106823432Y-78293361D01*
X106955019Y-78078631D01*
X107051396Y-77845956D01*
X107110187Y-77601072D01*
X107129947Y-77350000D01*
X107110187Y-77098927D01*
X107051396Y-76854043D01*
X106955261Y-76621953D01*
X106947792Y-76552484D01*
X106979067Y-76490004D01*
X107039156Y-76454352D01*
X107069822Y-76450500D01*
X109080178Y-76450500D01*
X109147217Y-76470185D01*
X109192972Y-76522989D01*
X109202916Y-76592147D01*
X109194739Y-76621953D01*
X109098603Y-76854043D01*
X109039812Y-77098927D01*
X109020052Y-77350000D01*
X109039812Y-77601072D01*
X109098603Y-77845956D01*
X109194980Y-78078631D01*
X109326568Y-78293362D01*
X109327266Y-78294179D01*
X109985689Y-77635755D01*
X110004668Y-77681574D01*
X110081274Y-77796224D01*
X110178776Y-77893726D01*
X110293426Y-77970332D01*
X110339242Y-77989309D01*
X109680819Y-78647732D01*
X109680819Y-78647733D01*
X109681634Y-78648429D01*
X109896368Y-78780019D01*
X110129043Y-78876396D01*
X110373927Y-78935187D01*
X110625000Y-78954947D01*
X110876072Y-78935187D01*
X111120956Y-78876396D01*
X111353631Y-78780019D01*
X111568361Y-78648432D01*
X111568363Y-78648430D01*
X111569180Y-78647732D01*
X110910757Y-77989309D01*
X110956574Y-77970332D01*
X111071224Y-77893726D01*
X111168726Y-77796224D01*
X111245332Y-77681574D01*
X111264309Y-77635757D01*
X111922732Y-78294180D01*
X111923430Y-78293363D01*
X111923432Y-78293361D01*
X112055019Y-78078631D01*
X112151396Y-77845956D01*
X112210187Y-77601072D01*
X112229947Y-77350000D01*
X112210187Y-77098927D01*
X112151396Y-76854043D01*
X112055019Y-76621368D01*
X111923429Y-76406634D01*
X111922733Y-76405819D01*
X111922732Y-76405819D01*
X111264309Y-77064242D01*
X111245332Y-77018426D01*
X111168726Y-76903776D01*
X111071224Y-76806274D01*
X110956574Y-76729668D01*
X110910755Y-76710689D01*
X111569179Y-76052266D01*
X111568362Y-76051568D01*
X111353631Y-75919980D01*
X111120956Y-75823603D01*
X110876072Y-75764812D01*
X110625000Y-75745052D01*
X110373927Y-75764812D01*
X110129041Y-75823604D01*
X110129039Y-75823604D01*
X109896952Y-75919738D01*
X109827483Y-75927207D01*
X109765004Y-75895932D01*
X109729352Y-75835843D01*
X109725500Y-75805177D01*
X109725500Y-73794822D01*
X109745185Y-73727783D01*
X109797989Y-73682028D01*
X109867147Y-73672084D01*
X109896953Y-73680261D01*
X110129043Y-73776396D01*
X110373927Y-73835187D01*
X110625000Y-73854947D01*
X110876072Y-73835187D01*
X111120956Y-73776396D01*
X111353631Y-73680019D01*
X111568361Y-73548432D01*
X111568363Y-73548430D01*
X111569180Y-73547732D01*
X110910756Y-72889309D01*
X110956574Y-72870332D01*
X111071224Y-72793726D01*
X111168726Y-72696224D01*
X111245332Y-72581574D01*
X111264309Y-72535757D01*
X111922732Y-73194180D01*
X111923430Y-73193363D01*
X111923432Y-73193361D01*
X112055019Y-72978631D01*
X112151396Y-72745956D01*
X112210187Y-72501072D01*
X112229947Y-72250000D01*
X112210187Y-71998927D01*
X112151396Y-71754043D01*
X112055019Y-71521368D01*
X111923429Y-71306634D01*
X111922733Y-71305819D01*
X111922732Y-71305819D01*
X111264309Y-71964242D01*
X111245332Y-71918426D01*
X111168726Y-71803776D01*
X111071224Y-71706274D01*
X110956574Y-71629668D01*
X110910755Y-71610689D01*
X111569179Y-70952266D01*
X111568362Y-70951568D01*
X111353631Y-70819980D01*
X111120956Y-70723603D01*
X110876072Y-70664812D01*
X110625000Y-70645052D01*
X110373927Y-70664812D01*
X110129043Y-70723603D01*
X109896368Y-70819980D01*
X109681637Y-70951567D01*
X109680818Y-70952266D01*
X110339242Y-71610690D01*
X110293426Y-71629668D01*
X110178776Y-71706274D01*
X110081274Y-71803776D01*
X110004668Y-71918426D01*
X109985690Y-71964243D01*
X109327266Y-71305818D01*
X109326567Y-71306637D01*
X109194980Y-71521368D01*
X109098603Y-71754043D01*
X109039812Y-71998927D01*
X109020052Y-72250000D01*
X109039812Y-72501072D01*
X109098603Y-72745956D01*
X109194739Y-72978047D01*
X109202208Y-73047516D01*
X109170933Y-73109996D01*
X109110844Y-73145648D01*
X109080178Y-73149500D01*
X107069822Y-73149500D01*
X107002783Y-73129815D01*
X106957028Y-73077011D01*
X106947084Y-73007853D01*
X106955261Y-72978047D01*
X107051396Y-72745956D01*
X107110187Y-72501072D01*
X107129947Y-72250000D01*
X107110187Y-71998927D01*
X107051396Y-71754043D01*
X106955019Y-71521368D01*
X106823429Y-71306634D01*
X106822733Y-71305819D01*
X106822732Y-71305819D01*
X106164309Y-71964242D01*
X106145332Y-71918426D01*
X106068726Y-71803776D01*
X105971224Y-71706274D01*
X105856574Y-71629668D01*
X105810755Y-71610689D01*
X106469179Y-70952266D01*
X106468362Y-70951568D01*
X106253631Y-70819980D01*
X106020956Y-70723603D01*
X105776072Y-70664812D01*
X105525000Y-70645052D01*
X105273927Y-70664812D01*
X105029043Y-70723603D01*
X104796368Y-70819980D01*
X104581637Y-70951567D01*
X104580818Y-70952266D01*
X105239242Y-71610690D01*
X105193426Y-71629668D01*
X105078776Y-71706274D01*
X104981274Y-71803776D01*
X104904668Y-71918426D01*
X104885690Y-71964242D01*
X104227266Y-71305818D01*
X104226567Y-71306637D01*
X104094980Y-71521368D01*
X103998603Y-71754043D01*
X103939812Y-71998927D01*
X103920052Y-72250000D01*
X93386448Y-72250000D01*
X93055757Y-71919309D01*
X93101574Y-71900332D01*
X93216224Y-71823726D01*
X93313726Y-71726224D01*
X93390332Y-71611574D01*
X93409309Y-71565757D01*
X94067732Y-72224180D01*
X94068430Y-72223363D01*
X94068432Y-72223361D01*
X94200019Y-72008631D01*
X94296396Y-71775956D01*
X94355187Y-71531072D01*
X94374947Y-71280000D01*
X94355187Y-71028927D01*
X94296396Y-70784043D01*
X94200019Y-70551368D01*
X94068429Y-70336634D01*
X94067733Y-70335819D01*
X94067732Y-70335819D01*
X93409309Y-70994242D01*
X93390332Y-70948426D01*
X93313726Y-70833776D01*
X93216224Y-70736274D01*
X93101574Y-70659668D01*
X93055755Y-70640689D01*
X93671445Y-70025000D01*
X131395052Y-70025000D01*
X131414812Y-70276072D01*
X131473603Y-70520956D01*
X131569980Y-70753631D01*
X131701568Y-70968362D01*
X131702266Y-70969179D01*
X132360689Y-70310755D01*
X132379668Y-70356574D01*
X132456274Y-70471224D01*
X132553776Y-70568726D01*
X132668426Y-70645332D01*
X132714242Y-70664309D01*
X132055819Y-71322732D01*
X132055819Y-71322733D01*
X132056634Y-71323429D01*
X132271368Y-71455019D01*
X132504043Y-71551396D01*
X132748927Y-71610187D01*
X133000000Y-71629947D01*
X133251072Y-71610187D01*
X133495956Y-71551396D01*
X133728047Y-71455261D01*
X133797516Y-71447792D01*
X133859996Y-71479067D01*
X133895648Y-71539156D01*
X133899500Y-71569822D01*
X133899500Y-73580177D01*
X133879815Y-73647216D01*
X133827011Y-73692971D01*
X133757853Y-73702915D01*
X133728048Y-73694738D01*
X133495959Y-73598604D01*
X133251072Y-73539812D01*
X133000000Y-73520052D01*
X132748927Y-73539812D01*
X132504043Y-73598603D01*
X132271368Y-73694980D01*
X132056637Y-73826567D01*
X132055818Y-73827266D01*
X132714243Y-74485690D01*
X132668426Y-74504668D01*
X132553776Y-74581274D01*
X132456274Y-74678776D01*
X132379668Y-74793426D01*
X132360690Y-74839242D01*
X131702266Y-74180818D01*
X131701567Y-74181637D01*
X131569980Y-74396368D01*
X131473603Y-74629043D01*
X131414812Y-74873927D01*
X131395052Y-75125000D01*
X131414812Y-75376072D01*
X131473603Y-75620956D01*
X131569980Y-75853631D01*
X131701568Y-76068362D01*
X131702266Y-76069179D01*
X132360689Y-75410755D01*
X132379668Y-75456574D01*
X132456274Y-75571224D01*
X132553776Y-75668726D01*
X132668426Y-75745332D01*
X132714242Y-75764309D01*
X132055819Y-76422732D01*
X132055819Y-76422733D01*
X132056634Y-76423429D01*
X132271368Y-76555019D01*
X132504043Y-76651396D01*
X132748927Y-76710187D01*
X133000000Y-76729947D01*
X133251072Y-76710187D01*
X133495956Y-76651396D01*
X133728631Y-76555019D01*
X133943361Y-76423432D01*
X133943363Y-76423430D01*
X133944180Y-76422732D01*
X133285757Y-75764309D01*
X133331574Y-75745332D01*
X133446224Y-75668726D01*
X133543726Y-75571224D01*
X133620332Y-75456574D01*
X133639309Y-75410756D01*
X134297732Y-76069180D01*
X134298430Y-76068363D01*
X134298432Y-76068361D01*
X134430019Y-75853631D01*
X134526396Y-75620956D01*
X134585187Y-75376072D01*
X134604947Y-75125000D01*
X134585187Y-74873927D01*
X134526396Y-74629043D01*
X134430261Y-74396953D01*
X134422792Y-74327484D01*
X134454067Y-74265004D01*
X134514156Y-74229352D01*
X134544822Y-74225500D01*
X136555178Y-74225500D01*
X136622217Y-74245185D01*
X136667972Y-74297989D01*
X136677916Y-74367147D01*
X136669739Y-74396953D01*
X136573603Y-74629043D01*
X136514812Y-74873927D01*
X136495052Y-75125000D01*
X136514812Y-75376072D01*
X136573603Y-75620956D01*
X136669980Y-75853631D01*
X136801568Y-76068362D01*
X136802266Y-76069179D01*
X137460689Y-75410755D01*
X137479668Y-75456574D01*
X137556274Y-75571224D01*
X137653776Y-75668726D01*
X137768426Y-75745332D01*
X137814242Y-75764309D01*
X137155819Y-76422732D01*
X137155819Y-76422733D01*
X137156634Y-76423429D01*
X137371368Y-76555019D01*
X137604043Y-76651396D01*
X137848927Y-76710187D01*
X138100000Y-76729947D01*
X138351072Y-76710187D01*
X138595956Y-76651396D01*
X138828631Y-76555019D01*
X139043361Y-76423432D01*
X139043363Y-76423430D01*
X139044180Y-76422732D01*
X138385757Y-75764309D01*
X138431574Y-75745332D01*
X138546224Y-75668726D01*
X138643726Y-75571224D01*
X138720332Y-75456574D01*
X138739309Y-75410757D01*
X139397732Y-76069180D01*
X139398430Y-76068363D01*
X139398432Y-76068361D01*
X139530019Y-75853631D01*
X139626396Y-75620956D01*
X139685187Y-75376072D01*
X139704947Y-75125000D01*
X139685187Y-74873927D01*
X139626396Y-74629043D01*
X139530019Y-74396368D01*
X139398429Y-74181634D01*
X139397733Y-74180819D01*
X139397732Y-74180819D01*
X138739309Y-74839242D01*
X138720332Y-74793426D01*
X138643726Y-74678776D01*
X138546224Y-74581274D01*
X138431574Y-74504668D01*
X138385755Y-74485689D01*
X139044179Y-73827266D01*
X139043362Y-73826568D01*
X138828631Y-73694980D01*
X138595956Y-73598603D01*
X138351072Y-73539812D01*
X138100000Y-73520052D01*
X137848927Y-73539812D01*
X137604041Y-73598604D01*
X137604039Y-73598604D01*
X137371952Y-73694738D01*
X137302483Y-73702207D01*
X137240004Y-73670932D01*
X137204352Y-73610843D01*
X137200500Y-73580177D01*
X137200500Y-71569822D01*
X137220185Y-71502783D01*
X137272989Y-71457028D01*
X137342147Y-71447084D01*
X137371953Y-71455261D01*
X137604043Y-71551396D01*
X137848927Y-71610187D01*
X138100000Y-71629947D01*
X138351072Y-71610187D01*
X138595956Y-71551396D01*
X138828631Y-71455019D01*
X139043361Y-71323432D01*
X139043363Y-71323430D01*
X139044180Y-71322732D01*
X138385756Y-70664309D01*
X138431574Y-70645332D01*
X138546224Y-70568726D01*
X138643726Y-70471224D01*
X138720332Y-70356574D01*
X138739309Y-70310757D01*
X139397732Y-70969180D01*
X139398430Y-70968363D01*
X139398432Y-70968361D01*
X139530019Y-70753631D01*
X139626396Y-70520956D01*
X139685187Y-70276072D01*
X139704947Y-70025000D01*
X139685187Y-69773927D01*
X139626396Y-69529043D01*
X139530019Y-69296368D01*
X139398429Y-69081634D01*
X139397733Y-69080819D01*
X139397732Y-69080819D01*
X138739309Y-69739242D01*
X138720332Y-69693426D01*
X138643726Y-69578776D01*
X138546224Y-69481274D01*
X138431574Y-69404668D01*
X138385755Y-69385689D01*
X139044179Y-68727266D01*
X139043362Y-68726568D01*
X138828631Y-68594980D01*
X138595956Y-68498603D01*
X138351072Y-68439812D01*
X138100000Y-68420052D01*
X137848927Y-68439812D01*
X137604043Y-68498603D01*
X137371368Y-68594980D01*
X137156637Y-68726567D01*
X137155818Y-68727266D01*
X137814242Y-69385690D01*
X137768426Y-69404668D01*
X137653776Y-69481274D01*
X137556274Y-69578776D01*
X137479668Y-69693426D01*
X137460690Y-69739243D01*
X136802266Y-69080818D01*
X136801567Y-69081637D01*
X136669980Y-69296368D01*
X136573603Y-69529043D01*
X136514812Y-69773927D01*
X136495052Y-70025000D01*
X136514812Y-70276072D01*
X136573603Y-70520956D01*
X136669739Y-70753047D01*
X136677208Y-70822516D01*
X136645933Y-70884996D01*
X136585844Y-70920648D01*
X136555178Y-70924500D01*
X134544822Y-70924500D01*
X134477783Y-70904815D01*
X134432028Y-70852011D01*
X134422084Y-70782853D01*
X134430261Y-70753047D01*
X134526396Y-70520956D01*
X134585187Y-70276072D01*
X134604947Y-70025000D01*
X134585187Y-69773927D01*
X134526396Y-69529043D01*
X134430019Y-69296368D01*
X134298429Y-69081634D01*
X134297733Y-69080819D01*
X134297732Y-69080819D01*
X133639309Y-69739242D01*
X133620332Y-69693426D01*
X133543726Y-69578776D01*
X133446224Y-69481274D01*
X133331574Y-69404668D01*
X133285755Y-69385689D01*
X133944179Y-68727266D01*
X133943362Y-68726568D01*
X133728631Y-68594980D01*
X133495956Y-68498603D01*
X133251072Y-68439812D01*
X133000000Y-68420052D01*
X132748927Y-68439812D01*
X132504043Y-68498603D01*
X132271368Y-68594980D01*
X132056637Y-68726567D01*
X132055818Y-68727266D01*
X132714242Y-69385690D01*
X132668426Y-69404668D01*
X132553776Y-69481274D01*
X132456274Y-69578776D01*
X132379668Y-69693426D01*
X132360690Y-69739242D01*
X131702266Y-69080818D01*
X131701567Y-69081637D01*
X131569980Y-69296368D01*
X131473603Y-69529043D01*
X131414812Y-69773927D01*
X131395052Y-70025000D01*
X93671445Y-70025000D01*
X93714179Y-69982266D01*
X93713362Y-69981568D01*
X93498631Y-69849980D01*
X93265956Y-69753603D01*
X93021072Y-69694812D01*
X92770000Y-69675052D01*
X92518927Y-69694812D01*
X92274041Y-69753604D01*
X92274039Y-69753604D01*
X92041952Y-69849738D01*
X91972483Y-69857207D01*
X91910004Y-69825932D01*
X91874352Y-69765843D01*
X91870500Y-69735177D01*
X91870500Y-67724822D01*
X91890185Y-67657783D01*
X91942989Y-67612028D01*
X92012147Y-67602084D01*
X92041953Y-67610261D01*
X92274043Y-67706396D01*
X92518927Y-67765187D01*
X92770000Y-67784947D01*
X93021072Y-67765187D01*
X93265956Y-67706396D01*
X93498631Y-67610019D01*
X93713361Y-67478432D01*
X93713363Y-67478430D01*
X93714180Y-67477732D01*
X93055756Y-66819309D01*
X93101574Y-66800332D01*
X93216224Y-66723726D01*
X93313726Y-66626224D01*
X93390332Y-66511574D01*
X93409309Y-66465757D01*
X94067732Y-67124180D01*
X94068430Y-67123363D01*
X94068432Y-67123361D01*
X94200019Y-66908631D01*
X94296396Y-66675956D01*
X94355187Y-66431072D01*
X94374947Y-66180000D01*
X94355187Y-65928927D01*
X94296396Y-65684043D01*
X94200019Y-65451368D01*
X94068429Y-65236634D01*
X94067733Y-65235819D01*
X94067732Y-65235819D01*
X93409309Y-65894242D01*
X93390332Y-65848426D01*
X93313726Y-65733776D01*
X93216224Y-65636274D01*
X93101574Y-65559668D01*
X93055755Y-65540689D01*
X93714179Y-64882266D01*
X93713362Y-64881568D01*
X93498631Y-64749980D01*
X93265956Y-64653603D01*
X93021072Y-64594812D01*
X92770000Y-64575052D01*
X92518927Y-64594812D01*
X92274043Y-64653603D01*
X92041368Y-64749980D01*
X91826637Y-64881567D01*
X91825818Y-64882266D01*
X92484242Y-65540690D01*
X92438426Y-65559668D01*
X92323776Y-65636274D01*
X92226274Y-65733776D01*
X92149668Y-65848426D01*
X92130690Y-65894243D01*
X91472266Y-65235818D01*
X91471567Y-65236637D01*
X91339980Y-65451368D01*
X91243603Y-65684043D01*
X91184812Y-65928927D01*
X91165052Y-66180000D01*
X91184812Y-66431072D01*
X91243603Y-66675956D01*
X91339739Y-66908047D01*
X91347208Y-66977516D01*
X91315933Y-67039996D01*
X91255844Y-67075648D01*
X91225178Y-67079500D01*
X89214822Y-67079500D01*
X89147783Y-67059815D01*
X89102028Y-67007011D01*
X89092084Y-66937853D01*
X89100261Y-66908047D01*
X89196396Y-66675956D01*
X89255187Y-66431072D01*
X89274947Y-66180000D01*
X89255187Y-65928927D01*
X89196396Y-65684043D01*
X89100019Y-65451368D01*
X88968429Y-65236634D01*
X88967733Y-65235819D01*
X88967732Y-65235819D01*
X88309309Y-65894242D01*
X88290332Y-65848426D01*
X88213726Y-65733776D01*
X88116224Y-65636274D01*
X88001574Y-65559668D01*
X87955755Y-65540689D01*
X88614179Y-64882266D01*
X88613362Y-64881568D01*
X88398631Y-64749980D01*
X88165956Y-64653603D01*
X87921072Y-64594812D01*
X87670000Y-64575052D01*
X87418927Y-64594812D01*
X87174043Y-64653603D01*
X86941368Y-64749980D01*
X86726637Y-64881567D01*
X86725818Y-64882266D01*
X87384242Y-65540690D01*
X87338426Y-65559668D01*
X87223776Y-65636274D01*
X87126274Y-65733776D01*
X87049668Y-65848426D01*
X87030690Y-65894242D01*
X86372266Y-65235818D01*
X86371567Y-65236637D01*
X86239980Y-65451368D01*
X86143603Y-65684043D01*
X86084812Y-65928927D01*
X86065052Y-66180000D01*
X50300500Y-66180000D01*
X50300500Y-63639994D01*
X117982616Y-63639994D01*
X117982616Y-63640005D01*
X118002117Y-63875347D01*
X118060091Y-64104283D01*
X118154953Y-64320546D01*
X118243250Y-64455695D01*
X118990774Y-63708171D01*
X119016463Y-63804044D01*
X119072416Y-63900956D01*
X119151544Y-63980084D01*
X119248456Y-64036037D01*
X119344328Y-64061725D01*
X118595886Y-64810165D01*
X118595887Y-64810166D01*
X118630424Y-64837048D01*
X118630433Y-64837054D01*
X118838111Y-64949445D01*
X118838129Y-64949452D01*
X119061481Y-65026129D01*
X119294421Y-65065000D01*
X119530579Y-65065000D01*
X119763518Y-65026129D01*
X119986870Y-64949452D01*
X119986888Y-64949445D01*
X120194565Y-64837054D01*
X120194577Y-64837047D01*
X120229111Y-64810166D01*
X120229111Y-64810165D01*
X119480671Y-64061725D01*
X119576544Y-64036037D01*
X119673456Y-63980084D01*
X119752584Y-63900956D01*
X119808537Y-63804044D01*
X119834225Y-63708172D01*
X120581748Y-64455695D01*
X120670042Y-64320553D01*
X120670047Y-64320545D01*
X120764908Y-64104283D01*
X120822882Y-63875347D01*
X120842384Y-63640005D01*
X120842384Y-63639994D01*
X120822882Y-63404652D01*
X120764908Y-63175716D01*
X120670044Y-62959448D01*
X120640993Y-62914983D01*
X122187000Y-62914983D01*
X122187000Y-64365001D01*
X122187001Y-64365018D01*
X122197500Y-64467796D01*
X122197501Y-64467799D01*
X122233042Y-64575052D01*
X122252686Y-64634334D01*
X122344788Y-64783656D01*
X122468844Y-64907712D01*
X122618166Y-64999814D01*
X122784703Y-65054999D01*
X122887491Y-65065500D01*
X124337508Y-65065499D01*
X124440297Y-65054999D01*
X124606834Y-64999814D01*
X124756156Y-64907712D01*
X124880212Y-64783656D01*
X124972314Y-64634334D01*
X125027499Y-64467797D01*
X125038000Y-64365009D01*
X125037999Y-62914992D01*
X125027499Y-62812203D01*
X124972314Y-62645666D01*
X124880212Y-62496344D01*
X124756156Y-62372288D01*
X124606834Y-62280186D01*
X124440297Y-62225001D01*
X124440295Y-62225000D01*
X124337510Y-62214500D01*
X122887498Y-62214500D01*
X122887481Y-62214501D01*
X122784703Y-62225000D01*
X122784700Y-62225001D01*
X122618168Y-62280185D01*
X122618163Y-62280187D01*
X122468842Y-62372289D01*
X122344789Y-62496342D01*
X122252687Y-62645663D01*
X122252686Y-62645666D01*
X122197501Y-62812203D01*
X122197501Y-62812204D01*
X122197500Y-62812204D01*
X122187000Y-62914983D01*
X120640993Y-62914983D01*
X120581748Y-62824303D01*
X119834225Y-63571827D01*
X119808537Y-63475956D01*
X119752584Y-63379044D01*
X119673456Y-63299916D01*
X119576544Y-63243963D01*
X119480672Y-63218274D01*
X120229111Y-62469833D01*
X120229111Y-62469832D01*
X120194573Y-62442950D01*
X120194573Y-62442949D01*
X119986878Y-62330550D01*
X119986870Y-62330547D01*
X119763518Y-62253870D01*
X119530579Y-62215000D01*
X119294421Y-62215000D01*
X119061481Y-62253870D01*
X118838129Y-62330547D01*
X118838121Y-62330550D01*
X118630425Y-62442950D01*
X118630419Y-62442954D01*
X118595887Y-62469831D01*
X118595887Y-62469833D01*
X119344328Y-63218274D01*
X119248456Y-63243963D01*
X119151544Y-63299916D01*
X119072416Y-63379044D01*
X119016463Y-63475956D01*
X118990774Y-63571827D01*
X118243250Y-62824303D01*
X118154954Y-62959450D01*
X118060091Y-63175716D01*
X118002117Y-63404652D01*
X117982616Y-63639994D01*
X50300500Y-63639994D01*
X50300500Y-56599994D01*
X72770116Y-56599994D01*
X72770116Y-56600005D01*
X72789617Y-56835347D01*
X72847591Y-57064283D01*
X72942453Y-57280546D01*
X73030750Y-57415695D01*
X73778274Y-56668171D01*
X73803963Y-56764044D01*
X73859916Y-56860956D01*
X73939044Y-56940084D01*
X74035956Y-56996037D01*
X74131828Y-57021725D01*
X73383386Y-57770165D01*
X73383387Y-57770166D01*
X73417924Y-57797048D01*
X73417933Y-57797054D01*
X73625611Y-57909445D01*
X73625629Y-57909452D01*
X73848981Y-57986129D01*
X74081921Y-58025000D01*
X74318079Y-58025000D01*
X74551018Y-57986129D01*
X74774370Y-57909452D01*
X74774388Y-57909445D01*
X74982065Y-57797054D01*
X74982077Y-57797047D01*
X75016611Y-57770166D01*
X75016611Y-57770165D01*
X74268171Y-57021725D01*
X74364044Y-56996037D01*
X74460956Y-56940084D01*
X74540084Y-56860956D01*
X74596037Y-56764044D01*
X74621725Y-56668172D01*
X75369248Y-57415695D01*
X75457542Y-57280553D01*
X75457547Y-57280545D01*
X75552408Y-57064283D01*
X75610382Y-56835347D01*
X75629884Y-56600005D01*
X75629884Y-56599994D01*
X75610382Y-56364652D01*
X75552408Y-56135716D01*
X75457544Y-55919448D01*
X75428493Y-55874983D01*
X76974500Y-55874983D01*
X76974500Y-57325001D01*
X76974501Y-57325018D01*
X76985000Y-57427796D01*
X76985001Y-57427799D01*
X77040185Y-57594331D01*
X77040186Y-57594334D01*
X77132288Y-57743656D01*
X77256344Y-57867712D01*
X77405666Y-57959814D01*
X77572203Y-58014999D01*
X77674991Y-58025500D01*
X79125008Y-58025499D01*
X79227797Y-58014999D01*
X79394334Y-57959814D01*
X79543656Y-57867712D01*
X79667712Y-57743656D01*
X79759814Y-57594334D01*
X79814999Y-57427797D01*
X79825500Y-57325009D01*
X79825499Y-55874992D01*
X79814999Y-55772203D01*
X79759814Y-55605666D01*
X79667712Y-55456344D01*
X79543656Y-55332288D01*
X79394334Y-55240186D01*
X79227797Y-55185001D01*
X79227795Y-55185000D01*
X79125010Y-55174500D01*
X77674998Y-55174500D01*
X77674981Y-55174501D01*
X77572203Y-55185000D01*
X77572200Y-55185001D01*
X77405668Y-55240185D01*
X77405663Y-55240187D01*
X77256342Y-55332289D01*
X77132289Y-55456342D01*
X77040187Y-55605663D01*
X77040186Y-55605666D01*
X76985001Y-55772203D01*
X76985001Y-55772204D01*
X76985000Y-55772204D01*
X76974500Y-55874983D01*
X75428493Y-55874983D01*
X75369248Y-55784303D01*
X74621725Y-56531827D01*
X74596037Y-56435956D01*
X74540084Y-56339044D01*
X74460956Y-56259916D01*
X74364044Y-56203963D01*
X74268172Y-56178274D01*
X75016611Y-55429833D01*
X75016611Y-55429832D01*
X74982073Y-55402950D01*
X74982073Y-55402949D01*
X74774378Y-55290550D01*
X74774370Y-55290547D01*
X74551018Y-55213870D01*
X74318079Y-55175000D01*
X74081921Y-55175000D01*
X73848981Y-55213870D01*
X73625629Y-55290547D01*
X73625621Y-55290550D01*
X73417925Y-55402950D01*
X73417919Y-55402954D01*
X73383387Y-55429831D01*
X73383387Y-55429833D01*
X74131828Y-56178274D01*
X74035956Y-56203963D01*
X73939044Y-56259916D01*
X73859916Y-56339044D01*
X73803963Y-56435956D01*
X73778274Y-56531827D01*
X73030750Y-55784303D01*
X72942454Y-55919450D01*
X72847591Y-56135716D01*
X72789617Y-56364652D01*
X72770116Y-56599994D01*
X50300500Y-56599994D01*
X50300500Y-50424500D01*
X50320185Y-50357461D01*
X50372989Y-50311706D01*
X50424500Y-50300500D01*
X149575500Y-50300500D01*
X149642539Y-50320185D01*
G37*
G04 #@! TD.AperFunction*
M02*
