G04 #@! TF.GenerationSoftware,KiCad,Pcbnew,8.0.8-8.0.8-0~ubuntu24.04.1*
G04 #@! TF.CreationDate,2025-01-18T17:04:38+01:00*
G04 #@! TF.ProjectId,rf_lna,72665f6c-6e61-42e6-9b69-6361645f7063,rev?*
G04 #@! TF.SameCoordinates,Original*
G04 #@! TF.FileFunction,Legend,Bot*
G04 #@! TF.FilePolarity,Positive*
%FSLAX46Y46*%
G04 Gerber Fmt 4.6, Leading zero omitted, Abs format (unit mm)*
G04 Created by KiCad (PCBNEW 8.0.8-8.0.8-0~ubuntu24.04.1) date 2025-01-18 17:04:38*
%MOMM*%
%LPD*%
G01*
G04 APERTURE LIST*
G04 Aperture macros list*
%AMRoundRect*
0 Rectangle with rounded corners*
0 $1 Rounding radius*
0 $2 $3 $4 $5 $6 $7 $8 $9 X,Y pos of 4 corners*
0 Add a 4 corners polygon primitive as box body*
4,1,4,$2,$3,$4,$5,$6,$7,$8,$9,$2,$3,0*
0 Add four circle primitives for the rounded corners*
1,1,$1+$1,$2,$3*
1,1,$1+$1,$4,$5*
1,1,$1+$1,$6,$7*
1,1,$1+$1,$8,$9*
0 Add four rect primitives between the rounded corners*
20,1,$1+$1,$2,$3,$4,$5,0*
20,1,$1+$1,$4,$5,$6,$7,0*
20,1,$1+$1,$6,$7,$8,$9,0*
20,1,$1+$1,$8,$9,$2,$3,0*%
G04 Aperture macros list end*
%ADD10C,1.448000*%
%ADD11RoundRect,0.200100X-0.949900X-0.949900X0.949900X-0.949900X0.949900X0.949900X-0.949900X0.949900X0*%
%ADD12C,2.200000*%
%ADD13RoundRect,0.250000X0.675000X0.675000X-0.675000X0.675000X-0.675000X-0.675000X0.675000X-0.675000X0*%
%ADD14C,1.850000*%
%ADD15RoundRect,0.200100X0.949900X0.949900X-0.949900X0.949900X-0.949900X-0.949900X0.949900X-0.949900X0*%
G04 APERTURE END LIST*
%LPC*%
D10*
X54220000Y-100040000D03*
X53560000Y-146770000D03*
X110930000Y-56380000D03*
X144860000Y-100870000D03*
D11*
X136150000Y-95350000D03*
D12*
X133600000Y-92800000D03*
X133600000Y-97900000D03*
X138700000Y-92800000D03*
X138700000Y-97900000D03*
D13*
X123612500Y-63640000D03*
D14*
X119412500Y-63640000D03*
D15*
X60100000Y-95400000D03*
D12*
X62650000Y-97950000D03*
X62650000Y-92850000D03*
X57550000Y-97950000D03*
X57550000Y-92850000D03*
D15*
X108075000Y-74800000D03*
D12*
X110625000Y-77350000D03*
X110625000Y-72250000D03*
X105525000Y-77350000D03*
X105525000Y-72250000D03*
D15*
X62175000Y-74050000D03*
D12*
X64725000Y-76600000D03*
X64725000Y-71500000D03*
X59625000Y-76600000D03*
X59625000Y-71500000D03*
D15*
X100825000Y-129900000D03*
D12*
X103375000Y-132450000D03*
X103375000Y-127350000D03*
X98275000Y-132450000D03*
X98275000Y-127350000D03*
D13*
X78400000Y-56600000D03*
D14*
X74200000Y-56600000D03*
D11*
X135550000Y-72575000D03*
D12*
X133000000Y-70025000D03*
X133000000Y-75125000D03*
X138100000Y-70025000D03*
X138100000Y-75125000D03*
D11*
X90220000Y-68730000D03*
D12*
X87670000Y-66180000D03*
X87670000Y-71280000D03*
X92770000Y-66180000D03*
X92770000Y-71280000D03*
%LPD*%
M02*
