M48
; DRILL file {KiCad 8.0.8-8.0.8-0~ubuntu24.04.1} date 2025-01-18T16:04:38+0100
; FORMAT={-:-/ absolute / metric / decimal}
; #@! TF.CreationDate,2025-01-18T16:04:38+01:00
; #@! TF.GenerationSoftware,Kicad,Pcbnew,8.0.8-8.0.8-0~ubuntu24.04.1
; #@! TF.FileFunction,Plated,1,4,PTH
FMAT,2
METRIC
; #@! TA.AperFunction,Plated,PTH,ViaDrill
T1C0.300
; #@! TA.AperFunction,Plated,PTH,ComponentDrill
T2C0.850
; #@! TA.AperFunction,Plated,PTH,ComponentDrill
T3C1.400
%
G90
G05
T1
X51.4Y-106.36
X51.4Y-108.78
X51.45Y-110.96
X51.48Y-113.27
X51.53Y-123.44
X51.54Y-115.7
X51.56Y-133.91
X51.56Y-137.81
X51.58Y-117.98
X51.58Y-120.71
X51.58Y-127.3
X51.61Y-130.49
X51.66Y-140.64
X51.66Y-143.81
X51.76Y-147.23
X57.03Y-148.01
X57.78Y-106.67
X57.81Y-114.12
X58.02Y-121.92
X58.44Y-126.07
X58.51Y-129.23
X58.51Y-142.08
X58.86Y-135.69
X62.44Y-147.96
X63.7Y-106.6
X64.83Y-114.12
X66.38Y-121.99
X66.433Y-94.15
X66.433Y-96.65
X66.52Y-125.57
X66.79Y-72.93
X66.87Y-142.15
X67.01Y-129.51
X67.22Y-135.76
X67.94Y-106.53
X68.21Y-75.22
X68.25Y-147.96
X68.52Y-72.9
X69.09Y-75.19
X70.4Y-72.9
X71.18Y-69.56
X71.4Y-75.25
X71.56Y-72.93
X71.71Y-71.89
X72.0Y-114.12
X72.16Y-57.84
X72.21Y-55.44
X72.27Y-61.23
X72.28Y-60.08
X72.34Y-106.6
X72.55Y-66.6
X72.767Y-94.15
X72.767Y-96.65
X73.35Y-67.66
X73.7Y-63.8
X73.9Y-121.64
X74.15Y-75.2
X74.16Y-77.21
X74.2Y-67.55
X74.29Y-79.27
X74.39Y-141.8
X74.39Y-148.07
X74.45Y-66.55
X74.74Y-135.41
X75.29Y-58.91
X75.45Y-80.25
X76.14Y-55.47
X76.19Y-57.66
X76.85Y-69.95
X76.88Y-72.05
X76.9Y-74.25
X76.9Y-75.85
X77.25Y-63.7
X77.25Y-80.3
X77.35Y-65.35
X77.43Y-106.48
X77.95Y-77.25
X78.51Y-75.0
X78.65Y-79.1
X79.02Y-114.12
X79.02Y-121.57
X79.1Y-94.15
X79.1Y-96.65
X79.45Y-125.43
X79.51Y-141.73
X79.65Y-67.55
X79.73Y-129.93
X79.75Y-66.65
X79.75Y-71.49
X79.82Y-73.77
X79.84Y-148.01
X79.85Y-69.95
X79.86Y-135.34
X80.85Y-63.6
X80.85Y-64.5
X80.85Y-65.5
X80.95Y-57.7
X80.95Y-69.85
X81.42Y-67.61
X81.95Y-58.95
X82.77Y-106.34
X83.25Y-69.82
X83.52Y-67.64
X84.28Y-69.82
X85.433Y-94.15
X85.433Y-96.65
X85.51Y-71.19
X85.61Y-67.64
X85.63Y-148.01
X85.66Y-64.93
X86.61Y-114.2
X88.51Y-121.43
X89.0Y-141.59
X89.35Y-135.2
X89.58Y-72.12
X89.63Y-65.32
X89.72Y-106.13
X91.0Y-72.19
X91.37Y-148.01
X91.767Y-94.15
X91.767Y-96.65
X92.66Y-130.7
X92.8Y-125.36
X93.81Y-73.37
X94.71Y-64.89
X94.76Y-114.27
X94.82Y-67.37
X94.99Y-106.34
X95.4Y-121.36
X95.89Y-141.52
X96.24Y-135.13
X97.23Y-148.01
X98.1Y-94.15
X98.1Y-96.65
X98.65Y-130.01
X100.83Y-127.81
X100.93Y-131.98
X101.67Y-106.34
X103.47Y-114.05
X103.52Y-73.59
X103.55Y-70.96
X104.39Y-121.57
X104.433Y-94.15
X104.433Y-96.65
X104.49Y-147.89
X104.88Y-141.73
X105.03Y-75.24
X105.23Y-135.34
X105.4Y-128.74
X105.42Y-131.19
X107.45Y-78.32
X107.52Y-106.41
X107.64Y-71.54
X108.72Y-71.36
X108.79Y-78.18
X108.93Y-131.5
X109.88Y-128.43
X110.64Y-148.07
X110.767Y-94.15
X110.767Y-96.65
X111.91Y-121.57
X112.4Y-141.73
X112.7Y-70.79
X112.75Y-135.34
X112.97Y-128.36
X113.05Y-131.46
X113.1Y-73.58
X113.31Y-113.98
X113.68Y-106.41
X114.01Y-76.01
X115.06Y-76.01
X115.85Y-127.79
X115.95Y-132.05
X116.29Y-67.63
X116.29Y-73.58
X117.1Y-94.15
X117.1Y-96.65
X117.51Y-141.64
X117.54Y-148.01
X117.59Y-144.75
X117.6Y-75.93
X117.79Y-64.78
X117.88Y-62.28
X117.97Y-69.37
X118.19Y-111.73
X118.2Y-109.04
X118.27Y-139.23
X118.31Y-106.52
X118.33Y-114.55
X118.33Y-117.99
X118.44Y-137.06
X118.47Y-121.5
X118.47Y-124.66
X118.5Y-127.15
X118.64Y-134.76
X118.78Y-132.68
X118.88Y-73.57
X118.96Y-69.41
X118.99Y-75.94
X120.71Y-69.44
X121.02Y-62.36
X121.02Y-64.87
X121.3Y-72.55
X121.45Y-73.6
X121.72Y-75.98
X122.17Y-77.99
X122.17Y-80.09
X122.68Y-75.99
X123.18Y-70.93
X123.433Y-94.15
X123.433Y-96.65
X123.95Y-80.85
X125.15Y-73.85
X125.19Y-75.11
X125.2Y-76.15
X125.4Y-80.85
X125.58Y-71.62
X125.7Y-77.15
X125.75Y-70.8
X126.15Y-64.65
X126.23Y-73.82
X126.4Y-67.6
X126.47Y-69.43
X126.55Y-78.25
X126.95Y-79.9
X127.61Y-71.38
X129.09Y-73.82
X129.767Y-94.15
X129.767Y-96.65
X129.8Y-71.39
X130.1Y-65.7
X131.04Y-71.17
X131.08Y-76.32
X131.09Y-68.65
X132.14Y-77.18
X134.63Y-69.02
X134.97Y-76.01
X136.48Y-76.88
X139.03Y-71.8
X139.83Y-76.82
X139.86Y-73.27
X140.13Y-68.27
T2
X74.2Y-56.6
X78.4Y-56.6
X119.412Y-63.64
X123.612Y-63.64
T3
X57.55Y-92.85
X57.55Y-97.95
X59.625Y-71.5
X59.625Y-76.6
X60.1Y-95.4
X62.175Y-74.05
X62.65Y-92.85
X62.65Y-97.95
X64.725Y-71.5
X64.725Y-76.6
X87.67Y-66.18
X87.67Y-71.28
X90.22Y-68.73
X92.77Y-66.18
X92.77Y-71.28
X98.275Y-127.35
X98.275Y-132.45
X100.825Y-129.9
X103.375Y-127.35
X103.375Y-132.45
X105.525Y-72.25
X105.525Y-77.35
X108.075Y-74.8
X110.625Y-72.25
X110.625Y-77.35
X133.0Y-70.025
X133.0Y-75.125
X133.6Y-92.8
X133.6Y-97.9
X135.55Y-72.575
X136.15Y-95.35
X138.1Y-70.025
X138.1Y-75.125
X138.7Y-92.8
X138.7Y-97.9
M30
