%TF.GenerationSoftware,KiCad,Pcbnew,8.0.8-8.0.8-0~ubuntu24.04.1*%
%TF.CreationDate,2025-01-18T17:05:32+01:00*%
%TF.ProjectId,rf_lna,72665f6c-6e61-42e6-9b69-6361645f7063,rev?*%
%TF.SameCoordinates,Original*%
%TF.FileFunction,Drillmap*%
%TF.FilePolarity,Positive*%
%FSLAX45Y45*%
G04 Gerber Fmt 4.5, Leading zero omitted, Abs format (unit mm)*
G04 Created by KiCad (PCBNEW 8.0.8-8.0.8-0~ubuntu24.04.1) date 2025-01-18 17:05:32*
%MOMM*%
%LPD*%
G01*
G04 APERTURE LIST*
%ADD10C,0.200000*%
%ADD11C,0.100000*%
%ADD12C,0.140000*%
G04 APERTURE END LIST*
D10*
X5000000Y-5000000D02*
X15000000Y-5000000D01*
X15000000Y-15000000D01*
X5000000Y-15000000D01*
X5000000Y-5000000D01*
D11*
X5125000Y-10621000D02*
X5155000Y-10651000D01*
X5155000Y-10621000D02*
X5125000Y-10651000D01*
X5125000Y-10863000D02*
X5155000Y-10893000D01*
X5155000Y-10863000D02*
X5125000Y-10893000D01*
X5130000Y-11081000D02*
X5160000Y-11111000D01*
X5160000Y-11081000D02*
X5130000Y-11111000D01*
X5133000Y-11312000D02*
X5163000Y-11342000D01*
X5163000Y-11312000D02*
X5133000Y-11342000D01*
X5138000Y-12329000D02*
X5168000Y-12359000D01*
X5168000Y-12329000D02*
X5138000Y-12359000D01*
X5139000Y-11555000D02*
X5169000Y-11585000D01*
X5169000Y-11555000D02*
X5139000Y-11585000D01*
X5141000Y-13376000D02*
X5171000Y-13406000D01*
X5171000Y-13376000D02*
X5141000Y-13406000D01*
X5141000Y-13766000D02*
X5171000Y-13796000D01*
X5171000Y-13766000D02*
X5141000Y-13796000D01*
X5143000Y-11783000D02*
X5173000Y-11813000D01*
X5173000Y-11783000D02*
X5143000Y-11813000D01*
X5143000Y-12056000D02*
X5173000Y-12086000D01*
X5173000Y-12056000D02*
X5143000Y-12086000D01*
X5143000Y-12715000D02*
X5173000Y-12745000D01*
X5173000Y-12715000D02*
X5143000Y-12745000D01*
X5146000Y-13034000D02*
X5176000Y-13064000D01*
X5176000Y-13034000D02*
X5146000Y-13064000D01*
X5151000Y-14049000D02*
X5181000Y-14079000D01*
X5181000Y-14049000D02*
X5151000Y-14079000D01*
X5151000Y-14366000D02*
X5181000Y-14396000D01*
X5181000Y-14366000D02*
X5151000Y-14396000D01*
X5561000Y-14536000D02*
X5591000Y-14566000D01*
X5591000Y-14536000D02*
X5561000Y-14566000D01*
X5688000Y-14786000D02*
X5718000Y-14816000D01*
X5718000Y-14786000D02*
X5688000Y-14816000D01*
X5763000Y-10652000D02*
X5793000Y-10682000D01*
X5793000Y-10652000D02*
X5763000Y-10682000D01*
X5766000Y-11397000D02*
X5796000Y-11427000D01*
X5796000Y-11397000D02*
X5766000Y-11427000D01*
X5787000Y-12177000D02*
X5817000Y-12207000D01*
X5817000Y-12177000D02*
X5787000Y-12207000D01*
X5829000Y-12592000D02*
X5859000Y-12622000D01*
X5859000Y-12592000D02*
X5829000Y-12622000D01*
X5836000Y-12908000D02*
X5866000Y-12938000D01*
X5866000Y-12908000D02*
X5836000Y-12938000D01*
X5836000Y-14193000D02*
X5866000Y-14223000D01*
X5866000Y-14193000D02*
X5836000Y-14223000D01*
X5871000Y-13554000D02*
X5901000Y-13584000D01*
X5901000Y-13554000D02*
X5871000Y-13584000D01*
X6229000Y-14781000D02*
X6259000Y-14811000D01*
X6259000Y-14781000D02*
X6229000Y-14811000D01*
X6355000Y-10645000D02*
X6385000Y-10675000D01*
X6385000Y-10645000D02*
X6355000Y-10675000D01*
X6468000Y-11397000D02*
X6498000Y-11427000D01*
X6498000Y-11397000D02*
X6468000Y-11427000D01*
X6623000Y-12184000D02*
X6653000Y-12214000D01*
X6653000Y-12184000D02*
X6623000Y-12214000D01*
X6628333Y-9400000D02*
X6658333Y-9430000D01*
X6658333Y-9400000D02*
X6628333Y-9430000D01*
X6628333Y-9650000D02*
X6658333Y-9680000D01*
X6658333Y-9650000D02*
X6628333Y-9680000D01*
X6637000Y-12542000D02*
X6667000Y-12572000D01*
X6667000Y-12542000D02*
X6637000Y-12572000D01*
X6664000Y-7278000D02*
X6694000Y-7308000D01*
X6694000Y-7278000D02*
X6664000Y-7308000D01*
X6672000Y-14200000D02*
X6702000Y-14230000D01*
X6702000Y-14200000D02*
X6672000Y-14230000D01*
X6686000Y-12936000D02*
X6716000Y-12966000D01*
X6716000Y-12936000D02*
X6686000Y-12966000D01*
X6707000Y-13561000D02*
X6737000Y-13591000D01*
X6737000Y-13561000D02*
X6707000Y-13591000D01*
X6779000Y-10638000D02*
X6809000Y-10668000D01*
X6809000Y-10638000D02*
X6779000Y-10668000D01*
X6806000Y-7507000D02*
X6836000Y-7537000D01*
X6836000Y-7507000D02*
X6806000Y-7537000D01*
X6810000Y-14781000D02*
X6840000Y-14811000D01*
X6840000Y-14781000D02*
X6810000Y-14811000D01*
X6837000Y-7275000D02*
X6867000Y-7305000D01*
X6867000Y-7275000D02*
X6837000Y-7305000D01*
X6894000Y-7504000D02*
X6924000Y-7534000D01*
X6924000Y-7504000D02*
X6894000Y-7534000D01*
X7025000Y-7275000D02*
X7055000Y-7305000D01*
X7055000Y-7275000D02*
X7025000Y-7305000D01*
X7103000Y-6941000D02*
X7133000Y-6971000D01*
X7133000Y-6941000D02*
X7103000Y-6971000D01*
X7125000Y-7510000D02*
X7155000Y-7540000D01*
X7155000Y-7510000D02*
X7125000Y-7540000D01*
X7141000Y-7278000D02*
X7171000Y-7308000D01*
X7171000Y-7278000D02*
X7141000Y-7308000D01*
X7156000Y-7174000D02*
X7186000Y-7204000D01*
X7186000Y-7174000D02*
X7156000Y-7204000D01*
X7185000Y-11397000D02*
X7215000Y-11427000D01*
X7215000Y-11397000D02*
X7185000Y-11427000D01*
X7201000Y-5769000D02*
X7231000Y-5799000D01*
X7231000Y-5769000D02*
X7201000Y-5799000D01*
X7206000Y-5529000D02*
X7236000Y-5559000D01*
X7236000Y-5529000D02*
X7206000Y-5559000D01*
X7212000Y-6108000D02*
X7242000Y-6138000D01*
X7242000Y-6108000D02*
X7212000Y-6138000D01*
X7213000Y-5993000D02*
X7243000Y-6023000D01*
X7243000Y-5993000D02*
X7213000Y-6023000D01*
X7219000Y-10645000D02*
X7249000Y-10675000D01*
X7249000Y-10645000D02*
X7219000Y-10675000D01*
X7240000Y-6645000D02*
X7270000Y-6675000D01*
X7270000Y-6645000D02*
X7240000Y-6675000D01*
X7261667Y-9400000D02*
X7291667Y-9430000D01*
X7291667Y-9400000D02*
X7261667Y-9430000D01*
X7261667Y-9650000D02*
X7291667Y-9680000D01*
X7291667Y-9650000D02*
X7261667Y-9680000D01*
X7320000Y-6751000D02*
X7350000Y-6781000D01*
X7350000Y-6751000D02*
X7320000Y-6781000D01*
X7355000Y-6365000D02*
X7385000Y-6395000D01*
X7385000Y-6365000D02*
X7355000Y-6395000D01*
X7375000Y-12149000D02*
X7405000Y-12179000D01*
X7405000Y-12149000D02*
X7375000Y-12179000D01*
X7400000Y-7505000D02*
X7430000Y-7535000D01*
X7430000Y-7505000D02*
X7400000Y-7535000D01*
X7401000Y-7706000D02*
X7431000Y-7736000D01*
X7431000Y-7706000D02*
X7401000Y-7736000D01*
X7405000Y-6740000D02*
X7435000Y-6770000D01*
X7435000Y-6740000D02*
X7405000Y-6770000D01*
X7414000Y-7912000D02*
X7444000Y-7942000D01*
X7444000Y-7912000D02*
X7414000Y-7942000D01*
X7424000Y-14165000D02*
X7454000Y-14195000D01*
X7454000Y-14165000D02*
X7424000Y-14195000D01*
X7424000Y-14792000D02*
X7454000Y-14822000D01*
X7454000Y-14792000D02*
X7424000Y-14822000D01*
X7430000Y-6640000D02*
X7460000Y-6670000D01*
X7460000Y-6640000D02*
X7430000Y-6670000D01*
X7459000Y-13526000D02*
X7489000Y-13556000D01*
X7489000Y-13526000D02*
X7459000Y-13556000D01*
X7514000Y-5876000D02*
X7544000Y-5906000D01*
X7544000Y-5876000D02*
X7514000Y-5906000D01*
X7530000Y-8010000D02*
X7560000Y-8040000D01*
X7560000Y-8010000D02*
X7530000Y-8040000D01*
X7599000Y-5532000D02*
X7629000Y-5562000D01*
X7629000Y-5532000D02*
X7599000Y-5562000D01*
X7604000Y-5751000D02*
X7634000Y-5781000D01*
X7634000Y-5751000D02*
X7604000Y-5781000D01*
X7670000Y-6980000D02*
X7700000Y-7010000D01*
X7700000Y-6980000D02*
X7670000Y-7010000D01*
X7673000Y-7190000D02*
X7703000Y-7220000D01*
X7703000Y-7190000D02*
X7673000Y-7220000D01*
X7675000Y-7410000D02*
X7705000Y-7440000D01*
X7705000Y-7410000D02*
X7675000Y-7440000D01*
X7675000Y-7570000D02*
X7705000Y-7600000D01*
X7705000Y-7570000D02*
X7675000Y-7600000D01*
X7710000Y-6355000D02*
X7740000Y-6385000D01*
X7740000Y-6355000D02*
X7710000Y-6385000D01*
X7710000Y-8015000D02*
X7740000Y-8045000D01*
X7740000Y-8015000D02*
X7710000Y-8045000D01*
X7720000Y-6520000D02*
X7750000Y-6550000D01*
X7750000Y-6520000D02*
X7720000Y-6550000D01*
X7728000Y-10633000D02*
X7758000Y-10663000D01*
X7758000Y-10633000D02*
X7728000Y-10663000D01*
X7780000Y-7710000D02*
X7810000Y-7740000D01*
X7810000Y-7710000D02*
X7780000Y-7740000D01*
X7836000Y-7485000D02*
X7866000Y-7515000D01*
X7866000Y-7485000D02*
X7836000Y-7515000D01*
X7850000Y-7895000D02*
X7880000Y-7925000D01*
X7880000Y-7895000D02*
X7850000Y-7925000D01*
X7887000Y-11397000D02*
X7917000Y-11427000D01*
X7917000Y-11397000D02*
X7887000Y-11427000D01*
X7887000Y-12142000D02*
X7917000Y-12172000D01*
X7917000Y-12142000D02*
X7887000Y-12172000D01*
X7895000Y-9400000D02*
X7925000Y-9430000D01*
X7925000Y-9400000D02*
X7895000Y-9430000D01*
X7895000Y-9650000D02*
X7925000Y-9680000D01*
X7925000Y-9650000D02*
X7895000Y-9680000D01*
X7930000Y-12528000D02*
X7960000Y-12558000D01*
X7960000Y-12528000D02*
X7930000Y-12558000D01*
X7936000Y-14158000D02*
X7966000Y-14188000D01*
X7966000Y-14158000D02*
X7936000Y-14188000D01*
X7950000Y-6740000D02*
X7980000Y-6770000D01*
X7980000Y-6740000D02*
X7950000Y-6770000D01*
X7958000Y-12978000D02*
X7988000Y-13008000D01*
X7988000Y-12978000D02*
X7958000Y-13008000D01*
X7960000Y-6650000D02*
X7990000Y-6680000D01*
X7990000Y-6650000D02*
X7960000Y-6680000D01*
X7960000Y-7134000D02*
X7990000Y-7164000D01*
X7990000Y-7134000D02*
X7960000Y-7164000D01*
X7967000Y-7362000D02*
X7997000Y-7392000D01*
X7997000Y-7362000D02*
X7967000Y-7392000D01*
X7969000Y-14786000D02*
X7999000Y-14816000D01*
X7999000Y-14786000D02*
X7969000Y-14816000D01*
X7970000Y-6980000D02*
X8000000Y-7010000D01*
X8000000Y-6980000D02*
X7970000Y-7010000D01*
X7971000Y-13519000D02*
X8001000Y-13549000D01*
X8001000Y-13519000D02*
X7971000Y-13549000D01*
X8070000Y-6345000D02*
X8100000Y-6375000D01*
X8100000Y-6345000D02*
X8070000Y-6375000D01*
X8070000Y-6435000D02*
X8100000Y-6465000D01*
X8100000Y-6435000D02*
X8070000Y-6465000D01*
X8070000Y-6535000D02*
X8100000Y-6565000D01*
X8100000Y-6535000D02*
X8070000Y-6565000D01*
X8080000Y-5755000D02*
X8110000Y-5785000D01*
X8110000Y-5755000D02*
X8080000Y-5785000D01*
X8080000Y-6970000D02*
X8110000Y-7000000D01*
X8110000Y-6970000D02*
X8080000Y-7000000D01*
X8127000Y-6746000D02*
X8157000Y-6776000D01*
X8157000Y-6746000D02*
X8127000Y-6776000D01*
X8180000Y-5880000D02*
X8210000Y-5910000D01*
X8210000Y-5880000D02*
X8180000Y-5910000D01*
X8262000Y-10619000D02*
X8292000Y-10649000D01*
X8292000Y-10619000D02*
X8262000Y-10649000D01*
X8310000Y-6967000D02*
X8340000Y-6997000D01*
X8340000Y-6967000D02*
X8310000Y-6997000D01*
X8337000Y-6749000D02*
X8367000Y-6779000D01*
X8367000Y-6749000D02*
X8337000Y-6779000D01*
X8413000Y-6967000D02*
X8443000Y-6997000D01*
X8443000Y-6967000D02*
X8413000Y-6997000D01*
X8528333Y-9400000D02*
X8558333Y-9430000D01*
X8558333Y-9400000D02*
X8528333Y-9430000D01*
X8528333Y-9650000D02*
X8558333Y-9680000D01*
X8558333Y-9650000D02*
X8528333Y-9680000D01*
X8536000Y-7104000D02*
X8566000Y-7134000D01*
X8566000Y-7104000D02*
X8536000Y-7134000D01*
X8546000Y-6749000D02*
X8576000Y-6779000D01*
X8576000Y-6749000D02*
X8546000Y-6779000D01*
X8548000Y-14786000D02*
X8578000Y-14816000D01*
X8578000Y-14786000D02*
X8548000Y-14816000D01*
X8551000Y-6478000D02*
X8581000Y-6508000D01*
X8581000Y-6478000D02*
X8551000Y-6508000D01*
X8646000Y-11405000D02*
X8676000Y-11435000D01*
X8676000Y-11405000D02*
X8646000Y-11435000D01*
X8836000Y-12128000D02*
X8866000Y-12158000D01*
X8866000Y-12128000D02*
X8836000Y-12158000D01*
X8885000Y-14144000D02*
X8915000Y-14174000D01*
X8915000Y-14144000D02*
X8885000Y-14174000D01*
X8920000Y-13505000D02*
X8950000Y-13535000D01*
X8950000Y-13505000D02*
X8920000Y-13535000D01*
X8943000Y-7197000D02*
X8973000Y-7227000D01*
X8973000Y-7197000D02*
X8943000Y-7227000D01*
X8948000Y-6517000D02*
X8978000Y-6547000D01*
X8978000Y-6517000D02*
X8948000Y-6547000D01*
X8957000Y-10598000D02*
X8987000Y-10628000D01*
X8987000Y-10598000D02*
X8957000Y-10628000D01*
X9085000Y-7204000D02*
X9115000Y-7234000D01*
X9115000Y-7204000D02*
X9085000Y-7234000D01*
X9122000Y-14786000D02*
X9152000Y-14816000D01*
X9152000Y-14786000D02*
X9122000Y-14816000D01*
X9161667Y-9400000D02*
X9191667Y-9430000D01*
X9191667Y-9400000D02*
X9161667Y-9430000D01*
X9161667Y-9650000D02*
X9191667Y-9680000D01*
X9191667Y-9650000D02*
X9161667Y-9680000D01*
X9251000Y-13055000D02*
X9281000Y-13085000D01*
X9281000Y-13055000D02*
X9251000Y-13085000D01*
X9265000Y-12521000D02*
X9295000Y-12551000D01*
X9295000Y-12521000D02*
X9265000Y-12551000D01*
X9366000Y-7322000D02*
X9396000Y-7352000D01*
X9396000Y-7322000D02*
X9366000Y-7352000D01*
X9456000Y-6474000D02*
X9486000Y-6504000D01*
X9486000Y-6474000D02*
X9456000Y-6504000D01*
X9461000Y-11412000D02*
X9491000Y-11442000D01*
X9491000Y-11412000D02*
X9461000Y-11442000D01*
X9467000Y-6722000D02*
X9497000Y-6752000D01*
X9497000Y-6722000D02*
X9467000Y-6752000D01*
X9484000Y-10619000D02*
X9514000Y-10649000D01*
X9514000Y-10619000D02*
X9484000Y-10649000D01*
X9525000Y-12121000D02*
X9555000Y-12151000D01*
X9555000Y-12121000D02*
X9525000Y-12151000D01*
X9574000Y-14137000D02*
X9604000Y-14167000D01*
X9604000Y-14137000D02*
X9574000Y-14167000D01*
X9609000Y-13498000D02*
X9639000Y-13528000D01*
X9639000Y-13498000D02*
X9609000Y-13528000D01*
X9708000Y-14786000D02*
X9738000Y-14816000D01*
X9738000Y-14786000D02*
X9708000Y-14816000D01*
X9795000Y-9400000D02*
X9825000Y-9430000D01*
X9825000Y-9400000D02*
X9795000Y-9430000D01*
X9795000Y-9650000D02*
X9825000Y-9680000D01*
X9825000Y-9650000D02*
X9795000Y-9680000D01*
X9850000Y-12986000D02*
X9880000Y-13016000D01*
X9880000Y-12986000D02*
X9850000Y-13016000D01*
X10068000Y-12766000D02*
X10098000Y-12796000D01*
X10098000Y-12766000D02*
X10068000Y-12796000D01*
X10078000Y-13183000D02*
X10108000Y-13213000D01*
X10108000Y-13183000D02*
X10078000Y-13213000D01*
X10152000Y-10619000D02*
X10182000Y-10649000D01*
X10182000Y-10619000D02*
X10152000Y-10649000D01*
X10332000Y-11390000D02*
X10362000Y-11420000D01*
X10362000Y-11390000D02*
X10332000Y-11420000D01*
X10337000Y-7344000D02*
X10367000Y-7374000D01*
X10367000Y-7344000D02*
X10337000Y-7374000D01*
X10340000Y-7081000D02*
X10370000Y-7111000D01*
X10370000Y-7081000D02*
X10340000Y-7111000D01*
X10424000Y-12142000D02*
X10454000Y-12172000D01*
X10454000Y-12142000D02*
X10424000Y-12172000D01*
X10428333Y-9400000D02*
X10458333Y-9430000D01*
X10458333Y-9400000D02*
X10428333Y-9430000D01*
X10428333Y-9650000D02*
X10458333Y-9680000D01*
X10458333Y-9650000D02*
X10428333Y-9680000D01*
X10434000Y-14774000D02*
X10464000Y-14804000D01*
X10464000Y-14774000D02*
X10434000Y-14804000D01*
X10473000Y-14158000D02*
X10503000Y-14188000D01*
X10503000Y-14158000D02*
X10473000Y-14188000D01*
X10488000Y-7509000D02*
X10518000Y-7539000D01*
X10518000Y-7509000D02*
X10488000Y-7539000D01*
X10508000Y-13519000D02*
X10538000Y-13549000D01*
X10538000Y-13519000D02*
X10508000Y-13549000D01*
X10525000Y-12859000D02*
X10555000Y-12889000D01*
X10555000Y-12859000D02*
X10525000Y-12889000D01*
X10527000Y-13104000D02*
X10557000Y-13134000D01*
X10557000Y-13104000D02*
X10527000Y-13134000D01*
X10730000Y-7817000D02*
X10760000Y-7847000D01*
X10760000Y-7817000D02*
X10730000Y-7847000D01*
X10737000Y-10626000D02*
X10767000Y-10656000D01*
X10767000Y-10626000D02*
X10737000Y-10656000D01*
X10749000Y-7139000D02*
X10779000Y-7169000D01*
X10779000Y-7139000D02*
X10749000Y-7169000D01*
X10857000Y-7121000D02*
X10887000Y-7151000D01*
X10887000Y-7121000D02*
X10857000Y-7151000D01*
X10864000Y-7803000D02*
X10894000Y-7833000D01*
X10894000Y-7803000D02*
X10864000Y-7833000D01*
X10878000Y-13135000D02*
X10908000Y-13165000D01*
X10908000Y-13135000D02*
X10878000Y-13165000D01*
X10973000Y-12828000D02*
X11003000Y-12858000D01*
X11003000Y-12828000D02*
X10973000Y-12858000D01*
X11049000Y-14792000D02*
X11079000Y-14822000D01*
X11079000Y-14792000D02*
X11049000Y-14822000D01*
X11061667Y-9400000D02*
X11091667Y-9430000D01*
X11091667Y-9400000D02*
X11061667Y-9430000D01*
X11061667Y-9650000D02*
X11091667Y-9680000D01*
X11091667Y-9650000D02*
X11061667Y-9680000D01*
X11176000Y-12142000D02*
X11206000Y-12172000D01*
X11206000Y-12142000D02*
X11176000Y-12172000D01*
X11225000Y-14158000D02*
X11255000Y-14188000D01*
X11255000Y-14158000D02*
X11225000Y-14188000D01*
X11255000Y-7064000D02*
X11285000Y-7094000D01*
X11285000Y-7064000D02*
X11255000Y-7094000D01*
X11260000Y-13519000D02*
X11290000Y-13549000D01*
X11290000Y-13519000D02*
X11260000Y-13549000D01*
X11282000Y-12821000D02*
X11312000Y-12851000D01*
X11312000Y-12821000D02*
X11282000Y-12851000D01*
X11290000Y-13131000D02*
X11320000Y-13161000D01*
X11320000Y-13131000D02*
X11290000Y-13161000D01*
X11295000Y-7343000D02*
X11325000Y-7373000D01*
X11325000Y-7343000D02*
X11295000Y-7373000D01*
X11316000Y-11383000D02*
X11346000Y-11413000D01*
X11346000Y-11383000D02*
X11316000Y-11413000D01*
X11353000Y-10626000D02*
X11383000Y-10656000D01*
X11383000Y-10626000D02*
X11353000Y-10656000D01*
X11386000Y-7586000D02*
X11416000Y-7616000D01*
X11416000Y-7586000D02*
X11386000Y-7616000D01*
X11491000Y-7586000D02*
X11521000Y-7616000D01*
X11521000Y-7586000D02*
X11491000Y-7616000D01*
X11570000Y-12764000D02*
X11600000Y-12794000D01*
X11600000Y-12764000D02*
X11570000Y-12794000D01*
X11580000Y-13190000D02*
X11610000Y-13220000D01*
X11610000Y-13190000D02*
X11580000Y-13220000D01*
X11614000Y-6748000D02*
X11644000Y-6778000D01*
X11644000Y-6748000D02*
X11614000Y-6778000D01*
X11614000Y-7343000D02*
X11644000Y-7373000D01*
X11644000Y-7343000D02*
X11614000Y-7373000D01*
X11695000Y-9400000D02*
X11725000Y-9430000D01*
X11725000Y-9400000D02*
X11695000Y-9430000D01*
X11695000Y-9650000D02*
X11725000Y-9680000D01*
X11725000Y-9650000D02*
X11695000Y-9680000D01*
X11736000Y-14149000D02*
X11766000Y-14179000D01*
X11766000Y-14149000D02*
X11736000Y-14179000D01*
X11739000Y-14786000D02*
X11769000Y-14816000D01*
X11769000Y-14786000D02*
X11739000Y-14816000D01*
X11744000Y-14460000D02*
X11774000Y-14490000D01*
X11774000Y-14460000D02*
X11744000Y-14490000D01*
X11745000Y-7578000D02*
X11775000Y-7608000D01*
X11775000Y-7578000D02*
X11745000Y-7608000D01*
X11764000Y-6463000D02*
X11794000Y-6493000D01*
X11794000Y-6463000D02*
X11764000Y-6493000D01*
X11773000Y-6213000D02*
X11803000Y-6243000D01*
X11803000Y-6213000D02*
X11773000Y-6243000D01*
X11782000Y-6922000D02*
X11812000Y-6952000D01*
X11812000Y-6922000D02*
X11782000Y-6952000D01*
X11804000Y-11158000D02*
X11834000Y-11188000D01*
X11834000Y-11158000D02*
X11804000Y-11188000D01*
X11805000Y-10889000D02*
X11835000Y-10919000D01*
X11835000Y-10889000D02*
X11805000Y-10919000D01*
X11812000Y-13908000D02*
X11842000Y-13938000D01*
X11842000Y-13908000D02*
X11812000Y-13938000D01*
X11816000Y-10637000D02*
X11846000Y-10667000D01*
X11846000Y-10637000D02*
X11816000Y-10667000D01*
X11818000Y-11440000D02*
X11848000Y-11470000D01*
X11848000Y-11440000D02*
X11818000Y-11470000D01*
X11818000Y-11784000D02*
X11848000Y-11814000D01*
X11848000Y-11784000D02*
X11818000Y-11814000D01*
X11829000Y-13691000D02*
X11859000Y-13721000D01*
X11859000Y-13691000D02*
X11829000Y-13721000D01*
X11832000Y-12135000D02*
X11862000Y-12165000D01*
X11862000Y-12135000D02*
X11832000Y-12165000D01*
X11832000Y-12451000D02*
X11862000Y-12481000D01*
X11862000Y-12451000D02*
X11832000Y-12481000D01*
X11835000Y-12700000D02*
X11865000Y-12730000D01*
X11865000Y-12700000D02*
X11835000Y-12730000D01*
X11849000Y-13461000D02*
X11879000Y-13491000D01*
X11879000Y-13461000D02*
X11849000Y-13491000D01*
X11863000Y-13253000D02*
X11893000Y-13283000D01*
X11893000Y-13253000D02*
X11863000Y-13283000D01*
X11873000Y-7342000D02*
X11903000Y-7372000D01*
X11903000Y-7342000D02*
X11873000Y-7372000D01*
X11881000Y-6926000D02*
X11911000Y-6956000D01*
X11911000Y-6926000D02*
X11881000Y-6956000D01*
X11884000Y-7579000D02*
X11914000Y-7609000D01*
X11914000Y-7579000D02*
X11884000Y-7609000D01*
X12056000Y-6929000D02*
X12086000Y-6959000D01*
X12086000Y-6929000D02*
X12056000Y-6959000D01*
X12087000Y-6221000D02*
X12117000Y-6251000D01*
X12117000Y-6221000D02*
X12087000Y-6251000D01*
X12087000Y-6472000D02*
X12117000Y-6502000D01*
X12117000Y-6472000D02*
X12087000Y-6502000D01*
X12115000Y-7240000D02*
X12145000Y-7270000D01*
X12145000Y-7240000D02*
X12115000Y-7270000D01*
X12130000Y-7345000D02*
X12160000Y-7375000D01*
X12160000Y-7345000D02*
X12130000Y-7375000D01*
X12157000Y-7583000D02*
X12187000Y-7613000D01*
X12187000Y-7583000D02*
X12157000Y-7613000D01*
X12202000Y-7784000D02*
X12232000Y-7814000D01*
X12232000Y-7784000D02*
X12202000Y-7814000D01*
X12202000Y-7994000D02*
X12232000Y-8024000D01*
X12232000Y-7994000D02*
X12202000Y-8024000D01*
X12253000Y-7584000D02*
X12283000Y-7614000D01*
X12283000Y-7584000D02*
X12253000Y-7614000D01*
X12303000Y-7078000D02*
X12333000Y-7108000D01*
X12333000Y-7078000D02*
X12303000Y-7108000D01*
X12328333Y-9400000D02*
X12358333Y-9430000D01*
X12358333Y-9400000D02*
X12328333Y-9430000D01*
X12328333Y-9650000D02*
X12358333Y-9680000D01*
X12358333Y-9650000D02*
X12328333Y-9680000D01*
X12380000Y-8070000D02*
X12410000Y-8100000D01*
X12410000Y-8070000D02*
X12380000Y-8100000D01*
X12500000Y-7370000D02*
X12530000Y-7400000D01*
X12530000Y-7370000D02*
X12500000Y-7400000D01*
X12504000Y-7496000D02*
X12534000Y-7526000D01*
X12534000Y-7496000D02*
X12504000Y-7526000D01*
X12505000Y-7600000D02*
X12535000Y-7630000D01*
X12535000Y-7600000D02*
X12505000Y-7630000D01*
X12525000Y-8070000D02*
X12555000Y-8100000D01*
X12555000Y-8070000D02*
X12525000Y-8100000D01*
X12543000Y-7147000D02*
X12573000Y-7177000D01*
X12573000Y-7147000D02*
X12543000Y-7177000D01*
X12555000Y-7700000D02*
X12585000Y-7730000D01*
X12585000Y-7700000D02*
X12555000Y-7730000D01*
X12560000Y-7065000D02*
X12590000Y-7095000D01*
X12590000Y-7065000D02*
X12560000Y-7095000D01*
X12600000Y-6450000D02*
X12630000Y-6480000D01*
X12630000Y-6450000D02*
X12600000Y-6480000D01*
X12608000Y-7367000D02*
X12638000Y-7397000D01*
X12638000Y-7367000D02*
X12608000Y-7397000D01*
X12625000Y-6745000D02*
X12655000Y-6775000D01*
X12655000Y-6745000D02*
X12625000Y-6775000D01*
X12632000Y-6928000D02*
X12662000Y-6958000D01*
X12662000Y-6928000D02*
X12632000Y-6958000D01*
X12640000Y-7810000D02*
X12670000Y-7840000D01*
X12670000Y-7810000D02*
X12640000Y-7840000D01*
X12680000Y-7975000D02*
X12710000Y-8005000D01*
X12710000Y-7975000D02*
X12680000Y-8005000D01*
X12746000Y-7123000D02*
X12776000Y-7153000D01*
X12776000Y-7123000D02*
X12746000Y-7153000D01*
X12894000Y-7367000D02*
X12924000Y-7397000D01*
X12924000Y-7367000D02*
X12894000Y-7397000D01*
X12961667Y-9400000D02*
X12991667Y-9430000D01*
X12991667Y-9400000D02*
X12961667Y-9430000D01*
X12961667Y-9650000D02*
X12991667Y-9680000D01*
X12991667Y-9650000D02*
X12961667Y-9680000D01*
X12965000Y-7124000D02*
X12995000Y-7154000D01*
X12995000Y-7124000D02*
X12965000Y-7154000D01*
X12995000Y-6555000D02*
X13025000Y-6585000D01*
X13025000Y-6555000D02*
X12995000Y-6585000D01*
X13089000Y-7102000D02*
X13119000Y-7132000D01*
X13119000Y-7102000D02*
X13089000Y-7132000D01*
X13093000Y-7617000D02*
X13123000Y-7647000D01*
X13123000Y-7617000D02*
X13093000Y-7647000D01*
X13094000Y-6850000D02*
X13124000Y-6880000D01*
X13124000Y-6850000D02*
X13094000Y-6880000D01*
X13199000Y-7703000D02*
X13229000Y-7733000D01*
X13229000Y-7703000D02*
X13199000Y-7733000D01*
X13448000Y-6887000D02*
X13478000Y-6917000D01*
X13478000Y-6887000D02*
X13448000Y-6917000D01*
X13482000Y-7586000D02*
X13512000Y-7616000D01*
X13512000Y-7586000D02*
X13482000Y-7616000D01*
X13633000Y-7673000D02*
X13663000Y-7703000D01*
X13663000Y-7673000D02*
X13633000Y-7703000D01*
X13888000Y-7165000D02*
X13918000Y-7195000D01*
X13918000Y-7165000D02*
X13888000Y-7195000D01*
X13968000Y-7667000D02*
X13998000Y-7697000D01*
X13998000Y-7667000D02*
X13968000Y-7697000D01*
X13971000Y-7312000D02*
X14001000Y-7342000D01*
X14001000Y-7312000D02*
X13971000Y-7342000D01*
X13998000Y-6812000D02*
X14028000Y-6842000D01*
X14028000Y-6812000D02*
X13998000Y-6842000D01*
X7462500Y-5660000D02*
G75*
G02*
X7377500Y-5660000I-42500J0D01*
G01*
X7377500Y-5660000D02*
G75*
G02*
X7462500Y-5660000I42500J0D01*
G01*
X7882500Y-5660000D02*
G75*
G02*
X7797500Y-5660000I-42500J0D01*
G01*
X7797500Y-5660000D02*
G75*
G02*
X7882500Y-5660000I42500J0D01*
G01*
X11983750Y-6364000D02*
G75*
G02*
X11898750Y-6364000I-42500J0D01*
G01*
X11898750Y-6364000D02*
G75*
G02*
X11983750Y-6364000I42500J0D01*
G01*
X12403750Y-6364000D02*
G75*
G02*
X12318750Y-6364000I-42500J0D01*
G01*
X12318750Y-6364000D02*
G75*
G02*
X12403750Y-6364000I42500J0D01*
G01*
D12*
X5755000Y-9215000D02*
X5755000Y-9355000D01*
X5685000Y-9285000D02*
X5825000Y-9285000D01*
X5755000Y-9725000D02*
X5755000Y-9865000D01*
X5685000Y-9795000D02*
X5825000Y-9795000D01*
X5962500Y-7080000D02*
X5962500Y-7220000D01*
X5892500Y-7150000D02*
X6032500Y-7150000D01*
X5962500Y-7590000D02*
X5962500Y-7730000D01*
X5892500Y-7660000D02*
X6032500Y-7660000D01*
X6010000Y-9470000D02*
X6010000Y-9610000D01*
X5940000Y-9540000D02*
X6080000Y-9540000D01*
X6217500Y-7335000D02*
X6217500Y-7475000D01*
X6147500Y-7405000D02*
X6287500Y-7405000D01*
X6265000Y-9215000D02*
X6265000Y-9355000D01*
X6195000Y-9285000D02*
X6335000Y-9285000D01*
X6265000Y-9725000D02*
X6265000Y-9865000D01*
X6195000Y-9795000D02*
X6335000Y-9795000D01*
X6472500Y-7080000D02*
X6472500Y-7220000D01*
X6402500Y-7150000D02*
X6542500Y-7150000D01*
X6472500Y-7590000D02*
X6472500Y-7730000D01*
X6402500Y-7660000D02*
X6542500Y-7660000D01*
X8767000Y-6548000D02*
X8767000Y-6688000D01*
X8697000Y-6618000D02*
X8837000Y-6618000D01*
X8767000Y-7058000D02*
X8767000Y-7198000D01*
X8697000Y-7128000D02*
X8837000Y-7128000D01*
X9022000Y-6803000D02*
X9022000Y-6943000D01*
X8952000Y-6873000D02*
X9092000Y-6873000D01*
X9277000Y-6548000D02*
X9277000Y-6688000D01*
X9207000Y-6618000D02*
X9347000Y-6618000D01*
X9277000Y-7058000D02*
X9277000Y-7198000D01*
X9207000Y-7128000D02*
X9347000Y-7128000D01*
X9827500Y-12665000D02*
X9827500Y-12805000D01*
X9757500Y-12735000D02*
X9897500Y-12735000D01*
X9827500Y-13175000D02*
X9827500Y-13315000D01*
X9757500Y-13245000D02*
X9897500Y-13245000D01*
X10082500Y-12920000D02*
X10082500Y-13060000D01*
X10012500Y-12990000D02*
X10152500Y-12990000D01*
X10337500Y-12665000D02*
X10337500Y-12805000D01*
X10267500Y-12735000D02*
X10407500Y-12735000D01*
X10337500Y-13175000D02*
X10337500Y-13315000D01*
X10267500Y-13245000D02*
X10407500Y-13245000D01*
X10552500Y-7155000D02*
X10552500Y-7295000D01*
X10482500Y-7225000D02*
X10622500Y-7225000D01*
X10552500Y-7665000D02*
X10552500Y-7805000D01*
X10482500Y-7735000D02*
X10622500Y-7735000D01*
X10807500Y-7410000D02*
X10807500Y-7550000D01*
X10737500Y-7480000D02*
X10877500Y-7480000D01*
X11062500Y-7155000D02*
X11062500Y-7295000D01*
X10992500Y-7225000D02*
X11132500Y-7225000D01*
X11062500Y-7665000D02*
X11062500Y-7805000D01*
X10992500Y-7735000D02*
X11132500Y-7735000D01*
X13300000Y-6932500D02*
X13300000Y-7072500D01*
X13230000Y-7002500D02*
X13370000Y-7002500D01*
X13300000Y-7442500D02*
X13300000Y-7582500D01*
X13230000Y-7512500D02*
X13370000Y-7512500D01*
X13360000Y-9210000D02*
X13360000Y-9350000D01*
X13290000Y-9280000D02*
X13430000Y-9280000D01*
X13360000Y-9720000D02*
X13360000Y-9860000D01*
X13290000Y-9790000D02*
X13430000Y-9790000D01*
X13555000Y-7187500D02*
X13555000Y-7327500D01*
X13485000Y-7257500D02*
X13625000Y-7257500D01*
X13615000Y-9465000D02*
X13615000Y-9605000D01*
X13545000Y-9535000D02*
X13685000Y-9535000D01*
X13810000Y-6932500D02*
X13810000Y-7072500D01*
X13740000Y-7002500D02*
X13880000Y-7002500D01*
X13810000Y-7442500D02*
X13810000Y-7582500D01*
X13740000Y-7512500D02*
X13880000Y-7512500D01*
X13870000Y-9210000D02*
X13870000Y-9350000D01*
X13800000Y-9280000D02*
X13940000Y-9280000D01*
X13870000Y-9720000D02*
X13870000Y-9860000D01*
X13800000Y-9790000D02*
X13940000Y-9790000D01*
D10*
X5250777Y-15321484D02*
X5250777Y-15121484D01*
X5250777Y-15121484D02*
X5298396Y-15121484D01*
X5298396Y-15121484D02*
X5326967Y-15131008D01*
X5326967Y-15131008D02*
X5346015Y-15150055D01*
X5346015Y-15150055D02*
X5355539Y-15169103D01*
X5355539Y-15169103D02*
X5365063Y-15207198D01*
X5365063Y-15207198D02*
X5365063Y-15235769D01*
X5365063Y-15235769D02*
X5355539Y-15273865D01*
X5355539Y-15273865D02*
X5346015Y-15292912D01*
X5346015Y-15292912D02*
X5326967Y-15311960D01*
X5326967Y-15311960D02*
X5298396Y-15321484D01*
X5298396Y-15321484D02*
X5250777Y-15321484D01*
X5450777Y-15321484D02*
X5450777Y-15188150D01*
X5450777Y-15226246D02*
X5460301Y-15207198D01*
X5460301Y-15207198D02*
X5469824Y-15197674D01*
X5469824Y-15197674D02*
X5488872Y-15188150D01*
X5488872Y-15188150D02*
X5507920Y-15188150D01*
X5574586Y-15321484D02*
X5574586Y-15188150D01*
X5574586Y-15121484D02*
X5565063Y-15131008D01*
X5565063Y-15131008D02*
X5574586Y-15140531D01*
X5574586Y-15140531D02*
X5584110Y-15131008D01*
X5584110Y-15131008D02*
X5574586Y-15121484D01*
X5574586Y-15121484D02*
X5574586Y-15140531D01*
X5698396Y-15321484D02*
X5679348Y-15311960D01*
X5679348Y-15311960D02*
X5669824Y-15292912D01*
X5669824Y-15292912D02*
X5669824Y-15121484D01*
X5803158Y-15321484D02*
X5784110Y-15311960D01*
X5784110Y-15311960D02*
X5774586Y-15292912D01*
X5774586Y-15292912D02*
X5774586Y-15121484D01*
X6031729Y-15321484D02*
X6031729Y-15121484D01*
X6031729Y-15121484D02*
X6098396Y-15264341D01*
X6098396Y-15264341D02*
X6165062Y-15121484D01*
X6165062Y-15121484D02*
X6165062Y-15321484D01*
X6346015Y-15321484D02*
X6346015Y-15216722D01*
X6346015Y-15216722D02*
X6336491Y-15197674D01*
X6336491Y-15197674D02*
X6317443Y-15188150D01*
X6317443Y-15188150D02*
X6279348Y-15188150D01*
X6279348Y-15188150D02*
X6260301Y-15197674D01*
X6346015Y-15311960D02*
X6326967Y-15321484D01*
X6326967Y-15321484D02*
X6279348Y-15321484D01*
X6279348Y-15321484D02*
X6260301Y-15311960D01*
X6260301Y-15311960D02*
X6250777Y-15292912D01*
X6250777Y-15292912D02*
X6250777Y-15273865D01*
X6250777Y-15273865D02*
X6260301Y-15254817D01*
X6260301Y-15254817D02*
X6279348Y-15245293D01*
X6279348Y-15245293D02*
X6326967Y-15245293D01*
X6326967Y-15245293D02*
X6346015Y-15235769D01*
X6441253Y-15188150D02*
X6441253Y-15388150D01*
X6441253Y-15197674D02*
X6460301Y-15188150D01*
X6460301Y-15188150D02*
X6498396Y-15188150D01*
X6498396Y-15188150D02*
X6517443Y-15197674D01*
X6517443Y-15197674D02*
X6526967Y-15207198D01*
X6526967Y-15207198D02*
X6536491Y-15226246D01*
X6536491Y-15226246D02*
X6536491Y-15283388D01*
X6536491Y-15283388D02*
X6526967Y-15302436D01*
X6526967Y-15302436D02*
X6517443Y-15311960D01*
X6517443Y-15311960D02*
X6498396Y-15321484D01*
X6498396Y-15321484D02*
X6460301Y-15321484D01*
X6460301Y-15321484D02*
X6441253Y-15311960D01*
X6622205Y-15302436D02*
X6631729Y-15311960D01*
X6631729Y-15311960D02*
X6622205Y-15321484D01*
X6622205Y-15321484D02*
X6612682Y-15311960D01*
X6612682Y-15311960D02*
X6622205Y-15302436D01*
X6622205Y-15302436D02*
X6622205Y-15321484D01*
X6622205Y-15197674D02*
X6631729Y-15207198D01*
X6631729Y-15207198D02*
X6622205Y-15216722D01*
X6622205Y-15216722D02*
X6612682Y-15207198D01*
X6612682Y-15207198D02*
X6622205Y-15197674D01*
X6622205Y-15197674D02*
X6622205Y-15216722D01*
D11*
X4960000Y-15635000D02*
X4990000Y-15665000D01*
X4990000Y-15635000D02*
X4960000Y-15665000D01*
D10*
X5288872Y-15541484D02*
X5307920Y-15541484D01*
X5307920Y-15541484D02*
X5326967Y-15551008D01*
X5326967Y-15551008D02*
X5336491Y-15560531D01*
X5336491Y-15560531D02*
X5346015Y-15579579D01*
X5346015Y-15579579D02*
X5355539Y-15617674D01*
X5355539Y-15617674D02*
X5355539Y-15665293D01*
X5355539Y-15665293D02*
X5346015Y-15703388D01*
X5346015Y-15703388D02*
X5336491Y-15722436D01*
X5336491Y-15722436D02*
X5326967Y-15731960D01*
X5326967Y-15731960D02*
X5307920Y-15741484D01*
X5307920Y-15741484D02*
X5288872Y-15741484D01*
X5288872Y-15741484D02*
X5269824Y-15731960D01*
X5269824Y-15731960D02*
X5260301Y-15722436D01*
X5260301Y-15722436D02*
X5250777Y-15703388D01*
X5250777Y-15703388D02*
X5241253Y-15665293D01*
X5241253Y-15665293D02*
X5241253Y-15617674D01*
X5241253Y-15617674D02*
X5250777Y-15579579D01*
X5250777Y-15579579D02*
X5260301Y-15560531D01*
X5260301Y-15560531D02*
X5269824Y-15551008D01*
X5269824Y-15551008D02*
X5288872Y-15541484D01*
X5441253Y-15722436D02*
X5450777Y-15731960D01*
X5450777Y-15731960D02*
X5441253Y-15741484D01*
X5441253Y-15741484D02*
X5431729Y-15731960D01*
X5431729Y-15731960D02*
X5441253Y-15722436D01*
X5441253Y-15722436D02*
X5441253Y-15741484D01*
X5517444Y-15541484D02*
X5641253Y-15541484D01*
X5641253Y-15541484D02*
X5574586Y-15617674D01*
X5574586Y-15617674D02*
X5603158Y-15617674D01*
X5603158Y-15617674D02*
X5622205Y-15627198D01*
X5622205Y-15627198D02*
X5631729Y-15636722D01*
X5631729Y-15636722D02*
X5641253Y-15655769D01*
X5641253Y-15655769D02*
X5641253Y-15703388D01*
X5641253Y-15703388D02*
X5631729Y-15722436D01*
X5631729Y-15722436D02*
X5622205Y-15731960D01*
X5622205Y-15731960D02*
X5603158Y-15741484D01*
X5603158Y-15741484D02*
X5546015Y-15741484D01*
X5546015Y-15741484D02*
X5526967Y-15731960D01*
X5526967Y-15731960D02*
X5517444Y-15722436D01*
X5765062Y-15541484D02*
X5784110Y-15541484D01*
X5784110Y-15541484D02*
X5803158Y-15551008D01*
X5803158Y-15551008D02*
X5812682Y-15560531D01*
X5812682Y-15560531D02*
X5822205Y-15579579D01*
X5822205Y-15579579D02*
X5831729Y-15617674D01*
X5831729Y-15617674D02*
X5831729Y-15665293D01*
X5831729Y-15665293D02*
X5822205Y-15703388D01*
X5822205Y-15703388D02*
X5812682Y-15722436D01*
X5812682Y-15722436D02*
X5803158Y-15731960D01*
X5803158Y-15731960D02*
X5784110Y-15741484D01*
X5784110Y-15741484D02*
X5765062Y-15741484D01*
X5765062Y-15741484D02*
X5746015Y-15731960D01*
X5746015Y-15731960D02*
X5736491Y-15722436D01*
X5736491Y-15722436D02*
X5726967Y-15703388D01*
X5726967Y-15703388D02*
X5717443Y-15665293D01*
X5717443Y-15665293D02*
X5717443Y-15617674D01*
X5717443Y-15617674D02*
X5726967Y-15579579D01*
X5726967Y-15579579D02*
X5736491Y-15560531D01*
X5736491Y-15560531D02*
X5746015Y-15551008D01*
X5746015Y-15551008D02*
X5765062Y-15541484D01*
X5955539Y-15541484D02*
X5974586Y-15541484D01*
X5974586Y-15541484D02*
X5993634Y-15551008D01*
X5993634Y-15551008D02*
X6003158Y-15560531D01*
X6003158Y-15560531D02*
X6012682Y-15579579D01*
X6012682Y-15579579D02*
X6022205Y-15617674D01*
X6022205Y-15617674D02*
X6022205Y-15665293D01*
X6022205Y-15665293D02*
X6012682Y-15703388D01*
X6012682Y-15703388D02*
X6003158Y-15722436D01*
X6003158Y-15722436D02*
X5993634Y-15731960D01*
X5993634Y-15731960D02*
X5974586Y-15741484D01*
X5974586Y-15741484D02*
X5955539Y-15741484D01*
X5955539Y-15741484D02*
X5936491Y-15731960D01*
X5936491Y-15731960D02*
X5926967Y-15722436D01*
X5926967Y-15722436D02*
X5917443Y-15703388D01*
X5917443Y-15703388D02*
X5907920Y-15665293D01*
X5907920Y-15665293D02*
X5907920Y-15617674D01*
X5907920Y-15617674D02*
X5917443Y-15579579D01*
X5917443Y-15579579D02*
X5926967Y-15560531D01*
X5926967Y-15560531D02*
X5936491Y-15551008D01*
X5936491Y-15551008D02*
X5955539Y-15541484D01*
X6107920Y-15741484D02*
X6107920Y-15608150D01*
X6107920Y-15627198D02*
X6117443Y-15617674D01*
X6117443Y-15617674D02*
X6136491Y-15608150D01*
X6136491Y-15608150D02*
X6165063Y-15608150D01*
X6165063Y-15608150D02*
X6184110Y-15617674D01*
X6184110Y-15617674D02*
X6193634Y-15636722D01*
X6193634Y-15636722D02*
X6193634Y-15741484D01*
X6193634Y-15636722D02*
X6203158Y-15617674D01*
X6203158Y-15617674D02*
X6222205Y-15608150D01*
X6222205Y-15608150D02*
X6250777Y-15608150D01*
X6250777Y-15608150D02*
X6269824Y-15617674D01*
X6269824Y-15617674D02*
X6279348Y-15636722D01*
X6279348Y-15636722D02*
X6279348Y-15741484D01*
X6374586Y-15741484D02*
X6374586Y-15608150D01*
X6374586Y-15627198D02*
X6384110Y-15617674D01*
X6384110Y-15617674D02*
X6403158Y-15608150D01*
X6403158Y-15608150D02*
X6431729Y-15608150D01*
X6431729Y-15608150D02*
X6450777Y-15617674D01*
X6450777Y-15617674D02*
X6460301Y-15636722D01*
X6460301Y-15636722D02*
X6460301Y-15741484D01*
X6460301Y-15636722D02*
X6469824Y-15617674D01*
X6469824Y-15617674D02*
X6488872Y-15608150D01*
X6488872Y-15608150D02*
X6517443Y-15608150D01*
X6517443Y-15608150D02*
X6536491Y-15617674D01*
X6536491Y-15617674D02*
X6546015Y-15636722D01*
X6546015Y-15636722D02*
X6546015Y-15741484D01*
X6936491Y-15531960D02*
X6765063Y-15789103D01*
X7193634Y-15541484D02*
X7212682Y-15541484D01*
X7212682Y-15541484D02*
X7231729Y-15551008D01*
X7231729Y-15551008D02*
X7241253Y-15560531D01*
X7241253Y-15560531D02*
X7250777Y-15579579D01*
X7250777Y-15579579D02*
X7260301Y-15617674D01*
X7260301Y-15617674D02*
X7260301Y-15665293D01*
X7260301Y-15665293D02*
X7250777Y-15703388D01*
X7250777Y-15703388D02*
X7241253Y-15722436D01*
X7241253Y-15722436D02*
X7231729Y-15731960D01*
X7231729Y-15731960D02*
X7212682Y-15741484D01*
X7212682Y-15741484D02*
X7193634Y-15741484D01*
X7193634Y-15741484D02*
X7174586Y-15731960D01*
X7174586Y-15731960D02*
X7165063Y-15722436D01*
X7165063Y-15722436D02*
X7155539Y-15703388D01*
X7155539Y-15703388D02*
X7146015Y-15665293D01*
X7146015Y-15665293D02*
X7146015Y-15617674D01*
X7146015Y-15617674D02*
X7155539Y-15579579D01*
X7155539Y-15579579D02*
X7165063Y-15560531D01*
X7165063Y-15560531D02*
X7174586Y-15551008D01*
X7174586Y-15551008D02*
X7193634Y-15541484D01*
X7346015Y-15722436D02*
X7355539Y-15731960D01*
X7355539Y-15731960D02*
X7346015Y-15741484D01*
X7346015Y-15741484D02*
X7336491Y-15731960D01*
X7336491Y-15731960D02*
X7346015Y-15722436D01*
X7346015Y-15722436D02*
X7346015Y-15741484D01*
X7479348Y-15541484D02*
X7498396Y-15541484D01*
X7498396Y-15541484D02*
X7517444Y-15551008D01*
X7517444Y-15551008D02*
X7526967Y-15560531D01*
X7526967Y-15560531D02*
X7536491Y-15579579D01*
X7536491Y-15579579D02*
X7546015Y-15617674D01*
X7546015Y-15617674D02*
X7546015Y-15665293D01*
X7546015Y-15665293D02*
X7536491Y-15703388D01*
X7536491Y-15703388D02*
X7526967Y-15722436D01*
X7526967Y-15722436D02*
X7517444Y-15731960D01*
X7517444Y-15731960D02*
X7498396Y-15741484D01*
X7498396Y-15741484D02*
X7479348Y-15741484D01*
X7479348Y-15741484D02*
X7460301Y-15731960D01*
X7460301Y-15731960D02*
X7450777Y-15722436D01*
X7450777Y-15722436D02*
X7441253Y-15703388D01*
X7441253Y-15703388D02*
X7431729Y-15665293D01*
X7431729Y-15665293D02*
X7431729Y-15617674D01*
X7431729Y-15617674D02*
X7441253Y-15579579D01*
X7441253Y-15579579D02*
X7450777Y-15560531D01*
X7450777Y-15560531D02*
X7460301Y-15551008D01*
X7460301Y-15551008D02*
X7479348Y-15541484D01*
X7736491Y-15741484D02*
X7622206Y-15741484D01*
X7679348Y-15741484D02*
X7679348Y-15541484D01*
X7679348Y-15541484D02*
X7660301Y-15570055D01*
X7660301Y-15570055D02*
X7641253Y-15589103D01*
X7641253Y-15589103D02*
X7622206Y-15598627D01*
X7926967Y-15741484D02*
X7812682Y-15741484D01*
X7869825Y-15741484D02*
X7869825Y-15541484D01*
X7869825Y-15541484D02*
X7850777Y-15570055D01*
X7850777Y-15570055D02*
X7831729Y-15589103D01*
X7831729Y-15589103D02*
X7812682Y-15598627D01*
X8041253Y-15627198D02*
X8022206Y-15617674D01*
X8022206Y-15617674D02*
X8012682Y-15608150D01*
X8012682Y-15608150D02*
X8003158Y-15589103D01*
X8003158Y-15589103D02*
X8003158Y-15579579D01*
X8003158Y-15579579D02*
X8012682Y-15560531D01*
X8012682Y-15560531D02*
X8022206Y-15551008D01*
X8022206Y-15551008D02*
X8041253Y-15541484D01*
X8041253Y-15541484D02*
X8079348Y-15541484D01*
X8079348Y-15541484D02*
X8098396Y-15551008D01*
X8098396Y-15551008D02*
X8107920Y-15560531D01*
X8107920Y-15560531D02*
X8117444Y-15579579D01*
X8117444Y-15579579D02*
X8117444Y-15589103D01*
X8117444Y-15589103D02*
X8107920Y-15608150D01*
X8107920Y-15608150D02*
X8098396Y-15617674D01*
X8098396Y-15617674D02*
X8079348Y-15627198D01*
X8079348Y-15627198D02*
X8041253Y-15627198D01*
X8041253Y-15627198D02*
X8022206Y-15636722D01*
X8022206Y-15636722D02*
X8012682Y-15646246D01*
X8012682Y-15646246D02*
X8003158Y-15665293D01*
X8003158Y-15665293D02*
X8003158Y-15703388D01*
X8003158Y-15703388D02*
X8012682Y-15722436D01*
X8012682Y-15722436D02*
X8022206Y-15731960D01*
X8022206Y-15731960D02*
X8041253Y-15741484D01*
X8041253Y-15741484D02*
X8079348Y-15741484D01*
X8079348Y-15741484D02*
X8098396Y-15731960D01*
X8098396Y-15731960D02*
X8107920Y-15722436D01*
X8107920Y-15722436D02*
X8117444Y-15703388D01*
X8117444Y-15703388D02*
X8117444Y-15665293D01*
X8117444Y-15665293D02*
X8107920Y-15646246D01*
X8107920Y-15646246D02*
X8098396Y-15636722D01*
X8098396Y-15636722D02*
X8079348Y-15627198D01*
X8193634Y-15541484D02*
X8193634Y-15579579D01*
X8269825Y-15541484D02*
X8269825Y-15579579D01*
X8565063Y-15817674D02*
X8555539Y-15808150D01*
X8555539Y-15808150D02*
X8536491Y-15779579D01*
X8536491Y-15779579D02*
X8526968Y-15760531D01*
X8526968Y-15760531D02*
X8517444Y-15731960D01*
X8517444Y-15731960D02*
X8507920Y-15684341D01*
X8507920Y-15684341D02*
X8507920Y-15646246D01*
X8507920Y-15646246D02*
X8517444Y-15598627D01*
X8517444Y-15598627D02*
X8526968Y-15570055D01*
X8526968Y-15570055D02*
X8536491Y-15551008D01*
X8536491Y-15551008D02*
X8555539Y-15522436D01*
X8555539Y-15522436D02*
X8565063Y-15512912D01*
X8631730Y-15560531D02*
X8641253Y-15551008D01*
X8641253Y-15551008D02*
X8660301Y-15541484D01*
X8660301Y-15541484D02*
X8707920Y-15541484D01*
X8707920Y-15541484D02*
X8726968Y-15551008D01*
X8726968Y-15551008D02*
X8736491Y-15560531D01*
X8736491Y-15560531D02*
X8746015Y-15579579D01*
X8746015Y-15579579D02*
X8746015Y-15598627D01*
X8746015Y-15598627D02*
X8736491Y-15627198D01*
X8736491Y-15627198D02*
X8622206Y-15741484D01*
X8622206Y-15741484D02*
X8746015Y-15741484D01*
X8917444Y-15608150D02*
X8917444Y-15741484D01*
X8869825Y-15531960D02*
X8822206Y-15674817D01*
X8822206Y-15674817D02*
X8946015Y-15674817D01*
X9012682Y-15560531D02*
X9022206Y-15551008D01*
X9022206Y-15551008D02*
X9041253Y-15541484D01*
X9041253Y-15541484D02*
X9088872Y-15541484D01*
X9088872Y-15541484D02*
X9107920Y-15551008D01*
X9107920Y-15551008D02*
X9117444Y-15560531D01*
X9117444Y-15560531D02*
X9126968Y-15579579D01*
X9126968Y-15579579D02*
X9126968Y-15598627D01*
X9126968Y-15598627D02*
X9117444Y-15627198D01*
X9117444Y-15627198D02*
X9003158Y-15741484D01*
X9003158Y-15741484D02*
X9126968Y-15741484D01*
X9365063Y-15741484D02*
X9365063Y-15541484D01*
X9450777Y-15741484D02*
X9450777Y-15636722D01*
X9450777Y-15636722D02*
X9441253Y-15617674D01*
X9441253Y-15617674D02*
X9422206Y-15608150D01*
X9422206Y-15608150D02*
X9393634Y-15608150D01*
X9393634Y-15608150D02*
X9374587Y-15617674D01*
X9374587Y-15617674D02*
X9365063Y-15627198D01*
X9574587Y-15741484D02*
X9555539Y-15731960D01*
X9555539Y-15731960D02*
X9546015Y-15722436D01*
X9546015Y-15722436D02*
X9536492Y-15703388D01*
X9536492Y-15703388D02*
X9536492Y-15646246D01*
X9536492Y-15646246D02*
X9546015Y-15627198D01*
X9546015Y-15627198D02*
X9555539Y-15617674D01*
X9555539Y-15617674D02*
X9574587Y-15608150D01*
X9574587Y-15608150D02*
X9603158Y-15608150D01*
X9603158Y-15608150D02*
X9622206Y-15617674D01*
X9622206Y-15617674D02*
X9631730Y-15627198D01*
X9631730Y-15627198D02*
X9641253Y-15646246D01*
X9641253Y-15646246D02*
X9641253Y-15703388D01*
X9641253Y-15703388D02*
X9631730Y-15722436D01*
X9631730Y-15722436D02*
X9622206Y-15731960D01*
X9622206Y-15731960D02*
X9603158Y-15741484D01*
X9603158Y-15741484D02*
X9574587Y-15741484D01*
X9755539Y-15741484D02*
X9736492Y-15731960D01*
X9736492Y-15731960D02*
X9726968Y-15712912D01*
X9726968Y-15712912D02*
X9726968Y-15541484D01*
X9907920Y-15731960D02*
X9888873Y-15741484D01*
X9888873Y-15741484D02*
X9850777Y-15741484D01*
X9850777Y-15741484D02*
X9831730Y-15731960D01*
X9831730Y-15731960D02*
X9822206Y-15712912D01*
X9822206Y-15712912D02*
X9822206Y-15636722D01*
X9822206Y-15636722D02*
X9831730Y-15617674D01*
X9831730Y-15617674D02*
X9850777Y-15608150D01*
X9850777Y-15608150D02*
X9888873Y-15608150D01*
X9888873Y-15608150D02*
X9907920Y-15617674D01*
X9907920Y-15617674D02*
X9917444Y-15636722D01*
X9917444Y-15636722D02*
X9917444Y-15655769D01*
X9917444Y-15655769D02*
X9822206Y-15674817D01*
X9993634Y-15731960D02*
X10012682Y-15741484D01*
X10012682Y-15741484D02*
X10050777Y-15741484D01*
X10050777Y-15741484D02*
X10069825Y-15731960D01*
X10069825Y-15731960D02*
X10079349Y-15712912D01*
X10079349Y-15712912D02*
X10079349Y-15703388D01*
X10079349Y-15703388D02*
X10069825Y-15684341D01*
X10069825Y-15684341D02*
X10050777Y-15674817D01*
X10050777Y-15674817D02*
X10022206Y-15674817D01*
X10022206Y-15674817D02*
X10003158Y-15665293D01*
X10003158Y-15665293D02*
X9993634Y-15646246D01*
X9993634Y-15646246D02*
X9993634Y-15636722D01*
X9993634Y-15636722D02*
X10003158Y-15617674D01*
X10003158Y-15617674D02*
X10022206Y-15608150D01*
X10022206Y-15608150D02*
X10050777Y-15608150D01*
X10050777Y-15608150D02*
X10069825Y-15617674D01*
X10146015Y-15817674D02*
X10155539Y-15808150D01*
X10155539Y-15808150D02*
X10174587Y-15779579D01*
X10174587Y-15779579D02*
X10184111Y-15760531D01*
X10184111Y-15760531D02*
X10193634Y-15731960D01*
X10193634Y-15731960D02*
X10203158Y-15684341D01*
X10203158Y-15684341D02*
X10203158Y-15646246D01*
X10203158Y-15646246D02*
X10193634Y-15598627D01*
X10193634Y-15598627D02*
X10184111Y-15570055D01*
X10184111Y-15570055D02*
X10174587Y-15551008D01*
X10174587Y-15551008D02*
X10155539Y-15522436D01*
X10155539Y-15522436D02*
X10146015Y-15512912D01*
D11*
X4990000Y-15914000D02*
G75*
G02*
X4905000Y-15914000I-42500J0D01*
G01*
X4905000Y-15914000D02*
G75*
G02*
X4990000Y-15914000I42500J0D01*
G01*
D10*
X5288872Y-15805484D02*
X5307920Y-15805484D01*
X5307920Y-15805484D02*
X5326967Y-15815008D01*
X5326967Y-15815008D02*
X5336491Y-15824531D01*
X5336491Y-15824531D02*
X5346015Y-15843579D01*
X5346015Y-15843579D02*
X5355539Y-15881674D01*
X5355539Y-15881674D02*
X5355539Y-15929293D01*
X5355539Y-15929293D02*
X5346015Y-15967388D01*
X5346015Y-15967388D02*
X5336491Y-15986436D01*
X5336491Y-15986436D02*
X5326967Y-15995960D01*
X5326967Y-15995960D02*
X5307920Y-16005484D01*
X5307920Y-16005484D02*
X5288872Y-16005484D01*
X5288872Y-16005484D02*
X5269824Y-15995960D01*
X5269824Y-15995960D02*
X5260301Y-15986436D01*
X5260301Y-15986436D02*
X5250777Y-15967388D01*
X5250777Y-15967388D02*
X5241253Y-15929293D01*
X5241253Y-15929293D02*
X5241253Y-15881674D01*
X5241253Y-15881674D02*
X5250777Y-15843579D01*
X5250777Y-15843579D02*
X5260301Y-15824531D01*
X5260301Y-15824531D02*
X5269824Y-15815008D01*
X5269824Y-15815008D02*
X5288872Y-15805484D01*
X5441253Y-15986436D02*
X5450777Y-15995960D01*
X5450777Y-15995960D02*
X5441253Y-16005484D01*
X5441253Y-16005484D02*
X5431729Y-15995960D01*
X5431729Y-15995960D02*
X5441253Y-15986436D01*
X5441253Y-15986436D02*
X5441253Y-16005484D01*
X5565063Y-15891198D02*
X5546015Y-15881674D01*
X5546015Y-15881674D02*
X5536491Y-15872150D01*
X5536491Y-15872150D02*
X5526967Y-15853103D01*
X5526967Y-15853103D02*
X5526967Y-15843579D01*
X5526967Y-15843579D02*
X5536491Y-15824531D01*
X5536491Y-15824531D02*
X5546015Y-15815008D01*
X5546015Y-15815008D02*
X5565063Y-15805484D01*
X5565063Y-15805484D02*
X5603158Y-15805484D01*
X5603158Y-15805484D02*
X5622205Y-15815008D01*
X5622205Y-15815008D02*
X5631729Y-15824531D01*
X5631729Y-15824531D02*
X5641253Y-15843579D01*
X5641253Y-15843579D02*
X5641253Y-15853103D01*
X5641253Y-15853103D02*
X5631729Y-15872150D01*
X5631729Y-15872150D02*
X5622205Y-15881674D01*
X5622205Y-15881674D02*
X5603158Y-15891198D01*
X5603158Y-15891198D02*
X5565063Y-15891198D01*
X5565063Y-15891198D02*
X5546015Y-15900722D01*
X5546015Y-15900722D02*
X5536491Y-15910246D01*
X5536491Y-15910246D02*
X5526967Y-15929293D01*
X5526967Y-15929293D02*
X5526967Y-15967388D01*
X5526967Y-15967388D02*
X5536491Y-15986436D01*
X5536491Y-15986436D02*
X5546015Y-15995960D01*
X5546015Y-15995960D02*
X5565063Y-16005484D01*
X5565063Y-16005484D02*
X5603158Y-16005484D01*
X5603158Y-16005484D02*
X5622205Y-15995960D01*
X5622205Y-15995960D02*
X5631729Y-15986436D01*
X5631729Y-15986436D02*
X5641253Y-15967388D01*
X5641253Y-15967388D02*
X5641253Y-15929293D01*
X5641253Y-15929293D02*
X5631729Y-15910246D01*
X5631729Y-15910246D02*
X5622205Y-15900722D01*
X5622205Y-15900722D02*
X5603158Y-15891198D01*
X5822205Y-15805484D02*
X5726967Y-15805484D01*
X5726967Y-15805484D02*
X5717443Y-15900722D01*
X5717443Y-15900722D02*
X5726967Y-15891198D01*
X5726967Y-15891198D02*
X5746015Y-15881674D01*
X5746015Y-15881674D02*
X5793634Y-15881674D01*
X5793634Y-15881674D02*
X5812682Y-15891198D01*
X5812682Y-15891198D02*
X5822205Y-15900722D01*
X5822205Y-15900722D02*
X5831729Y-15919769D01*
X5831729Y-15919769D02*
X5831729Y-15967388D01*
X5831729Y-15967388D02*
X5822205Y-15986436D01*
X5822205Y-15986436D02*
X5812682Y-15995960D01*
X5812682Y-15995960D02*
X5793634Y-16005484D01*
X5793634Y-16005484D02*
X5746015Y-16005484D01*
X5746015Y-16005484D02*
X5726967Y-15995960D01*
X5726967Y-15995960D02*
X5717443Y-15986436D01*
X5955539Y-15805484D02*
X5974586Y-15805484D01*
X5974586Y-15805484D02*
X5993634Y-15815008D01*
X5993634Y-15815008D02*
X6003158Y-15824531D01*
X6003158Y-15824531D02*
X6012682Y-15843579D01*
X6012682Y-15843579D02*
X6022205Y-15881674D01*
X6022205Y-15881674D02*
X6022205Y-15929293D01*
X6022205Y-15929293D02*
X6012682Y-15967388D01*
X6012682Y-15967388D02*
X6003158Y-15986436D01*
X6003158Y-15986436D02*
X5993634Y-15995960D01*
X5993634Y-15995960D02*
X5974586Y-16005484D01*
X5974586Y-16005484D02*
X5955539Y-16005484D01*
X5955539Y-16005484D02*
X5936491Y-15995960D01*
X5936491Y-15995960D02*
X5926967Y-15986436D01*
X5926967Y-15986436D02*
X5917443Y-15967388D01*
X5917443Y-15967388D02*
X5907920Y-15929293D01*
X5907920Y-15929293D02*
X5907920Y-15881674D01*
X5907920Y-15881674D02*
X5917443Y-15843579D01*
X5917443Y-15843579D02*
X5926967Y-15824531D01*
X5926967Y-15824531D02*
X5936491Y-15815008D01*
X5936491Y-15815008D02*
X5955539Y-15805484D01*
X6107920Y-16005484D02*
X6107920Y-15872150D01*
X6107920Y-15891198D02*
X6117443Y-15881674D01*
X6117443Y-15881674D02*
X6136491Y-15872150D01*
X6136491Y-15872150D02*
X6165063Y-15872150D01*
X6165063Y-15872150D02*
X6184110Y-15881674D01*
X6184110Y-15881674D02*
X6193634Y-15900722D01*
X6193634Y-15900722D02*
X6193634Y-16005484D01*
X6193634Y-15900722D02*
X6203158Y-15881674D01*
X6203158Y-15881674D02*
X6222205Y-15872150D01*
X6222205Y-15872150D02*
X6250777Y-15872150D01*
X6250777Y-15872150D02*
X6269824Y-15881674D01*
X6269824Y-15881674D02*
X6279348Y-15900722D01*
X6279348Y-15900722D02*
X6279348Y-16005484D01*
X6374586Y-16005484D02*
X6374586Y-15872150D01*
X6374586Y-15891198D02*
X6384110Y-15881674D01*
X6384110Y-15881674D02*
X6403158Y-15872150D01*
X6403158Y-15872150D02*
X6431729Y-15872150D01*
X6431729Y-15872150D02*
X6450777Y-15881674D01*
X6450777Y-15881674D02*
X6460301Y-15900722D01*
X6460301Y-15900722D02*
X6460301Y-16005484D01*
X6460301Y-15900722D02*
X6469824Y-15881674D01*
X6469824Y-15881674D02*
X6488872Y-15872150D01*
X6488872Y-15872150D02*
X6517443Y-15872150D01*
X6517443Y-15872150D02*
X6536491Y-15881674D01*
X6536491Y-15881674D02*
X6546015Y-15900722D01*
X6546015Y-15900722D02*
X6546015Y-16005484D01*
X6936491Y-15795960D02*
X6765063Y-16053103D01*
X7193634Y-15805484D02*
X7212682Y-15805484D01*
X7212682Y-15805484D02*
X7231729Y-15815008D01*
X7231729Y-15815008D02*
X7241253Y-15824531D01*
X7241253Y-15824531D02*
X7250777Y-15843579D01*
X7250777Y-15843579D02*
X7260301Y-15881674D01*
X7260301Y-15881674D02*
X7260301Y-15929293D01*
X7260301Y-15929293D02*
X7250777Y-15967388D01*
X7250777Y-15967388D02*
X7241253Y-15986436D01*
X7241253Y-15986436D02*
X7231729Y-15995960D01*
X7231729Y-15995960D02*
X7212682Y-16005484D01*
X7212682Y-16005484D02*
X7193634Y-16005484D01*
X7193634Y-16005484D02*
X7174586Y-15995960D01*
X7174586Y-15995960D02*
X7165063Y-15986436D01*
X7165063Y-15986436D02*
X7155539Y-15967388D01*
X7155539Y-15967388D02*
X7146015Y-15929293D01*
X7146015Y-15929293D02*
X7146015Y-15881674D01*
X7146015Y-15881674D02*
X7155539Y-15843579D01*
X7155539Y-15843579D02*
X7165063Y-15824531D01*
X7165063Y-15824531D02*
X7174586Y-15815008D01*
X7174586Y-15815008D02*
X7193634Y-15805484D01*
X7346015Y-15986436D02*
X7355539Y-15995960D01*
X7355539Y-15995960D02*
X7346015Y-16005484D01*
X7346015Y-16005484D02*
X7336491Y-15995960D01*
X7336491Y-15995960D02*
X7346015Y-15986436D01*
X7346015Y-15986436D02*
X7346015Y-16005484D01*
X7479348Y-15805484D02*
X7498396Y-15805484D01*
X7498396Y-15805484D02*
X7517444Y-15815008D01*
X7517444Y-15815008D02*
X7526967Y-15824531D01*
X7526967Y-15824531D02*
X7536491Y-15843579D01*
X7536491Y-15843579D02*
X7546015Y-15881674D01*
X7546015Y-15881674D02*
X7546015Y-15929293D01*
X7546015Y-15929293D02*
X7536491Y-15967388D01*
X7536491Y-15967388D02*
X7526967Y-15986436D01*
X7526967Y-15986436D02*
X7517444Y-15995960D01*
X7517444Y-15995960D02*
X7498396Y-16005484D01*
X7498396Y-16005484D02*
X7479348Y-16005484D01*
X7479348Y-16005484D02*
X7460301Y-15995960D01*
X7460301Y-15995960D02*
X7450777Y-15986436D01*
X7450777Y-15986436D02*
X7441253Y-15967388D01*
X7441253Y-15967388D02*
X7431729Y-15929293D01*
X7431729Y-15929293D02*
X7431729Y-15881674D01*
X7431729Y-15881674D02*
X7441253Y-15843579D01*
X7441253Y-15843579D02*
X7450777Y-15824531D01*
X7450777Y-15824531D02*
X7460301Y-15815008D01*
X7460301Y-15815008D02*
X7479348Y-15805484D01*
X7612682Y-15805484D02*
X7736491Y-15805484D01*
X7736491Y-15805484D02*
X7669825Y-15881674D01*
X7669825Y-15881674D02*
X7698396Y-15881674D01*
X7698396Y-15881674D02*
X7717444Y-15891198D01*
X7717444Y-15891198D02*
X7726967Y-15900722D01*
X7726967Y-15900722D02*
X7736491Y-15919769D01*
X7736491Y-15919769D02*
X7736491Y-15967388D01*
X7736491Y-15967388D02*
X7726967Y-15986436D01*
X7726967Y-15986436D02*
X7717444Y-15995960D01*
X7717444Y-15995960D02*
X7698396Y-16005484D01*
X7698396Y-16005484D02*
X7641253Y-16005484D01*
X7641253Y-16005484D02*
X7622206Y-15995960D01*
X7622206Y-15995960D02*
X7612682Y-15986436D01*
X7803158Y-15805484D02*
X7926967Y-15805484D01*
X7926967Y-15805484D02*
X7860301Y-15881674D01*
X7860301Y-15881674D02*
X7888872Y-15881674D01*
X7888872Y-15881674D02*
X7907920Y-15891198D01*
X7907920Y-15891198D02*
X7917444Y-15900722D01*
X7917444Y-15900722D02*
X7926967Y-15919769D01*
X7926967Y-15919769D02*
X7926967Y-15967388D01*
X7926967Y-15967388D02*
X7917444Y-15986436D01*
X7917444Y-15986436D02*
X7907920Y-15995960D01*
X7907920Y-15995960D02*
X7888872Y-16005484D01*
X7888872Y-16005484D02*
X7831729Y-16005484D01*
X7831729Y-16005484D02*
X7812682Y-15995960D01*
X7812682Y-15995960D02*
X7803158Y-15986436D01*
X8107920Y-15805484D02*
X8012682Y-15805484D01*
X8012682Y-15805484D02*
X8003158Y-15900722D01*
X8003158Y-15900722D02*
X8012682Y-15891198D01*
X8012682Y-15891198D02*
X8031729Y-15881674D01*
X8031729Y-15881674D02*
X8079348Y-15881674D01*
X8079348Y-15881674D02*
X8098396Y-15891198D01*
X8098396Y-15891198D02*
X8107920Y-15900722D01*
X8107920Y-15900722D02*
X8117444Y-15919769D01*
X8117444Y-15919769D02*
X8117444Y-15967388D01*
X8117444Y-15967388D02*
X8107920Y-15986436D01*
X8107920Y-15986436D02*
X8098396Y-15995960D01*
X8098396Y-15995960D02*
X8079348Y-16005484D01*
X8079348Y-16005484D02*
X8031729Y-16005484D01*
X8031729Y-16005484D02*
X8012682Y-15995960D01*
X8012682Y-15995960D02*
X8003158Y-15986436D01*
X8193634Y-15805484D02*
X8193634Y-15843579D01*
X8269825Y-15805484D02*
X8269825Y-15843579D01*
X8565063Y-16081674D02*
X8555539Y-16072150D01*
X8555539Y-16072150D02*
X8536491Y-16043579D01*
X8536491Y-16043579D02*
X8526968Y-16024531D01*
X8526968Y-16024531D02*
X8517444Y-15995960D01*
X8517444Y-15995960D02*
X8507920Y-15948341D01*
X8507920Y-15948341D02*
X8507920Y-15910246D01*
X8507920Y-15910246D02*
X8517444Y-15862627D01*
X8517444Y-15862627D02*
X8526968Y-15834055D01*
X8526968Y-15834055D02*
X8536491Y-15815008D01*
X8536491Y-15815008D02*
X8555539Y-15786436D01*
X8555539Y-15786436D02*
X8565063Y-15776912D01*
X8726968Y-15872150D02*
X8726968Y-16005484D01*
X8679349Y-15795960D02*
X8631730Y-15938817D01*
X8631730Y-15938817D02*
X8755539Y-15938817D01*
X8984111Y-16005484D02*
X8984111Y-15805484D01*
X9069825Y-16005484D02*
X9069825Y-15900722D01*
X9069825Y-15900722D02*
X9060301Y-15881674D01*
X9060301Y-15881674D02*
X9041253Y-15872150D01*
X9041253Y-15872150D02*
X9012682Y-15872150D01*
X9012682Y-15872150D02*
X8993634Y-15881674D01*
X8993634Y-15881674D02*
X8984111Y-15891198D01*
X9193634Y-16005484D02*
X9174587Y-15995960D01*
X9174587Y-15995960D02*
X9165063Y-15986436D01*
X9165063Y-15986436D02*
X9155539Y-15967388D01*
X9155539Y-15967388D02*
X9155539Y-15910246D01*
X9155539Y-15910246D02*
X9165063Y-15891198D01*
X9165063Y-15891198D02*
X9174587Y-15881674D01*
X9174587Y-15881674D02*
X9193634Y-15872150D01*
X9193634Y-15872150D02*
X9222206Y-15872150D01*
X9222206Y-15872150D02*
X9241253Y-15881674D01*
X9241253Y-15881674D02*
X9250777Y-15891198D01*
X9250777Y-15891198D02*
X9260301Y-15910246D01*
X9260301Y-15910246D02*
X9260301Y-15967388D01*
X9260301Y-15967388D02*
X9250777Y-15986436D01*
X9250777Y-15986436D02*
X9241253Y-15995960D01*
X9241253Y-15995960D02*
X9222206Y-16005484D01*
X9222206Y-16005484D02*
X9193634Y-16005484D01*
X9374587Y-16005484D02*
X9355539Y-15995960D01*
X9355539Y-15995960D02*
X9346015Y-15976912D01*
X9346015Y-15976912D02*
X9346015Y-15805484D01*
X9526968Y-15995960D02*
X9507920Y-16005484D01*
X9507920Y-16005484D02*
X9469825Y-16005484D01*
X9469825Y-16005484D02*
X9450777Y-15995960D01*
X9450777Y-15995960D02*
X9441253Y-15976912D01*
X9441253Y-15976912D02*
X9441253Y-15900722D01*
X9441253Y-15900722D02*
X9450777Y-15881674D01*
X9450777Y-15881674D02*
X9469825Y-15872150D01*
X9469825Y-15872150D02*
X9507920Y-15872150D01*
X9507920Y-15872150D02*
X9526968Y-15881674D01*
X9526968Y-15881674D02*
X9536492Y-15900722D01*
X9536492Y-15900722D02*
X9536492Y-15919769D01*
X9536492Y-15919769D02*
X9441253Y-15938817D01*
X9612682Y-15995960D02*
X9631730Y-16005484D01*
X9631730Y-16005484D02*
X9669825Y-16005484D01*
X9669825Y-16005484D02*
X9688873Y-15995960D01*
X9688873Y-15995960D02*
X9698396Y-15976912D01*
X9698396Y-15976912D02*
X9698396Y-15967388D01*
X9698396Y-15967388D02*
X9688873Y-15948341D01*
X9688873Y-15948341D02*
X9669825Y-15938817D01*
X9669825Y-15938817D02*
X9641253Y-15938817D01*
X9641253Y-15938817D02*
X9622206Y-15929293D01*
X9622206Y-15929293D02*
X9612682Y-15910246D01*
X9612682Y-15910246D02*
X9612682Y-15900722D01*
X9612682Y-15900722D02*
X9622206Y-15881674D01*
X9622206Y-15881674D02*
X9641253Y-15872150D01*
X9641253Y-15872150D02*
X9669825Y-15872150D01*
X9669825Y-15872150D02*
X9688873Y-15881674D01*
X9765063Y-16081674D02*
X9774587Y-16072150D01*
X9774587Y-16072150D02*
X9793634Y-16043579D01*
X9793634Y-16043579D02*
X9803158Y-16024531D01*
X9803158Y-16024531D02*
X9812682Y-15995960D01*
X9812682Y-15995960D02*
X9822206Y-15948341D01*
X9822206Y-15948341D02*
X9822206Y-15910246D01*
X9822206Y-15910246D02*
X9812682Y-15862627D01*
X9812682Y-15862627D02*
X9803158Y-15834055D01*
X9803158Y-15834055D02*
X9793634Y-15815008D01*
X9793634Y-15815008D02*
X9774587Y-15786436D01*
X9774587Y-15786436D02*
X9765063Y-15776912D01*
D12*
X4920000Y-16108000D02*
X4920000Y-16248000D01*
X4850000Y-16178000D02*
X4990000Y-16178000D01*
D10*
X5355539Y-16269484D02*
X5241253Y-16269484D01*
X5298396Y-16269484D02*
X5298396Y-16069484D01*
X5298396Y-16069484D02*
X5279348Y-16098055D01*
X5279348Y-16098055D02*
X5260301Y-16117103D01*
X5260301Y-16117103D02*
X5241253Y-16126627D01*
X5441253Y-16250436D02*
X5450777Y-16259960D01*
X5450777Y-16259960D02*
X5441253Y-16269484D01*
X5441253Y-16269484D02*
X5431729Y-16259960D01*
X5431729Y-16259960D02*
X5441253Y-16250436D01*
X5441253Y-16250436D02*
X5441253Y-16269484D01*
X5622205Y-16136150D02*
X5622205Y-16269484D01*
X5574586Y-16059960D02*
X5526967Y-16202817D01*
X5526967Y-16202817D02*
X5650777Y-16202817D01*
X5765062Y-16069484D02*
X5784110Y-16069484D01*
X5784110Y-16069484D02*
X5803158Y-16079008D01*
X5803158Y-16079008D02*
X5812682Y-16088531D01*
X5812682Y-16088531D02*
X5822205Y-16107579D01*
X5822205Y-16107579D02*
X5831729Y-16145674D01*
X5831729Y-16145674D02*
X5831729Y-16193293D01*
X5831729Y-16193293D02*
X5822205Y-16231388D01*
X5822205Y-16231388D02*
X5812682Y-16250436D01*
X5812682Y-16250436D02*
X5803158Y-16259960D01*
X5803158Y-16259960D02*
X5784110Y-16269484D01*
X5784110Y-16269484D02*
X5765062Y-16269484D01*
X5765062Y-16269484D02*
X5746015Y-16259960D01*
X5746015Y-16259960D02*
X5736491Y-16250436D01*
X5736491Y-16250436D02*
X5726967Y-16231388D01*
X5726967Y-16231388D02*
X5717443Y-16193293D01*
X5717443Y-16193293D02*
X5717443Y-16145674D01*
X5717443Y-16145674D02*
X5726967Y-16107579D01*
X5726967Y-16107579D02*
X5736491Y-16088531D01*
X5736491Y-16088531D02*
X5746015Y-16079008D01*
X5746015Y-16079008D02*
X5765062Y-16069484D01*
X5955539Y-16069484D02*
X5974586Y-16069484D01*
X5974586Y-16069484D02*
X5993634Y-16079008D01*
X5993634Y-16079008D02*
X6003158Y-16088531D01*
X6003158Y-16088531D02*
X6012682Y-16107579D01*
X6012682Y-16107579D02*
X6022205Y-16145674D01*
X6022205Y-16145674D02*
X6022205Y-16193293D01*
X6022205Y-16193293D02*
X6012682Y-16231388D01*
X6012682Y-16231388D02*
X6003158Y-16250436D01*
X6003158Y-16250436D02*
X5993634Y-16259960D01*
X5993634Y-16259960D02*
X5974586Y-16269484D01*
X5974586Y-16269484D02*
X5955539Y-16269484D01*
X5955539Y-16269484D02*
X5936491Y-16259960D01*
X5936491Y-16259960D02*
X5926967Y-16250436D01*
X5926967Y-16250436D02*
X5917443Y-16231388D01*
X5917443Y-16231388D02*
X5907920Y-16193293D01*
X5907920Y-16193293D02*
X5907920Y-16145674D01*
X5907920Y-16145674D02*
X5917443Y-16107579D01*
X5917443Y-16107579D02*
X5926967Y-16088531D01*
X5926967Y-16088531D02*
X5936491Y-16079008D01*
X5936491Y-16079008D02*
X5955539Y-16069484D01*
X6107920Y-16269484D02*
X6107920Y-16136150D01*
X6107920Y-16155198D02*
X6117443Y-16145674D01*
X6117443Y-16145674D02*
X6136491Y-16136150D01*
X6136491Y-16136150D02*
X6165063Y-16136150D01*
X6165063Y-16136150D02*
X6184110Y-16145674D01*
X6184110Y-16145674D02*
X6193634Y-16164722D01*
X6193634Y-16164722D02*
X6193634Y-16269484D01*
X6193634Y-16164722D02*
X6203158Y-16145674D01*
X6203158Y-16145674D02*
X6222205Y-16136150D01*
X6222205Y-16136150D02*
X6250777Y-16136150D01*
X6250777Y-16136150D02*
X6269824Y-16145674D01*
X6269824Y-16145674D02*
X6279348Y-16164722D01*
X6279348Y-16164722D02*
X6279348Y-16269484D01*
X6374586Y-16269484D02*
X6374586Y-16136150D01*
X6374586Y-16155198D02*
X6384110Y-16145674D01*
X6384110Y-16145674D02*
X6403158Y-16136150D01*
X6403158Y-16136150D02*
X6431729Y-16136150D01*
X6431729Y-16136150D02*
X6450777Y-16145674D01*
X6450777Y-16145674D02*
X6460301Y-16164722D01*
X6460301Y-16164722D02*
X6460301Y-16269484D01*
X6460301Y-16164722D02*
X6469824Y-16145674D01*
X6469824Y-16145674D02*
X6488872Y-16136150D01*
X6488872Y-16136150D02*
X6517443Y-16136150D01*
X6517443Y-16136150D02*
X6536491Y-16145674D01*
X6536491Y-16145674D02*
X6546015Y-16164722D01*
X6546015Y-16164722D02*
X6546015Y-16269484D01*
X6936491Y-16059960D02*
X6765063Y-16317103D01*
X7193634Y-16069484D02*
X7212682Y-16069484D01*
X7212682Y-16069484D02*
X7231729Y-16079008D01*
X7231729Y-16079008D02*
X7241253Y-16088531D01*
X7241253Y-16088531D02*
X7250777Y-16107579D01*
X7250777Y-16107579D02*
X7260301Y-16145674D01*
X7260301Y-16145674D02*
X7260301Y-16193293D01*
X7260301Y-16193293D02*
X7250777Y-16231388D01*
X7250777Y-16231388D02*
X7241253Y-16250436D01*
X7241253Y-16250436D02*
X7231729Y-16259960D01*
X7231729Y-16259960D02*
X7212682Y-16269484D01*
X7212682Y-16269484D02*
X7193634Y-16269484D01*
X7193634Y-16269484D02*
X7174586Y-16259960D01*
X7174586Y-16259960D02*
X7165063Y-16250436D01*
X7165063Y-16250436D02*
X7155539Y-16231388D01*
X7155539Y-16231388D02*
X7146015Y-16193293D01*
X7146015Y-16193293D02*
X7146015Y-16145674D01*
X7146015Y-16145674D02*
X7155539Y-16107579D01*
X7155539Y-16107579D02*
X7165063Y-16088531D01*
X7165063Y-16088531D02*
X7174586Y-16079008D01*
X7174586Y-16079008D02*
X7193634Y-16069484D01*
X7346015Y-16250436D02*
X7355539Y-16259960D01*
X7355539Y-16259960D02*
X7346015Y-16269484D01*
X7346015Y-16269484D02*
X7336491Y-16259960D01*
X7336491Y-16259960D02*
X7346015Y-16250436D01*
X7346015Y-16250436D02*
X7346015Y-16269484D01*
X7479348Y-16069484D02*
X7498396Y-16069484D01*
X7498396Y-16069484D02*
X7517444Y-16079008D01*
X7517444Y-16079008D02*
X7526967Y-16088531D01*
X7526967Y-16088531D02*
X7536491Y-16107579D01*
X7536491Y-16107579D02*
X7546015Y-16145674D01*
X7546015Y-16145674D02*
X7546015Y-16193293D01*
X7546015Y-16193293D02*
X7536491Y-16231388D01*
X7536491Y-16231388D02*
X7526967Y-16250436D01*
X7526967Y-16250436D02*
X7517444Y-16259960D01*
X7517444Y-16259960D02*
X7498396Y-16269484D01*
X7498396Y-16269484D02*
X7479348Y-16269484D01*
X7479348Y-16269484D02*
X7460301Y-16259960D01*
X7460301Y-16259960D02*
X7450777Y-16250436D01*
X7450777Y-16250436D02*
X7441253Y-16231388D01*
X7441253Y-16231388D02*
X7431729Y-16193293D01*
X7431729Y-16193293D02*
X7431729Y-16145674D01*
X7431729Y-16145674D02*
X7441253Y-16107579D01*
X7441253Y-16107579D02*
X7450777Y-16088531D01*
X7450777Y-16088531D02*
X7460301Y-16079008D01*
X7460301Y-16079008D02*
X7479348Y-16069484D01*
X7726967Y-16069484D02*
X7631729Y-16069484D01*
X7631729Y-16069484D02*
X7622206Y-16164722D01*
X7622206Y-16164722D02*
X7631729Y-16155198D01*
X7631729Y-16155198D02*
X7650777Y-16145674D01*
X7650777Y-16145674D02*
X7698396Y-16145674D01*
X7698396Y-16145674D02*
X7717444Y-16155198D01*
X7717444Y-16155198D02*
X7726967Y-16164722D01*
X7726967Y-16164722D02*
X7736491Y-16183769D01*
X7736491Y-16183769D02*
X7736491Y-16231388D01*
X7736491Y-16231388D02*
X7726967Y-16250436D01*
X7726967Y-16250436D02*
X7717444Y-16259960D01*
X7717444Y-16259960D02*
X7698396Y-16269484D01*
X7698396Y-16269484D02*
X7650777Y-16269484D01*
X7650777Y-16269484D02*
X7631729Y-16259960D01*
X7631729Y-16259960D02*
X7622206Y-16250436D01*
X7917444Y-16069484D02*
X7822206Y-16069484D01*
X7822206Y-16069484D02*
X7812682Y-16164722D01*
X7812682Y-16164722D02*
X7822206Y-16155198D01*
X7822206Y-16155198D02*
X7841253Y-16145674D01*
X7841253Y-16145674D02*
X7888872Y-16145674D01*
X7888872Y-16145674D02*
X7907920Y-16155198D01*
X7907920Y-16155198D02*
X7917444Y-16164722D01*
X7917444Y-16164722D02*
X7926967Y-16183769D01*
X7926967Y-16183769D02*
X7926967Y-16231388D01*
X7926967Y-16231388D02*
X7917444Y-16250436D01*
X7917444Y-16250436D02*
X7907920Y-16259960D01*
X7907920Y-16259960D02*
X7888872Y-16269484D01*
X7888872Y-16269484D02*
X7841253Y-16269484D01*
X7841253Y-16269484D02*
X7822206Y-16259960D01*
X7822206Y-16259960D02*
X7812682Y-16250436D01*
X8117444Y-16269484D02*
X8003158Y-16269484D01*
X8060301Y-16269484D02*
X8060301Y-16069484D01*
X8060301Y-16069484D02*
X8041253Y-16098055D01*
X8041253Y-16098055D02*
X8022206Y-16117103D01*
X8022206Y-16117103D02*
X8003158Y-16126627D01*
X8193634Y-16069484D02*
X8193634Y-16107579D01*
X8269825Y-16069484D02*
X8269825Y-16107579D01*
X8565063Y-16345674D02*
X8555539Y-16336150D01*
X8555539Y-16336150D02*
X8536491Y-16307579D01*
X8536491Y-16307579D02*
X8526968Y-16288531D01*
X8526968Y-16288531D02*
X8517444Y-16259960D01*
X8517444Y-16259960D02*
X8507920Y-16212341D01*
X8507920Y-16212341D02*
X8507920Y-16174246D01*
X8507920Y-16174246D02*
X8517444Y-16126627D01*
X8517444Y-16126627D02*
X8526968Y-16098055D01*
X8526968Y-16098055D02*
X8536491Y-16079008D01*
X8536491Y-16079008D02*
X8555539Y-16050436D01*
X8555539Y-16050436D02*
X8565063Y-16040912D01*
X8622206Y-16069484D02*
X8746015Y-16069484D01*
X8746015Y-16069484D02*
X8679349Y-16145674D01*
X8679349Y-16145674D02*
X8707920Y-16145674D01*
X8707920Y-16145674D02*
X8726968Y-16155198D01*
X8726968Y-16155198D02*
X8736491Y-16164722D01*
X8736491Y-16164722D02*
X8746015Y-16183769D01*
X8746015Y-16183769D02*
X8746015Y-16231388D01*
X8746015Y-16231388D02*
X8736491Y-16250436D01*
X8736491Y-16250436D02*
X8726968Y-16259960D01*
X8726968Y-16259960D02*
X8707920Y-16269484D01*
X8707920Y-16269484D02*
X8650777Y-16269484D01*
X8650777Y-16269484D02*
X8631730Y-16259960D01*
X8631730Y-16259960D02*
X8622206Y-16250436D01*
X8926968Y-16069484D02*
X8831730Y-16069484D01*
X8831730Y-16069484D02*
X8822206Y-16164722D01*
X8822206Y-16164722D02*
X8831730Y-16155198D01*
X8831730Y-16155198D02*
X8850777Y-16145674D01*
X8850777Y-16145674D02*
X8898396Y-16145674D01*
X8898396Y-16145674D02*
X8917444Y-16155198D01*
X8917444Y-16155198D02*
X8926968Y-16164722D01*
X8926968Y-16164722D02*
X8936491Y-16183769D01*
X8936491Y-16183769D02*
X8936491Y-16231388D01*
X8936491Y-16231388D02*
X8926968Y-16250436D01*
X8926968Y-16250436D02*
X8917444Y-16259960D01*
X8917444Y-16259960D02*
X8898396Y-16269484D01*
X8898396Y-16269484D02*
X8850777Y-16269484D01*
X8850777Y-16269484D02*
X8831730Y-16259960D01*
X8831730Y-16259960D02*
X8822206Y-16250436D01*
X9174587Y-16269484D02*
X9174587Y-16069484D01*
X9260301Y-16269484D02*
X9260301Y-16164722D01*
X9260301Y-16164722D02*
X9250777Y-16145674D01*
X9250777Y-16145674D02*
X9231730Y-16136150D01*
X9231730Y-16136150D02*
X9203158Y-16136150D01*
X9203158Y-16136150D02*
X9184111Y-16145674D01*
X9184111Y-16145674D02*
X9174587Y-16155198D01*
X9384111Y-16269484D02*
X9365063Y-16259960D01*
X9365063Y-16259960D02*
X9355539Y-16250436D01*
X9355539Y-16250436D02*
X9346015Y-16231388D01*
X9346015Y-16231388D02*
X9346015Y-16174246D01*
X9346015Y-16174246D02*
X9355539Y-16155198D01*
X9355539Y-16155198D02*
X9365063Y-16145674D01*
X9365063Y-16145674D02*
X9384111Y-16136150D01*
X9384111Y-16136150D02*
X9412682Y-16136150D01*
X9412682Y-16136150D02*
X9431730Y-16145674D01*
X9431730Y-16145674D02*
X9441253Y-16155198D01*
X9441253Y-16155198D02*
X9450777Y-16174246D01*
X9450777Y-16174246D02*
X9450777Y-16231388D01*
X9450777Y-16231388D02*
X9441253Y-16250436D01*
X9441253Y-16250436D02*
X9431730Y-16259960D01*
X9431730Y-16259960D02*
X9412682Y-16269484D01*
X9412682Y-16269484D02*
X9384111Y-16269484D01*
X9565063Y-16269484D02*
X9546015Y-16259960D01*
X9546015Y-16259960D02*
X9536492Y-16240912D01*
X9536492Y-16240912D02*
X9536492Y-16069484D01*
X9717444Y-16259960D02*
X9698396Y-16269484D01*
X9698396Y-16269484D02*
X9660301Y-16269484D01*
X9660301Y-16269484D02*
X9641253Y-16259960D01*
X9641253Y-16259960D02*
X9631730Y-16240912D01*
X9631730Y-16240912D02*
X9631730Y-16164722D01*
X9631730Y-16164722D02*
X9641253Y-16145674D01*
X9641253Y-16145674D02*
X9660301Y-16136150D01*
X9660301Y-16136150D02*
X9698396Y-16136150D01*
X9698396Y-16136150D02*
X9717444Y-16145674D01*
X9717444Y-16145674D02*
X9726968Y-16164722D01*
X9726968Y-16164722D02*
X9726968Y-16183769D01*
X9726968Y-16183769D02*
X9631730Y-16202817D01*
X9803158Y-16259960D02*
X9822206Y-16269484D01*
X9822206Y-16269484D02*
X9860301Y-16269484D01*
X9860301Y-16269484D02*
X9879349Y-16259960D01*
X9879349Y-16259960D02*
X9888873Y-16240912D01*
X9888873Y-16240912D02*
X9888873Y-16231388D01*
X9888873Y-16231388D02*
X9879349Y-16212341D01*
X9879349Y-16212341D02*
X9860301Y-16202817D01*
X9860301Y-16202817D02*
X9831730Y-16202817D01*
X9831730Y-16202817D02*
X9812682Y-16193293D01*
X9812682Y-16193293D02*
X9803158Y-16174246D01*
X9803158Y-16174246D02*
X9803158Y-16164722D01*
X9803158Y-16164722D02*
X9812682Y-16145674D01*
X9812682Y-16145674D02*
X9831730Y-16136150D01*
X9831730Y-16136150D02*
X9860301Y-16136150D01*
X9860301Y-16136150D02*
X9879349Y-16145674D01*
X9955539Y-16345674D02*
X9965063Y-16336150D01*
X9965063Y-16336150D02*
X9984111Y-16307579D01*
X9984111Y-16307579D02*
X9993634Y-16288531D01*
X9993634Y-16288531D02*
X10003158Y-16259960D01*
X10003158Y-16259960D02*
X10012682Y-16212341D01*
X10012682Y-16212341D02*
X10012682Y-16174246D01*
X10012682Y-16174246D02*
X10003158Y-16126627D01*
X10003158Y-16126627D02*
X9993634Y-16098055D01*
X9993634Y-16098055D02*
X9984111Y-16079008D01*
X9984111Y-16079008D02*
X9965063Y-16050436D01*
X9965063Y-16050436D02*
X9955539Y-16040912D01*
M02*
