G04 #@! TF.GenerationSoftware,KiCad,Pcbnew,8.0.8-8.0.8-0~ubuntu24.04.1*
G04 #@! TF.CreationDate,2025-01-18T16:04:22+01:00*
G04 #@! TF.ProjectId,rf_lna,72665f6c-6e61-42e6-9b69-6361645f7063,rev?*
G04 #@! TF.SameCoordinates,Original*
G04 #@! TF.FileFunction,Soldermask,Top*
G04 #@! TF.FilePolarity,Negative*
%FSLAX46Y46*%
G04 Gerber Fmt 4.6, Leading zero omitted, Abs format (unit mm)*
G04 Created by KiCad (PCBNEW 8.0.8-8.0.8-0~ubuntu24.04.1) date 2025-01-18 16:04:22*
%MOMM*%
%LPD*%
G01*
G04 APERTURE LIST*
G04 Aperture macros list*
%AMRoundRect*
0 Rectangle with rounded corners*
0 $1 Rounding radius*
0 $2 $3 $4 $5 $6 $7 $8 $9 X,Y pos of 4 corners*
0 Add a 4 corners polygon primitive as box body*
4,1,4,$2,$3,$4,$5,$6,$7,$8,$9,$2,$3,0*
0 Add four circle primitives for the rounded corners*
1,1,$1+$1,$2,$3*
1,1,$1+$1,$4,$5*
1,1,$1+$1,$6,$7*
1,1,$1+$1,$8,$9*
0 Add four rect primitives between the rounded corners*
20,1,$1+$1,$2,$3,$4,$5,0*
20,1,$1+$1,$4,$5,$6,$7,0*
20,1,$1+$1,$6,$7,$8,$9,0*
20,1,$1+$1,$8,$9,$2,$3,0*%
%AMFreePoly0*
4,1,9,3.862500,-0.866500,0.737500,-0.866500,0.737500,-0.450000,-0.737500,-0.450000,-0.737500,0.450000,0.737500,0.450000,0.737500,0.866500,3.862500,0.866500,3.862500,-0.866500,3.862500,-0.866500,$1*%
G04 Aperture macros list end*
%ADD10RoundRect,0.135000X-0.185000X0.135000X-0.185000X-0.135000X0.185000X-0.135000X0.185000X0.135000X0*%
%ADD11RoundRect,0.160000X0.160000X-0.197500X0.160000X0.197500X-0.160000X0.197500X-0.160000X-0.197500X0*%
%ADD12RoundRect,0.218750X-0.256250X0.218750X-0.256250X-0.218750X0.256250X-0.218750X0.256250X0.218750X0*%
%ADD13RoundRect,0.160000X-0.197500X-0.160000X0.197500X-0.160000X0.197500X0.160000X-0.197500X0.160000X0*%
%ADD14RoundRect,0.140000X-0.140000X-0.170000X0.140000X-0.170000X0.140000X0.170000X-0.140000X0.170000X0*%
%ADD15RoundRect,0.200100X-0.949900X-0.949900X0.949900X-0.949900X0.949900X0.949900X-0.949900X0.949900X0*%
%ADD16C,2.200000*%
%ADD17RoundRect,0.200000X-0.200000X-0.275000X0.200000X-0.275000X0.200000X0.275000X-0.200000X0.275000X0*%
%ADD18RoundRect,0.225000X-0.225000X-0.250000X0.225000X-0.250000X0.225000X0.250000X-0.225000X0.250000X0*%
%ADD19RoundRect,0.125000X-0.125000X-0.165000X0.125000X-0.165000X0.125000X0.165000X-0.125000X0.165000X0*%
%ADD20RoundRect,0.145000X-0.255000X-0.145000X0.255000X-0.145000X0.255000X0.145000X-0.255000X0.145000X0*%
%ADD21RoundRect,0.250000X0.675000X0.675000X-0.675000X0.675000X-0.675000X-0.675000X0.675000X-0.675000X0*%
%ADD22C,1.850000*%
%ADD23RoundRect,0.218750X-0.218750X-0.256250X0.218750X-0.256250X0.218750X0.256250X-0.218750X0.256250X0*%
%ADD24RoundRect,0.200100X0.949900X0.949900X-0.949900X0.949900X-0.949900X-0.949900X0.949900X-0.949900X0*%
%ADD25RoundRect,0.160000X0.197500X0.160000X-0.197500X0.160000X-0.197500X-0.160000X0.197500X-0.160000X0*%
%ADD26RoundRect,0.218750X0.218750X0.256250X-0.218750X0.256250X-0.218750X-0.256250X0.218750X-0.256250X0*%
%ADD27RoundRect,0.135000X0.135000X0.185000X-0.135000X0.185000X-0.135000X-0.185000X0.135000X-0.185000X0*%
%ADD28RoundRect,0.160000X-0.160000X0.197500X-0.160000X-0.197500X0.160000X-0.197500X0.160000X0.197500X0*%
%ADD29RoundRect,0.225000X-0.250000X0.225000X-0.250000X-0.225000X0.250000X-0.225000X0.250000X0.225000X0*%
%ADD30RoundRect,0.225000X0.425000X0.225000X-0.425000X0.225000X-0.425000X-0.225000X0.425000X-0.225000X0*%
%ADD31FreePoly0,180.000000*%
%ADD32RoundRect,0.135000X0.185000X-0.135000X0.185000X0.135000X-0.185000X0.135000X-0.185000X-0.135000X0*%
G04 APERTURE END LIST*
D10*
X72700000Y-78200000D03*
X72700000Y-79220000D03*
D11*
X82100000Y-69900000D03*
X82100000Y-68705000D03*
D12*
X120400000Y-78112500D03*
X120400000Y-79687500D03*
D10*
X120500000Y-75890000D03*
X120500000Y-76910000D03*
D13*
X68102500Y-74000000D03*
X69297500Y-74000000D03*
D14*
X78720000Y-65500000D03*
X79680000Y-65500000D03*
D10*
X120100000Y-72590000D03*
X120100000Y-73610000D03*
D15*
X136150000Y-95350000D03*
D16*
X133600000Y-92800000D03*
X133600000Y-97900000D03*
X138700000Y-92800000D03*
X138700000Y-97900000D03*
D17*
X123925000Y-79450000D03*
X125575000Y-79450000D03*
D10*
X124312500Y-70530000D03*
X124312500Y-71550000D03*
D14*
X124220000Y-68500000D03*
X125180000Y-68500000D03*
D10*
X78500000Y-72790000D03*
X78500000Y-73810000D03*
D17*
X75625000Y-78700000D03*
X77275000Y-78700000D03*
D11*
X70370000Y-75227500D03*
X70370000Y-74032500D03*
X107290000Y-131107500D03*
X107290000Y-129912500D03*
D18*
X78625000Y-59000000D03*
X80175000Y-59000000D03*
D19*
X122650000Y-74700000D03*
X122650000Y-72680000D03*
D20*
X123800000Y-74700000D03*
D19*
X123950000Y-72680000D03*
D21*
X123612500Y-63640000D03*
D22*
X119412500Y-63640000D03*
D23*
X74162500Y-65250000D03*
X75737500Y-65250000D03*
D13*
X119900000Y-74800000D03*
X121095000Y-74800000D03*
D24*
X60100000Y-95400000D03*
D16*
X62650000Y-97950000D03*
X62650000Y-92850000D03*
X57550000Y-97950000D03*
X57550000Y-92850000D03*
D10*
X72550000Y-68630000D03*
X72550000Y-69650000D03*
D25*
X72697500Y-74000000D03*
X71502500Y-74000000D03*
D12*
X72680000Y-75312500D03*
X72680000Y-76887500D03*
D10*
X72750000Y-71865000D03*
X72750000Y-72885000D03*
D12*
X71150000Y-66762500D03*
X71150000Y-68337500D03*
D14*
X124220000Y-67500000D03*
X125180000Y-67500000D03*
D26*
X121887500Y-71200000D03*
X120312500Y-71200000D03*
D14*
X78720000Y-64550000D03*
X79680000Y-64550000D03*
D27*
X79510000Y-60650000D03*
X78490000Y-60650000D03*
D14*
X123940000Y-78150000D03*
X124900000Y-78150000D03*
D19*
X77250000Y-68710000D03*
X77250000Y-66690000D03*
D20*
X78400000Y-68710000D03*
D19*
X78550000Y-66690000D03*
D11*
X112820000Y-76027500D03*
X112820000Y-74832500D03*
D12*
X78500000Y-70012500D03*
X78500000Y-71587500D03*
D25*
X80997500Y-68700000D03*
X79802500Y-68700000D03*
D24*
X108075000Y-74800000D03*
D16*
X110625000Y-77350000D03*
X110625000Y-72250000D03*
X105525000Y-77350000D03*
X105525000Y-72250000D03*
D14*
X78720000Y-63600000D03*
X79680000Y-63600000D03*
D28*
X67050000Y-74027500D03*
X67050000Y-75222500D03*
D25*
X118672500Y-74795000D03*
X117477500Y-74795000D03*
D26*
X127237500Y-66200000D03*
X125662500Y-66200000D03*
D19*
X74337500Y-70710000D03*
X74337500Y-68690000D03*
D20*
X75487500Y-70710000D03*
D19*
X75637500Y-68690000D03*
D29*
X117812500Y-66065000D03*
X117812500Y-67615000D03*
D11*
X110550000Y-131117500D03*
X110550000Y-129922500D03*
X116275000Y-76047500D03*
X116275000Y-74852500D03*
D30*
X76950000Y-62150000D03*
D31*
X76862500Y-60650000D03*
D30*
X76950000Y-59150000D03*
D23*
X71062500Y-65250000D03*
X72637500Y-65250000D03*
D25*
X112787500Y-129890000D03*
X111592500Y-129890000D03*
X109507500Y-129890000D03*
X108312500Y-129890000D03*
D10*
X75800000Y-66490000D03*
X75800000Y-67510000D03*
D11*
X123900000Y-77097500D03*
X123900000Y-75902500D03*
D24*
X62175000Y-74050000D03*
D16*
X64725000Y-76600000D03*
X64725000Y-71500000D03*
X59625000Y-76600000D03*
X59625000Y-71500000D03*
D25*
X115120000Y-74800000D03*
X113925000Y-74800000D03*
D24*
X100825000Y-129900000D03*
D16*
X103375000Y-132450000D03*
X103375000Y-127350000D03*
X98275000Y-132450000D03*
X98275000Y-127350000D03*
D25*
X129722500Y-72600000D03*
X128527500Y-72600000D03*
D30*
X122812500Y-69302500D03*
D31*
X122725000Y-67802500D03*
D30*
X122812500Y-66302500D03*
D21*
X78400000Y-56600000D03*
D22*
X74200000Y-56600000D03*
D15*
X135550000Y-72575000D03*
D16*
X133000000Y-70025000D03*
X133000000Y-75125000D03*
X138100000Y-70025000D03*
X138100000Y-75125000D03*
D28*
X75605427Y-75148907D03*
X75605427Y-76343907D03*
D14*
X71770000Y-70875000D03*
X72730000Y-70875000D03*
X75620000Y-77400000D03*
X76580000Y-77400000D03*
D11*
X130775000Y-73822500D03*
X130775000Y-72627500D03*
D26*
X80187500Y-62250000D03*
X78612500Y-62250000D03*
D14*
X124220000Y-69550000D03*
X125180000Y-69550000D03*
D25*
X84397500Y-68700000D03*
X83202500Y-68700000D03*
D19*
X74337500Y-74060000D03*
X74337500Y-72040000D03*
D20*
X75487500Y-74060000D03*
D19*
X75637500Y-72040000D03*
D15*
X90220000Y-68730000D03*
D16*
X87670000Y-66180000D03*
X87670000Y-71280000D03*
X92770000Y-66180000D03*
X92770000Y-71280000D03*
D11*
X85500000Y-69897500D03*
X85500000Y-68702500D03*
D32*
X128550000Y-66110000D03*
X128550000Y-65090000D03*
D25*
X126347500Y-72600000D03*
X125152500Y-72600000D03*
D11*
X127450000Y-73822500D03*
X127450000Y-72627500D03*
M02*
