G04 #@! TF.GenerationSoftware,KiCad,Pcbnew,8.0.8-8.0.8-0~ubuntu24.04.1*
G04 #@! TF.CreationDate,2025-01-18T17:04:35+01:00*
G04 #@! TF.ProjectId,rf_lna,72665f6c-6e61-42e6-9b69-6361645f7063,rev?*
G04 #@! TF.SameCoordinates,Original*
G04 #@! TF.FileFunction,Legend,Top*
G04 #@! TF.FilePolarity,Positive*
%FSLAX46Y46*%
G04 Gerber Fmt 4.6, Leading zero omitted, Abs format (unit mm)*
G04 Created by KiCad (PCBNEW 8.0.8-8.0.8-0~ubuntu24.04.1) date 2025-01-18 17:04:35*
%MOMM*%
%LPD*%
G01*
G04 APERTURE LIST*
G04 Aperture macros list*
%AMRoundRect*
0 Rectangle with rounded corners*
0 $1 Rounding radius*
0 $2 $3 $4 $5 $6 $7 $8 $9 X,Y pos of 4 corners*
0 Add a 4 corners polygon primitive as box body*
4,1,4,$2,$3,$4,$5,$6,$7,$8,$9,$2,$3,0*
0 Add four circle primitives for the rounded corners*
1,1,$1+$1,$2,$3*
1,1,$1+$1,$4,$5*
1,1,$1+$1,$6,$7*
1,1,$1+$1,$8,$9*
0 Add four rect primitives between the rounded corners*
20,1,$1+$1,$2,$3,$4,$5,0*
20,1,$1+$1,$4,$5,$6,$7,0*
20,1,$1+$1,$6,$7,$8,$9,0*
20,1,$1+$1,$8,$9,$2,$3,0*%
%AMFreePoly0*
4,1,9,3.862500,-0.866500,0.737500,-0.866500,0.737500,-0.450000,-0.737500,-0.450000,-0.737500,0.450000,0.737500,0.450000,0.737500,0.866500,3.862500,0.866500,3.862500,-0.866500,3.862500,-0.866500,$1*%
G04 Aperture macros list end*
%ADD10C,0.160000*%
%ADD11C,0.100000*%
%ADD12C,0.120000*%
%ADD13C,1.448000*%
%ADD14C,2.000000*%
%ADD15RoundRect,0.135000X-0.185000X0.135000X-0.185000X-0.135000X0.185000X-0.135000X0.185000X0.135000X0*%
%ADD16RoundRect,0.160000X0.160000X-0.197500X0.160000X0.197500X-0.160000X0.197500X-0.160000X-0.197500X0*%
%ADD17RoundRect,0.218750X-0.256250X0.218750X-0.256250X-0.218750X0.256250X-0.218750X0.256250X0.218750X0*%
%ADD18RoundRect,0.160000X-0.197500X-0.160000X0.197500X-0.160000X0.197500X0.160000X-0.197500X0.160000X0*%
%ADD19RoundRect,0.140000X-0.140000X-0.170000X0.140000X-0.170000X0.140000X0.170000X-0.140000X0.170000X0*%
%ADD20RoundRect,0.200100X-0.949900X-0.949900X0.949900X-0.949900X0.949900X0.949900X-0.949900X0.949900X0*%
%ADD21C,2.200000*%
%ADD22RoundRect,0.200000X-0.200000X-0.275000X0.200000X-0.275000X0.200000X0.275000X-0.200000X0.275000X0*%
%ADD23RoundRect,0.225000X-0.225000X-0.250000X0.225000X-0.250000X0.225000X0.250000X-0.225000X0.250000X0*%
%ADD24RoundRect,0.125000X-0.125000X-0.165000X0.125000X-0.165000X0.125000X0.165000X-0.125000X0.165000X0*%
%ADD25RoundRect,0.145000X-0.255000X-0.145000X0.255000X-0.145000X0.255000X0.145000X-0.255000X0.145000X0*%
%ADD26RoundRect,0.250000X0.675000X0.675000X-0.675000X0.675000X-0.675000X-0.675000X0.675000X-0.675000X0*%
%ADD27C,1.850000*%
%ADD28RoundRect,0.218750X-0.218750X-0.256250X0.218750X-0.256250X0.218750X0.256250X-0.218750X0.256250X0*%
%ADD29RoundRect,0.200100X0.949900X0.949900X-0.949900X0.949900X-0.949900X-0.949900X0.949900X-0.949900X0*%
%ADD30RoundRect,0.160000X0.197500X0.160000X-0.197500X0.160000X-0.197500X-0.160000X0.197500X-0.160000X0*%
%ADD31RoundRect,0.218750X0.218750X0.256250X-0.218750X0.256250X-0.218750X-0.256250X0.218750X-0.256250X0*%
%ADD32RoundRect,0.135000X0.135000X0.185000X-0.135000X0.185000X-0.135000X-0.185000X0.135000X-0.185000X0*%
%ADD33RoundRect,0.160000X-0.160000X0.197500X-0.160000X-0.197500X0.160000X-0.197500X0.160000X0.197500X0*%
%ADD34RoundRect,0.225000X-0.250000X0.225000X-0.250000X-0.225000X0.250000X-0.225000X0.250000X0.225000X0*%
%ADD35RoundRect,0.225000X0.425000X0.225000X-0.425000X0.225000X-0.425000X-0.225000X0.425000X-0.225000X0*%
%ADD36FreePoly0,180.000000*%
%ADD37RoundRect,0.135000X0.185000X-0.135000X0.185000X0.135000X-0.185000X0.135000X-0.185000X-0.135000X0*%
G04 APERTURE END LIST*
D10*
X91064786Y-54974060D02*
X91017167Y-55021680D01*
X91017167Y-55021680D02*
X90874310Y-55069299D01*
X90874310Y-55069299D02*
X90779072Y-55069299D01*
X90779072Y-55069299D02*
X90636215Y-55021680D01*
X90636215Y-55021680D02*
X90540977Y-54926441D01*
X90540977Y-54926441D02*
X90493358Y-54831203D01*
X90493358Y-54831203D02*
X90445739Y-54640727D01*
X90445739Y-54640727D02*
X90445739Y-54497870D01*
X90445739Y-54497870D02*
X90493358Y-54307394D01*
X90493358Y-54307394D02*
X90540977Y-54212156D01*
X90540977Y-54212156D02*
X90636215Y-54116918D01*
X90636215Y-54116918D02*
X90779072Y-54069299D01*
X90779072Y-54069299D02*
X90874310Y-54069299D01*
X90874310Y-54069299D02*
X91017167Y-54116918D01*
X91017167Y-54116918D02*
X91064786Y-54164537D01*
X91445739Y-54783584D02*
X91921929Y-54783584D01*
X91350501Y-55069299D02*
X91683834Y-54069299D01*
X91683834Y-54069299D02*
X92017167Y-55069299D01*
X92302882Y-55021680D02*
X92445739Y-55069299D01*
X92445739Y-55069299D02*
X92683834Y-55069299D01*
X92683834Y-55069299D02*
X92779072Y-55021680D01*
X92779072Y-55021680D02*
X92826691Y-54974060D01*
X92826691Y-54974060D02*
X92874310Y-54878822D01*
X92874310Y-54878822D02*
X92874310Y-54783584D01*
X92874310Y-54783584D02*
X92826691Y-54688346D01*
X92826691Y-54688346D02*
X92779072Y-54640727D01*
X92779072Y-54640727D02*
X92683834Y-54593108D01*
X92683834Y-54593108D02*
X92493358Y-54545489D01*
X92493358Y-54545489D02*
X92398120Y-54497870D01*
X92398120Y-54497870D02*
X92350501Y-54450251D01*
X92350501Y-54450251D02*
X92302882Y-54355013D01*
X92302882Y-54355013D02*
X92302882Y-54259775D01*
X92302882Y-54259775D02*
X92350501Y-54164537D01*
X92350501Y-54164537D02*
X92398120Y-54116918D01*
X92398120Y-54116918D02*
X92493358Y-54069299D01*
X92493358Y-54069299D02*
X92731453Y-54069299D01*
X92731453Y-54069299D02*
X92874310Y-54116918D01*
X93874310Y-54974060D02*
X93826691Y-55021680D01*
X93826691Y-55021680D02*
X93683834Y-55069299D01*
X93683834Y-55069299D02*
X93588596Y-55069299D01*
X93588596Y-55069299D02*
X93445739Y-55021680D01*
X93445739Y-55021680D02*
X93350501Y-54926441D01*
X93350501Y-54926441D02*
X93302882Y-54831203D01*
X93302882Y-54831203D02*
X93255263Y-54640727D01*
X93255263Y-54640727D02*
X93255263Y-54497870D01*
X93255263Y-54497870D02*
X93302882Y-54307394D01*
X93302882Y-54307394D02*
X93350501Y-54212156D01*
X93350501Y-54212156D02*
X93445739Y-54116918D01*
X93445739Y-54116918D02*
X93588596Y-54069299D01*
X93588596Y-54069299D02*
X93683834Y-54069299D01*
X93683834Y-54069299D02*
X93826691Y-54116918D01*
X93826691Y-54116918D02*
X93874310Y-54164537D01*
X94493358Y-54069299D02*
X94683834Y-54069299D01*
X94683834Y-54069299D02*
X94779072Y-54116918D01*
X94779072Y-54116918D02*
X94874310Y-54212156D01*
X94874310Y-54212156D02*
X94921929Y-54402632D01*
X94921929Y-54402632D02*
X94921929Y-54735965D01*
X94921929Y-54735965D02*
X94874310Y-54926441D01*
X94874310Y-54926441D02*
X94779072Y-55021680D01*
X94779072Y-55021680D02*
X94683834Y-55069299D01*
X94683834Y-55069299D02*
X94493358Y-55069299D01*
X94493358Y-55069299D02*
X94398120Y-55021680D01*
X94398120Y-55021680D02*
X94302882Y-54926441D01*
X94302882Y-54926441D02*
X94255263Y-54735965D01*
X94255263Y-54735965D02*
X94255263Y-54402632D01*
X94255263Y-54402632D02*
X94302882Y-54212156D01*
X94302882Y-54212156D02*
X94398120Y-54116918D01*
X94398120Y-54116918D02*
X94493358Y-54069299D01*
X95350501Y-55069299D02*
X95350501Y-54069299D01*
X95350501Y-54069299D02*
X95588596Y-54069299D01*
X95588596Y-54069299D02*
X95731453Y-54116918D01*
X95731453Y-54116918D02*
X95826691Y-54212156D01*
X95826691Y-54212156D02*
X95874310Y-54307394D01*
X95874310Y-54307394D02*
X95921929Y-54497870D01*
X95921929Y-54497870D02*
X95921929Y-54640727D01*
X95921929Y-54640727D02*
X95874310Y-54831203D01*
X95874310Y-54831203D02*
X95826691Y-54926441D01*
X95826691Y-54926441D02*
X95731453Y-55021680D01*
X95731453Y-55021680D02*
X95588596Y-55069299D01*
X95588596Y-55069299D02*
X95350501Y-55069299D01*
X96350501Y-54545489D02*
X96683834Y-54545489D01*
X96826691Y-55069299D02*
X96350501Y-55069299D01*
X96350501Y-55069299D02*
X96350501Y-54069299D01*
X96350501Y-54069299D02*
X96826691Y-54069299D01*
X82482048Y-63994299D02*
X82005858Y-63994299D01*
X82005858Y-63994299D02*
X82005858Y-62994299D01*
X82815382Y-63470489D02*
X83148715Y-63470489D01*
X83291572Y-63994299D02*
X82815382Y-63994299D01*
X82815382Y-63994299D02*
X82815382Y-62994299D01*
X82815382Y-62994299D02*
X83291572Y-62994299D01*
X83720144Y-63994299D02*
X83720144Y-62994299D01*
X83720144Y-62994299D02*
X83958239Y-62994299D01*
X83958239Y-62994299D02*
X84101096Y-63041918D01*
X84101096Y-63041918D02*
X84196334Y-63137156D01*
X84196334Y-63137156D02*
X84243953Y-63232394D01*
X84243953Y-63232394D02*
X84291572Y-63422870D01*
X84291572Y-63422870D02*
X84291572Y-63565727D01*
X84291572Y-63565727D02*
X84243953Y-63756203D01*
X84243953Y-63756203D02*
X84196334Y-63851441D01*
X84196334Y-63851441D02*
X84101096Y-63946680D01*
X84101096Y-63946680D02*
X83958239Y-63994299D01*
X83958239Y-63994299D02*
X83720144Y-63994299D01*
X128169548Y-63869299D02*
X127693358Y-63869299D01*
X127693358Y-63869299D02*
X127693358Y-62869299D01*
X128502882Y-63345489D02*
X128836215Y-63345489D01*
X128979072Y-63869299D02*
X128502882Y-63869299D01*
X128502882Y-63869299D02*
X128502882Y-62869299D01*
X128502882Y-62869299D02*
X128979072Y-62869299D01*
X129407644Y-63869299D02*
X129407644Y-62869299D01*
X129407644Y-62869299D02*
X129645739Y-62869299D01*
X129645739Y-62869299D02*
X129788596Y-62916918D01*
X129788596Y-62916918D02*
X129883834Y-63012156D01*
X129883834Y-63012156D02*
X129931453Y-63107394D01*
X129931453Y-63107394D02*
X129979072Y-63297870D01*
X129979072Y-63297870D02*
X129979072Y-63440727D01*
X129979072Y-63440727D02*
X129931453Y-63631203D01*
X129931453Y-63631203D02*
X129883834Y-63726441D01*
X129883834Y-63726441D02*
X129788596Y-63821680D01*
X129788596Y-63821680D02*
X129645739Y-63869299D01*
X129645739Y-63869299D02*
X129407644Y-63869299D01*
X125775739Y-57481680D02*
X125918596Y-57529299D01*
X125918596Y-57529299D02*
X126156691Y-57529299D01*
X126156691Y-57529299D02*
X126251929Y-57481680D01*
X126251929Y-57481680D02*
X126299548Y-57434060D01*
X126299548Y-57434060D02*
X126347167Y-57338822D01*
X126347167Y-57338822D02*
X126347167Y-57243584D01*
X126347167Y-57243584D02*
X126299548Y-57148346D01*
X126299548Y-57148346D02*
X126251929Y-57100727D01*
X126251929Y-57100727D02*
X126156691Y-57053108D01*
X126156691Y-57053108D02*
X125966215Y-57005489D01*
X125966215Y-57005489D02*
X125870977Y-56957870D01*
X125870977Y-56957870D02*
X125823358Y-56910251D01*
X125823358Y-56910251D02*
X125775739Y-56815013D01*
X125775739Y-56815013D02*
X125775739Y-56719775D01*
X125775739Y-56719775D02*
X125823358Y-56624537D01*
X125823358Y-56624537D02*
X125870977Y-56576918D01*
X125870977Y-56576918D02*
X125966215Y-56529299D01*
X125966215Y-56529299D02*
X126204310Y-56529299D01*
X126204310Y-56529299D02*
X126347167Y-56576918D01*
X126775739Y-57529299D02*
X126775739Y-56529299D01*
X127251929Y-57529299D02*
X127251929Y-56529299D01*
X127251929Y-56529299D02*
X127823357Y-57529299D01*
X127823357Y-57529299D02*
X127823357Y-56529299D01*
X128823357Y-56576918D02*
X128728119Y-56529299D01*
X128728119Y-56529299D02*
X128585262Y-56529299D01*
X128585262Y-56529299D02*
X128442405Y-56576918D01*
X128442405Y-56576918D02*
X128347167Y-56672156D01*
X128347167Y-56672156D02*
X128299548Y-56767394D01*
X128299548Y-56767394D02*
X128251929Y-56957870D01*
X128251929Y-56957870D02*
X128251929Y-57100727D01*
X128251929Y-57100727D02*
X128299548Y-57291203D01*
X128299548Y-57291203D02*
X128347167Y-57386441D01*
X128347167Y-57386441D02*
X128442405Y-57481680D01*
X128442405Y-57481680D02*
X128585262Y-57529299D01*
X128585262Y-57529299D02*
X128680500Y-57529299D01*
X128680500Y-57529299D02*
X128823357Y-57481680D01*
X128823357Y-57481680D02*
X128870976Y-57434060D01*
X128870976Y-57434060D02*
X128870976Y-57100727D01*
X128870976Y-57100727D02*
X128680500Y-57100727D01*
X129775738Y-57529299D02*
X129299548Y-57529299D01*
X129299548Y-57529299D02*
X129299548Y-56529299D01*
X130109072Y-57005489D02*
X130442405Y-57005489D01*
X130585262Y-57529299D02*
X130109072Y-57529299D01*
X130109072Y-57529299D02*
X130109072Y-56529299D01*
X130109072Y-56529299D02*
X130585262Y-56529299D01*
X132299548Y-56576918D02*
X132204310Y-56529299D01*
X132204310Y-56529299D02*
X132061453Y-56529299D01*
X132061453Y-56529299D02*
X131918596Y-56576918D01*
X131918596Y-56576918D02*
X131823358Y-56672156D01*
X131823358Y-56672156D02*
X131775739Y-56767394D01*
X131775739Y-56767394D02*
X131728120Y-56957870D01*
X131728120Y-56957870D02*
X131728120Y-57100727D01*
X131728120Y-57100727D02*
X131775739Y-57291203D01*
X131775739Y-57291203D02*
X131823358Y-57386441D01*
X131823358Y-57386441D02*
X131918596Y-57481680D01*
X131918596Y-57481680D02*
X132061453Y-57529299D01*
X132061453Y-57529299D02*
X132156691Y-57529299D01*
X132156691Y-57529299D02*
X132299548Y-57481680D01*
X132299548Y-57481680D02*
X132347167Y-57434060D01*
X132347167Y-57434060D02*
X132347167Y-57100727D01*
X132347167Y-57100727D02*
X132156691Y-57100727D01*
X132728120Y-57243584D02*
X133204310Y-57243584D01*
X132632882Y-57529299D02*
X132966215Y-56529299D01*
X132966215Y-56529299D02*
X133299548Y-57529299D01*
X133632882Y-57529299D02*
X133632882Y-56529299D01*
X134109072Y-57529299D02*
X134109072Y-56529299D01*
X134109072Y-56529299D02*
X134680500Y-57529299D01*
X134680500Y-57529299D02*
X134680500Y-56529299D01*
X135870977Y-57481680D02*
X136013834Y-57529299D01*
X136013834Y-57529299D02*
X136251929Y-57529299D01*
X136251929Y-57529299D02*
X136347167Y-57481680D01*
X136347167Y-57481680D02*
X136394786Y-57434060D01*
X136394786Y-57434060D02*
X136442405Y-57338822D01*
X136442405Y-57338822D02*
X136442405Y-57243584D01*
X136442405Y-57243584D02*
X136394786Y-57148346D01*
X136394786Y-57148346D02*
X136347167Y-57100727D01*
X136347167Y-57100727D02*
X136251929Y-57053108D01*
X136251929Y-57053108D02*
X136061453Y-57005489D01*
X136061453Y-57005489D02*
X135966215Y-56957870D01*
X135966215Y-56957870D02*
X135918596Y-56910251D01*
X135918596Y-56910251D02*
X135870977Y-56815013D01*
X135870977Y-56815013D02*
X135870977Y-56719775D01*
X135870977Y-56719775D02*
X135918596Y-56624537D01*
X135918596Y-56624537D02*
X135966215Y-56576918D01*
X135966215Y-56576918D02*
X136061453Y-56529299D01*
X136061453Y-56529299D02*
X136299548Y-56529299D01*
X136299548Y-56529299D02*
X136442405Y-56576918D01*
X136728120Y-56529299D02*
X137299548Y-56529299D01*
X137013834Y-57529299D02*
X137013834Y-56529299D01*
X137585263Y-57243584D02*
X138061453Y-57243584D01*
X137490025Y-57529299D02*
X137823358Y-56529299D01*
X137823358Y-56529299D02*
X138156691Y-57529299D01*
X139013834Y-56576918D02*
X138918596Y-56529299D01*
X138918596Y-56529299D02*
X138775739Y-56529299D01*
X138775739Y-56529299D02*
X138632882Y-56576918D01*
X138632882Y-56576918D02*
X138537644Y-56672156D01*
X138537644Y-56672156D02*
X138490025Y-56767394D01*
X138490025Y-56767394D02*
X138442406Y-56957870D01*
X138442406Y-56957870D02*
X138442406Y-57100727D01*
X138442406Y-57100727D02*
X138490025Y-57291203D01*
X138490025Y-57291203D02*
X138537644Y-57386441D01*
X138537644Y-57386441D02*
X138632882Y-57481680D01*
X138632882Y-57481680D02*
X138775739Y-57529299D01*
X138775739Y-57529299D02*
X138870977Y-57529299D01*
X138870977Y-57529299D02*
X139013834Y-57481680D01*
X139013834Y-57481680D02*
X139061453Y-57434060D01*
X139061453Y-57434060D02*
X139061453Y-57100727D01*
X139061453Y-57100727D02*
X138870977Y-57100727D01*
X139490025Y-57005489D02*
X139823358Y-57005489D01*
X139966215Y-57529299D02*
X139490025Y-57529299D01*
X139490025Y-57529299D02*
X139490025Y-56529299D01*
X139490025Y-56529299D02*
X139966215Y-56529299D01*
D11*
X144457419Y-133773808D02*
X144457419Y-133154761D01*
X144457419Y-133154761D02*
X144838371Y-133488094D01*
X144838371Y-133488094D02*
X144838371Y-133345237D01*
X144838371Y-133345237D02*
X144885990Y-133249999D01*
X144885990Y-133249999D02*
X144933609Y-133202380D01*
X144933609Y-133202380D02*
X145028847Y-133154761D01*
X145028847Y-133154761D02*
X145266942Y-133154761D01*
X145266942Y-133154761D02*
X145362180Y-133202380D01*
X145362180Y-133202380D02*
X145409800Y-133249999D01*
X145409800Y-133249999D02*
X145457419Y-133345237D01*
X145457419Y-133345237D02*
X145457419Y-133630951D01*
X145457419Y-133630951D02*
X145409800Y-133726189D01*
X145409800Y-133726189D02*
X145362180Y-133773808D01*
X144457419Y-132821427D02*
X144457419Y-132202380D01*
X144457419Y-132202380D02*
X144838371Y-132535713D01*
X144838371Y-132535713D02*
X144838371Y-132392856D01*
X144838371Y-132392856D02*
X144885990Y-132297618D01*
X144885990Y-132297618D02*
X144933609Y-132249999D01*
X144933609Y-132249999D02*
X145028847Y-132202380D01*
X145028847Y-132202380D02*
X145266942Y-132202380D01*
X145266942Y-132202380D02*
X145362180Y-132249999D01*
X145362180Y-132249999D02*
X145409800Y-132297618D01*
X145409800Y-132297618D02*
X145457419Y-132392856D01*
X145457419Y-132392856D02*
X145457419Y-132678570D01*
X145457419Y-132678570D02*
X145409800Y-132773808D01*
X145409800Y-132773808D02*
X145362180Y-132821427D01*
X145457419Y-131011903D02*
X144790752Y-131011903D01*
X144885990Y-131011903D02*
X144838371Y-130964284D01*
X144838371Y-130964284D02*
X144790752Y-130869046D01*
X144790752Y-130869046D02*
X144790752Y-130726189D01*
X144790752Y-130726189D02*
X144838371Y-130630951D01*
X144838371Y-130630951D02*
X144933609Y-130583332D01*
X144933609Y-130583332D02*
X145457419Y-130583332D01*
X144933609Y-130583332D02*
X144838371Y-130535713D01*
X144838371Y-130535713D02*
X144790752Y-130440475D01*
X144790752Y-130440475D02*
X144790752Y-130297618D01*
X144790752Y-130297618D02*
X144838371Y-130202379D01*
X144838371Y-130202379D02*
X144933609Y-130154760D01*
X144933609Y-130154760D02*
X145457419Y-130154760D01*
X145457419Y-129678570D02*
X144790752Y-129678570D01*
X144885990Y-129678570D02*
X144838371Y-129630951D01*
X144838371Y-129630951D02*
X144790752Y-129535713D01*
X144790752Y-129535713D02*
X144790752Y-129392856D01*
X144790752Y-129392856D02*
X144838371Y-129297618D01*
X144838371Y-129297618D02*
X144933609Y-129249999D01*
X144933609Y-129249999D02*
X145457419Y-129249999D01*
X144933609Y-129249999D02*
X144838371Y-129202380D01*
X144838371Y-129202380D02*
X144790752Y-129107142D01*
X144790752Y-129107142D02*
X144790752Y-128964285D01*
X144790752Y-128964285D02*
X144838371Y-128869046D01*
X144838371Y-128869046D02*
X144933609Y-128821427D01*
X144933609Y-128821427D02*
X145457419Y-128821427D01*
X146600000Y-114750000D02*
X146686420Y-114750000D01*
X146600000Y-147750000D02*
X146686420Y-147750000D01*
X146100000Y-114750000D02*
X146100000Y-147750000D01*
X146100000Y-114750000D02*
X146100000Y-147750000D01*
X146100000Y-114750000D02*
X146686421Y-115876504D01*
X146100000Y-114750000D02*
X145513579Y-115876504D01*
X146100000Y-147750000D02*
X145513579Y-146623496D01*
X146100000Y-147750000D02*
X146686421Y-146623496D01*
X131735991Y-135023808D02*
X131688372Y-135119046D01*
X131688372Y-135119046D02*
X131640753Y-135166665D01*
X131640753Y-135166665D02*
X131545515Y-135214284D01*
X131545515Y-135214284D02*
X131497896Y-135214284D01*
X131497896Y-135214284D02*
X131402658Y-135166665D01*
X131402658Y-135166665D02*
X131355039Y-135119046D01*
X131355039Y-135119046D02*
X131307420Y-135023808D01*
X131307420Y-135023808D02*
X131307420Y-134833332D01*
X131307420Y-134833332D02*
X131355039Y-134738094D01*
X131355039Y-134738094D02*
X131402658Y-134690475D01*
X131402658Y-134690475D02*
X131497896Y-134642856D01*
X131497896Y-134642856D02*
X131545515Y-134642856D01*
X131545515Y-134642856D02*
X131640753Y-134690475D01*
X131640753Y-134690475D02*
X131688372Y-134738094D01*
X131688372Y-134738094D02*
X131735991Y-134833332D01*
X131735991Y-134833332D02*
X131735991Y-135023808D01*
X131735991Y-135023808D02*
X131783610Y-135119046D01*
X131783610Y-135119046D02*
X131831229Y-135166665D01*
X131831229Y-135166665D02*
X131926467Y-135214284D01*
X131926467Y-135214284D02*
X132116943Y-135214284D01*
X132116943Y-135214284D02*
X132212181Y-135166665D01*
X132212181Y-135166665D02*
X132259801Y-135119046D01*
X132259801Y-135119046D02*
X132307420Y-135023808D01*
X132307420Y-135023808D02*
X132307420Y-134833332D01*
X132307420Y-134833332D02*
X132259801Y-134738094D01*
X132259801Y-134738094D02*
X132212181Y-134690475D01*
X132212181Y-134690475D02*
X132116943Y-134642856D01*
X132116943Y-134642856D02*
X131926467Y-134642856D01*
X131926467Y-134642856D02*
X131831229Y-134690475D01*
X131831229Y-134690475D02*
X131783610Y-134738094D01*
X131783610Y-134738094D02*
X131735991Y-134833332D01*
X132212181Y-134214284D02*
X132259801Y-134166665D01*
X132259801Y-134166665D02*
X132307420Y-134214284D01*
X132307420Y-134214284D02*
X132259801Y-134261903D01*
X132259801Y-134261903D02*
X132212181Y-134214284D01*
X132212181Y-134214284D02*
X132307420Y-134214284D01*
X131307420Y-133261904D02*
X131307420Y-133738094D01*
X131307420Y-133738094D02*
X131783610Y-133785713D01*
X131783610Y-133785713D02*
X131735991Y-133738094D01*
X131735991Y-133738094D02*
X131688372Y-133642856D01*
X131688372Y-133642856D02*
X131688372Y-133404761D01*
X131688372Y-133404761D02*
X131735991Y-133309523D01*
X131735991Y-133309523D02*
X131783610Y-133261904D01*
X131783610Y-133261904D02*
X131878848Y-133214285D01*
X131878848Y-133214285D02*
X132116943Y-133214285D01*
X132116943Y-133214285D02*
X132212181Y-133261904D01*
X132212181Y-133261904D02*
X132259801Y-133309523D01*
X132259801Y-133309523D02*
X132307420Y-133404761D01*
X132307420Y-133404761D02*
X132307420Y-133642856D01*
X132307420Y-133642856D02*
X132259801Y-133738094D01*
X132259801Y-133738094D02*
X132212181Y-133785713D01*
X132307420Y-132023808D02*
X131640753Y-132023808D01*
X131735991Y-132023808D02*
X131688372Y-131976189D01*
X131688372Y-131976189D02*
X131640753Y-131880951D01*
X131640753Y-131880951D02*
X131640753Y-131738094D01*
X131640753Y-131738094D02*
X131688372Y-131642856D01*
X131688372Y-131642856D02*
X131783610Y-131595237D01*
X131783610Y-131595237D02*
X132307420Y-131595237D01*
X131783610Y-131595237D02*
X131688372Y-131547618D01*
X131688372Y-131547618D02*
X131640753Y-131452380D01*
X131640753Y-131452380D02*
X131640753Y-131309523D01*
X131640753Y-131309523D02*
X131688372Y-131214284D01*
X131688372Y-131214284D02*
X131783610Y-131166665D01*
X131783610Y-131166665D02*
X132307420Y-131166665D01*
X132307420Y-130690475D02*
X131640753Y-130690475D01*
X131735991Y-130690475D02*
X131688372Y-130642856D01*
X131688372Y-130642856D02*
X131640753Y-130547618D01*
X131640753Y-130547618D02*
X131640753Y-130404761D01*
X131640753Y-130404761D02*
X131688372Y-130309523D01*
X131688372Y-130309523D02*
X131783610Y-130261904D01*
X131783610Y-130261904D02*
X132307420Y-130261904D01*
X131783610Y-130261904D02*
X131688372Y-130214285D01*
X131688372Y-130214285D02*
X131640753Y-130119047D01*
X131640753Y-130119047D02*
X131640753Y-129976190D01*
X131640753Y-129976190D02*
X131688372Y-129880951D01*
X131688372Y-129880951D02*
X131783610Y-129833332D01*
X131783610Y-129833332D02*
X132307420Y-129833332D01*
X133600000Y-128250000D02*
X132363581Y-128250000D01*
X133600000Y-136750000D02*
X132363581Y-136750000D01*
X132950001Y-128250000D02*
X132950001Y-136750000D01*
X132950001Y-128250000D02*
X132950001Y-136750000D01*
X132950001Y-128250000D02*
X133536422Y-129376504D01*
X132950001Y-128250000D02*
X132363580Y-129376504D01*
X132950001Y-136750000D02*
X132363580Y-135623496D01*
X132950001Y-136750000D02*
X133536422Y-135623496D01*
X123828648Y-120350312D02*
X123257220Y-120351308D01*
X123542934Y-120350810D02*
X123541192Y-119350812D01*
X123541192Y-119350812D02*
X123446203Y-119493834D01*
X123446203Y-119493834D02*
X123351131Y-119589238D01*
X123351131Y-119589238D02*
X123255976Y-119637023D01*
X124684628Y-119682153D02*
X124685789Y-120348819D01*
X124445869Y-119301616D02*
X124209019Y-120016316D01*
X124209019Y-120016316D02*
X124828066Y-120015237D01*
X125209432Y-120252668D02*
X125257134Y-120300204D01*
X125257134Y-120300204D02*
X125209598Y-120347906D01*
X125209598Y-120347906D02*
X125161896Y-120300370D01*
X125161896Y-120300370D02*
X125209432Y-120252668D01*
X125209432Y-120252668D02*
X125209598Y-120347906D01*
X125588807Y-119347244D02*
X126207854Y-119346166D01*
X126207854Y-119346166D02*
X125875185Y-119727698D01*
X125875185Y-119727698D02*
X126018042Y-119727449D01*
X126018042Y-119727449D02*
X126113363Y-119774902D01*
X126113363Y-119774902D02*
X126161065Y-119822438D01*
X126161065Y-119822438D02*
X126208850Y-119917593D01*
X126208850Y-119917593D02*
X126209264Y-120155688D01*
X126209264Y-120155688D02*
X126161811Y-120251009D01*
X126161811Y-120251009D02*
X126114275Y-120298711D01*
X126114275Y-120298711D02*
X126019120Y-120346496D01*
X126019120Y-120346496D02*
X125733406Y-120346994D01*
X125733406Y-120346994D02*
X125638086Y-120299541D01*
X125638086Y-120299541D02*
X125590384Y-120252005D01*
X127112615Y-119344590D02*
X126636425Y-119345419D01*
X126636425Y-119345419D02*
X126589636Y-119821692D01*
X126589636Y-119821692D02*
X126637172Y-119773990D01*
X126637172Y-119773990D02*
X126732327Y-119726205D01*
X126732327Y-119726205D02*
X126970421Y-119725790D01*
X126970421Y-119725790D02*
X127065742Y-119773243D01*
X127065742Y-119773243D02*
X127113444Y-119820779D01*
X127113444Y-119820779D02*
X127161229Y-119915934D01*
X127161229Y-119915934D02*
X127161644Y-120154029D01*
X127161644Y-120154029D02*
X127114191Y-120249350D01*
X127114191Y-120249350D02*
X127066655Y-120297052D01*
X127066655Y-120297052D02*
X126971500Y-120344837D01*
X126971500Y-120344837D02*
X126733405Y-120345252D01*
X126733405Y-120345252D02*
X126638084Y-120297799D01*
X126638084Y-120297799D02*
X126590382Y-120250263D01*
X128352450Y-120342431D02*
X128351289Y-119675765D01*
X128351455Y-119771003D02*
X128398991Y-119723301D01*
X128398991Y-119723301D02*
X128494146Y-119675517D01*
X128494146Y-119675517D02*
X128637003Y-119675268D01*
X128637003Y-119675268D02*
X128732324Y-119722721D01*
X128732324Y-119722721D02*
X128780109Y-119817876D01*
X128780109Y-119817876D02*
X128781021Y-120341684D01*
X128780109Y-119817876D02*
X128827562Y-119722555D01*
X128827562Y-119722555D02*
X128922717Y-119674770D01*
X128922717Y-119674770D02*
X129065574Y-119674521D01*
X129065574Y-119674521D02*
X129160895Y-119721974D01*
X129160895Y-119721974D02*
X129208679Y-119817129D01*
X129208679Y-119817129D02*
X129209592Y-120340938D01*
X129685781Y-120340108D02*
X129684620Y-119673443D01*
X129684786Y-119768680D02*
X129732322Y-119720979D01*
X129732322Y-119720979D02*
X129827477Y-119673194D01*
X129827477Y-119673194D02*
X129970334Y-119672945D01*
X129970334Y-119672945D02*
X130065655Y-119720398D01*
X130065655Y-119720398D02*
X130113440Y-119815553D01*
X130113440Y-119815553D02*
X130114352Y-120339362D01*
X130113440Y-119815553D02*
X130160893Y-119720232D01*
X130160893Y-119720232D02*
X130256048Y-119672447D01*
X130256048Y-119672447D02*
X130398905Y-119672198D01*
X130398905Y-119672198D02*
X130494226Y-119719651D01*
X130494226Y-119719651D02*
X130542010Y-119814806D01*
X130542010Y-119814806D02*
X130542923Y-120338615D01*
X119762571Y-128215525D02*
X119748979Y-120413581D01*
X134112571Y-128190525D02*
X134098979Y-120388581D01*
X119750000Y-121000000D02*
X134100000Y-120975000D01*
X119750000Y-121000000D02*
X134100000Y-120975000D01*
X119750000Y-121000000D02*
X120875480Y-120411618D01*
X119750000Y-121000000D02*
X120877524Y-121584457D01*
X134100000Y-120975000D02*
X132974520Y-121563382D01*
X134100000Y-120975000D02*
X132972476Y-120390543D01*
X138632419Y-139119047D02*
X138632419Y-139690475D01*
X138632419Y-139404761D02*
X137632419Y-139404761D01*
X137632419Y-139404761D02*
X137775276Y-139499999D01*
X137775276Y-139499999D02*
X137870514Y-139595237D01*
X137870514Y-139595237D02*
X137918133Y-139690475D01*
X137632419Y-138261904D02*
X137632419Y-138452380D01*
X137632419Y-138452380D02*
X137680038Y-138547618D01*
X137680038Y-138547618D02*
X137727657Y-138595237D01*
X137727657Y-138595237D02*
X137870514Y-138690475D01*
X137870514Y-138690475D02*
X138060990Y-138738094D01*
X138060990Y-138738094D02*
X138441942Y-138738094D01*
X138441942Y-138738094D02*
X138537180Y-138690475D01*
X138537180Y-138690475D02*
X138584800Y-138642856D01*
X138584800Y-138642856D02*
X138632419Y-138547618D01*
X138632419Y-138547618D02*
X138632419Y-138357142D01*
X138632419Y-138357142D02*
X138584800Y-138261904D01*
X138584800Y-138261904D02*
X138537180Y-138214285D01*
X138537180Y-138214285D02*
X138441942Y-138166666D01*
X138441942Y-138166666D02*
X138203847Y-138166666D01*
X138203847Y-138166666D02*
X138108609Y-138214285D01*
X138108609Y-138214285D02*
X138060990Y-138261904D01*
X138060990Y-138261904D02*
X138013371Y-138357142D01*
X138013371Y-138357142D02*
X138013371Y-138547618D01*
X138013371Y-138547618D02*
X138060990Y-138642856D01*
X138060990Y-138642856D02*
X138108609Y-138690475D01*
X138108609Y-138690475D02*
X138203847Y-138738094D01*
X138537180Y-137738094D02*
X138584800Y-137690475D01*
X138584800Y-137690475D02*
X138632419Y-137738094D01*
X138632419Y-137738094D02*
X138584800Y-137785713D01*
X138584800Y-137785713D02*
X138537180Y-137738094D01*
X138537180Y-137738094D02*
X138632419Y-137738094D01*
X137632419Y-136785714D02*
X137632419Y-137261904D01*
X137632419Y-137261904D02*
X138108609Y-137309523D01*
X138108609Y-137309523D02*
X138060990Y-137261904D01*
X138060990Y-137261904D02*
X138013371Y-137166666D01*
X138013371Y-137166666D02*
X138013371Y-136928571D01*
X138013371Y-136928571D02*
X138060990Y-136833333D01*
X138060990Y-136833333D02*
X138108609Y-136785714D01*
X138108609Y-136785714D02*
X138203847Y-136738095D01*
X138203847Y-136738095D02*
X138441942Y-136738095D01*
X138441942Y-136738095D02*
X138537180Y-136785714D01*
X138537180Y-136785714D02*
X138584800Y-136833333D01*
X138584800Y-136833333D02*
X138632419Y-136928571D01*
X138632419Y-136928571D02*
X138632419Y-137166666D01*
X138632419Y-137166666D02*
X138584800Y-137261904D01*
X138584800Y-137261904D02*
X138537180Y-137309523D01*
X138632419Y-135547618D02*
X137965752Y-135547618D01*
X138060990Y-135547618D02*
X138013371Y-135499999D01*
X138013371Y-135499999D02*
X137965752Y-135404761D01*
X137965752Y-135404761D02*
X137965752Y-135261904D01*
X137965752Y-135261904D02*
X138013371Y-135166666D01*
X138013371Y-135166666D02*
X138108609Y-135119047D01*
X138108609Y-135119047D02*
X138632419Y-135119047D01*
X138108609Y-135119047D02*
X138013371Y-135071428D01*
X138013371Y-135071428D02*
X137965752Y-134976190D01*
X137965752Y-134976190D02*
X137965752Y-134833333D01*
X137965752Y-134833333D02*
X138013371Y-134738094D01*
X138013371Y-134738094D02*
X138108609Y-134690475D01*
X138108609Y-134690475D02*
X138632419Y-134690475D01*
X138632419Y-134214285D02*
X137965752Y-134214285D01*
X138060990Y-134214285D02*
X138013371Y-134166666D01*
X138013371Y-134166666D02*
X137965752Y-134071428D01*
X137965752Y-134071428D02*
X137965752Y-133928571D01*
X137965752Y-133928571D02*
X138013371Y-133833333D01*
X138013371Y-133833333D02*
X138108609Y-133785714D01*
X138108609Y-133785714D02*
X138632419Y-133785714D01*
X138108609Y-133785714D02*
X138013371Y-133738095D01*
X138013371Y-133738095D02*
X137965752Y-133642857D01*
X137965752Y-133642857D02*
X137965752Y-133500000D01*
X137965752Y-133500000D02*
X138013371Y-133404761D01*
X138013371Y-133404761D02*
X138108609Y-133357142D01*
X138108609Y-133357142D02*
X138632419Y-133357142D01*
X137600000Y-128250000D02*
X139861420Y-128250000D01*
X137600000Y-144750000D02*
X139861420Y-144750000D01*
X139275000Y-128250000D02*
X139275000Y-144750000D01*
X139275000Y-128250000D02*
X139275000Y-144750000D01*
X139275000Y-128250000D02*
X139861421Y-129376504D01*
X139275000Y-128250000D02*
X138688579Y-129376504D01*
X139275000Y-144750000D02*
X138688579Y-143623496D01*
X139275000Y-144750000D02*
X139861421Y-143623496D01*
X142720238Y-108257419D02*
X142910714Y-108257419D01*
X142910714Y-108257419D02*
X143005952Y-108209800D01*
X143005952Y-108209800D02*
X143053571Y-108162180D01*
X143053571Y-108162180D02*
X143148809Y-108019323D01*
X143148809Y-108019323D02*
X143196428Y-107828847D01*
X143196428Y-107828847D02*
X143196428Y-107447895D01*
X143196428Y-107447895D02*
X143148809Y-107352657D01*
X143148809Y-107352657D02*
X143101190Y-107305038D01*
X143101190Y-107305038D02*
X143005952Y-107257419D01*
X143005952Y-107257419D02*
X142815476Y-107257419D01*
X142815476Y-107257419D02*
X142720238Y-107305038D01*
X142720238Y-107305038D02*
X142672619Y-107352657D01*
X142672619Y-107352657D02*
X142625000Y-107447895D01*
X142625000Y-107447895D02*
X142625000Y-107685990D01*
X142625000Y-107685990D02*
X142672619Y-107781228D01*
X142672619Y-107781228D02*
X142720238Y-107828847D01*
X142720238Y-107828847D02*
X142815476Y-107876466D01*
X142815476Y-107876466D02*
X143005952Y-107876466D01*
X143005952Y-107876466D02*
X143101190Y-107828847D01*
X143101190Y-107828847D02*
X143148809Y-107781228D01*
X143148809Y-107781228D02*
X143196428Y-107685990D01*
X144386905Y-108257419D02*
X144386905Y-107590752D01*
X144386905Y-107685990D02*
X144434524Y-107638371D01*
X144434524Y-107638371D02*
X144529762Y-107590752D01*
X144529762Y-107590752D02*
X144672619Y-107590752D01*
X144672619Y-107590752D02*
X144767857Y-107638371D01*
X144767857Y-107638371D02*
X144815476Y-107733609D01*
X144815476Y-107733609D02*
X144815476Y-108257419D01*
X144815476Y-107733609D02*
X144863095Y-107638371D01*
X144863095Y-107638371D02*
X144958333Y-107590752D01*
X144958333Y-107590752D02*
X145101190Y-107590752D01*
X145101190Y-107590752D02*
X145196429Y-107638371D01*
X145196429Y-107638371D02*
X145244048Y-107733609D01*
X145244048Y-107733609D02*
X145244048Y-108257419D01*
X145720238Y-108257419D02*
X145720238Y-107590752D01*
X145720238Y-107685990D02*
X145767857Y-107638371D01*
X145767857Y-107638371D02*
X145863095Y-107590752D01*
X145863095Y-107590752D02*
X146005952Y-107590752D01*
X146005952Y-107590752D02*
X146101190Y-107638371D01*
X146101190Y-107638371D02*
X146148809Y-107733609D01*
X146148809Y-107733609D02*
X146148809Y-108257419D01*
X146148809Y-107733609D02*
X146196428Y-107638371D01*
X146196428Y-107638371D02*
X146291666Y-107590752D01*
X146291666Y-107590752D02*
X146434523Y-107590752D01*
X146434523Y-107590752D02*
X146529762Y-107638371D01*
X146529762Y-107638371D02*
X146577381Y-107733609D01*
X146577381Y-107733609D02*
X146577381Y-108257419D01*
X140125000Y-111250000D02*
X140125000Y-108313580D01*
X149125000Y-111250000D02*
X149125000Y-108313580D01*
X140125000Y-108900000D02*
X149125000Y-108900000D01*
X140125000Y-108900000D02*
X149125000Y-108900000D01*
X140125000Y-108900000D02*
X141251504Y-108313579D01*
X140125000Y-108900000D02*
X141251504Y-109486421D01*
X149125000Y-108900000D02*
X147998496Y-109486421D01*
X149125000Y-108900000D02*
X147998496Y-108313579D01*
X95452281Y-87480744D02*
X96118948Y-87481186D01*
X96118948Y-87481186D02*
X95689713Y-88480902D01*
X96928471Y-87481723D02*
X96737995Y-87481597D01*
X96737995Y-87481597D02*
X96642726Y-87529153D01*
X96642726Y-87529153D02*
X96595075Y-87576740D01*
X96595075Y-87576740D02*
X96499742Y-87719534D01*
X96499742Y-87719534D02*
X96451997Y-87909979D01*
X96451997Y-87909979D02*
X96451744Y-88290931D01*
X96451744Y-88290931D02*
X96499300Y-88386201D01*
X96499300Y-88386201D02*
X96546887Y-88433851D01*
X96546887Y-88433851D02*
X96642094Y-88481534D01*
X96642094Y-88481534D02*
X96832570Y-88481660D01*
X96832570Y-88481660D02*
X96927839Y-88434104D01*
X96927839Y-88434104D02*
X96975490Y-88386517D01*
X96975490Y-88386517D02*
X97023172Y-88291310D01*
X97023172Y-88291310D02*
X97023330Y-88053215D01*
X97023330Y-88053215D02*
X96975774Y-87957945D01*
X96975774Y-87957945D02*
X96928187Y-87910295D01*
X96928187Y-87910295D02*
X96832981Y-87862613D01*
X96832981Y-87862613D02*
X96642504Y-87862486D01*
X96642504Y-87862486D02*
X96547235Y-87910042D01*
X96547235Y-87910042D02*
X96499584Y-87957629D01*
X96499584Y-87957629D02*
X96451902Y-88052836D01*
X98213522Y-88482576D02*
X98213965Y-87815910D01*
X98213901Y-87911148D02*
X98261552Y-87863561D01*
X98261552Y-87863561D02*
X98356822Y-87816005D01*
X98356822Y-87816005D02*
X98499679Y-87816100D01*
X98499679Y-87816100D02*
X98594885Y-87863782D01*
X98594885Y-87863782D02*
X98642441Y-87959051D01*
X98642441Y-87959051D02*
X98642093Y-88482861D01*
X98642441Y-87959051D02*
X98690123Y-87863845D01*
X98690123Y-87863845D02*
X98785393Y-87816289D01*
X98785393Y-87816289D02*
X98928250Y-87816384D01*
X98928250Y-87816384D02*
X99023457Y-87864066D01*
X99023457Y-87864066D02*
X99071012Y-87959336D01*
X99071012Y-87959336D02*
X99070665Y-88483145D01*
X99546855Y-88483461D02*
X99547297Y-87816795D01*
X99547234Y-87912033D02*
X99594885Y-87864445D01*
X99594885Y-87864445D02*
X99690154Y-87816889D01*
X99690154Y-87816889D02*
X99833011Y-87816984D01*
X99833011Y-87816984D02*
X99928218Y-87864667D01*
X99928218Y-87864667D02*
X99975774Y-87959936D01*
X99975774Y-87959936D02*
X99975426Y-88483746D01*
X99975774Y-87959936D02*
X100023456Y-87864730D01*
X100023456Y-87864730D02*
X100118726Y-87817174D01*
X100118726Y-87817174D02*
X100261583Y-87817269D01*
X100261583Y-87817269D02*
X100356789Y-87864951D01*
X100356789Y-87864951D02*
X100404345Y-87960221D01*
X100404345Y-87960221D02*
X100403998Y-88484030D01*
X135649668Y-89650000D02*
X135649611Y-89736420D01*
X60299668Y-89600000D02*
X60299611Y-89686420D01*
X135650000Y-89150000D02*
X60300000Y-89100000D01*
X135650000Y-89150000D02*
X60300000Y-89100000D01*
X135650000Y-89150000D02*
X134523107Y-89735673D01*
X135650000Y-89150000D02*
X134523886Y-88562832D01*
X60300000Y-89100000D02*
X61426893Y-88514327D01*
X60300000Y-89100000D02*
X61426114Y-89687168D01*
X132482419Y-145154761D02*
X132482419Y-144964285D01*
X132482419Y-144964285D02*
X132434800Y-144869047D01*
X132434800Y-144869047D02*
X132387180Y-144821428D01*
X132387180Y-144821428D02*
X132244323Y-144726190D01*
X132244323Y-144726190D02*
X132053847Y-144678571D01*
X132053847Y-144678571D02*
X131672895Y-144678571D01*
X131672895Y-144678571D02*
X131577657Y-144726190D01*
X131577657Y-144726190D02*
X131530038Y-144773809D01*
X131530038Y-144773809D02*
X131482419Y-144869047D01*
X131482419Y-144869047D02*
X131482419Y-145059523D01*
X131482419Y-145059523D02*
X131530038Y-145154761D01*
X131530038Y-145154761D02*
X131577657Y-145202380D01*
X131577657Y-145202380D02*
X131672895Y-145249999D01*
X131672895Y-145249999D02*
X131910990Y-145249999D01*
X131910990Y-145249999D02*
X132006228Y-145202380D01*
X132006228Y-145202380D02*
X132053847Y-145154761D01*
X132053847Y-145154761D02*
X132101466Y-145059523D01*
X132101466Y-145059523D02*
X132101466Y-144869047D01*
X132101466Y-144869047D02*
X132053847Y-144773809D01*
X132053847Y-144773809D02*
X132006228Y-144726190D01*
X132006228Y-144726190D02*
X131910990Y-144678571D01*
X132482419Y-143488094D02*
X131815752Y-143488094D01*
X131910990Y-143488094D02*
X131863371Y-143440475D01*
X131863371Y-143440475D02*
X131815752Y-143345237D01*
X131815752Y-143345237D02*
X131815752Y-143202380D01*
X131815752Y-143202380D02*
X131863371Y-143107142D01*
X131863371Y-143107142D02*
X131958609Y-143059523D01*
X131958609Y-143059523D02*
X132482419Y-143059523D01*
X131958609Y-143059523D02*
X131863371Y-143011904D01*
X131863371Y-143011904D02*
X131815752Y-142916666D01*
X131815752Y-142916666D02*
X131815752Y-142773809D01*
X131815752Y-142773809D02*
X131863371Y-142678570D01*
X131863371Y-142678570D02*
X131958609Y-142630951D01*
X131958609Y-142630951D02*
X132482419Y-142630951D01*
X132482419Y-142154761D02*
X131815752Y-142154761D01*
X131910990Y-142154761D02*
X131863371Y-142107142D01*
X131863371Y-142107142D02*
X131815752Y-142011904D01*
X131815752Y-142011904D02*
X131815752Y-141869047D01*
X131815752Y-141869047D02*
X131863371Y-141773809D01*
X131863371Y-141773809D02*
X131958609Y-141726190D01*
X131958609Y-141726190D02*
X132482419Y-141726190D01*
X131958609Y-141726190D02*
X131863371Y-141678571D01*
X131863371Y-141678571D02*
X131815752Y-141583333D01*
X131815752Y-141583333D02*
X131815752Y-141440476D01*
X131815752Y-141440476D02*
X131863371Y-141345237D01*
X131863371Y-141345237D02*
X131958609Y-141297618D01*
X131958609Y-141297618D02*
X132482419Y-141297618D01*
X133600000Y-138750000D02*
X132538580Y-138750000D01*
X133600000Y-147750000D02*
X132538580Y-147750000D01*
X133125000Y-138750000D02*
X133125000Y-147750000D01*
X133125000Y-138750000D02*
X133125000Y-147750000D01*
X133125000Y-138750000D02*
X133711421Y-139876504D01*
X133125000Y-138750000D02*
X132538579Y-139876504D01*
X133125000Y-147750000D02*
X132538579Y-146623496D01*
X133125000Y-147750000D02*
X133711421Y-146623496D01*
D12*
X72320000Y-78556359D02*
X72320000Y-78863641D01*
X73080000Y-78556359D02*
X73080000Y-78863641D01*
X81720000Y-69470121D02*
X81720000Y-69134879D01*
X82480000Y-69470121D02*
X82480000Y-69134879D01*
X119890000Y-78737221D02*
X119890000Y-79062779D01*
X120910000Y-78737221D02*
X120910000Y-79062779D01*
X120120000Y-76246359D02*
X120120000Y-76553641D01*
X120880000Y-76246359D02*
X120880000Y-76553641D01*
X68532379Y-73620000D02*
X68867621Y-73620000D01*
X68532379Y-74380000D02*
X68867621Y-74380000D01*
X79092164Y-65140000D02*
X79307836Y-65140000D01*
X79092164Y-65860000D02*
X79307836Y-65860000D01*
X119720000Y-72946359D02*
X119720000Y-73253641D01*
X120480000Y-72946359D02*
X120480000Y-73253641D01*
X132265000Y-95850000D02*
X132765000Y-95350000D01*
X132765000Y-95350000D02*
X132265000Y-94850000D01*
X132240000Y-91440000D02*
X140060000Y-91440000D01*
X140060000Y-99260000D01*
X132240000Y-99260000D01*
X132240000Y-91440000D01*
X124512742Y-78927500D02*
X124987258Y-78927500D01*
X124512742Y-79972500D02*
X124987258Y-79972500D01*
X123932500Y-70886359D02*
X123932500Y-71193641D01*
X124692500Y-70886359D02*
X124692500Y-71193641D01*
X124592164Y-68140000D02*
X124807836Y-68140000D01*
X124592164Y-68860000D02*
X124807836Y-68860000D01*
X78120000Y-73146359D02*
X78120000Y-73453641D01*
X78880000Y-73146359D02*
X78880000Y-73453641D01*
X76212742Y-78177500D02*
X76687258Y-78177500D01*
X76212742Y-79222500D02*
X76687258Y-79222500D01*
X69990000Y-74797621D02*
X69990000Y-74462379D01*
X70750000Y-74797621D02*
X70750000Y-74462379D01*
X106910000Y-130677621D02*
X106910000Y-130342379D01*
X107670000Y-130677621D02*
X107670000Y-130342379D01*
X79259420Y-58490000D02*
X79540580Y-58490000D01*
X79259420Y-59510000D02*
X79540580Y-59510000D01*
X121990000Y-74350000D02*
X121990000Y-72940000D01*
X124310000Y-74340000D02*
X124310000Y-72940000D01*
X122040000Y-74720000D02*
X121710000Y-74960000D01*
X121710000Y-74480000D01*
X122040000Y-74720000D01*
G36*
X122040000Y-74720000D02*
G01*
X121710000Y-74960000D01*
X121710000Y-74480000D01*
X122040000Y-74720000D01*
G37*
X74787221Y-64740000D02*
X75112779Y-64740000D01*
X74787221Y-65760000D02*
X75112779Y-65760000D01*
X120329879Y-74420000D02*
X120665121Y-74420000D01*
X120329879Y-75180000D02*
X120665121Y-75180000D01*
X63485000Y-95400000D02*
X63985000Y-95900000D01*
X63985000Y-94900000D02*
X63485000Y-95400000D01*
X64010000Y-99310000D02*
X56190000Y-99310000D01*
X56190000Y-91490000D01*
X64010000Y-91490000D01*
X64010000Y-99310000D01*
X72170000Y-68986359D02*
X72170000Y-69293641D01*
X72930000Y-68986359D02*
X72930000Y-69293641D01*
X72267621Y-73620000D02*
X71932379Y-73620000D01*
X72267621Y-74380000D02*
X71932379Y-74380000D01*
X72170000Y-75937221D02*
X72170000Y-76262779D01*
X73190000Y-75937221D02*
X73190000Y-76262779D01*
X72370000Y-72221359D02*
X72370000Y-72528641D01*
X73130000Y-72221359D02*
X73130000Y-72528641D01*
X70640000Y-67387221D02*
X70640000Y-67712779D01*
X71660000Y-67387221D02*
X71660000Y-67712779D01*
X124592164Y-67140000D02*
X124807836Y-67140000D01*
X124592164Y-67860000D02*
X124807836Y-67860000D01*
X121262779Y-70690000D02*
X120937221Y-70690000D01*
X121262779Y-71710000D02*
X120937221Y-71710000D01*
X79092164Y-64190000D02*
X79307836Y-64190000D01*
X79092164Y-64910000D02*
X79307836Y-64910000D01*
X79153641Y-60270000D02*
X78846359Y-60270000D01*
X79153641Y-61030000D02*
X78846359Y-61030000D01*
X124312164Y-77790000D02*
X124527836Y-77790000D01*
X124312164Y-78510000D02*
X124527836Y-78510000D01*
X76590000Y-68360000D02*
X76590000Y-66950000D01*
X78910000Y-68350000D02*
X78910000Y-66950000D01*
X76640000Y-68730000D02*
X76310000Y-68970000D01*
X76310000Y-68490000D01*
X76640000Y-68730000D01*
G36*
X76640000Y-68730000D02*
G01*
X76310000Y-68970000D01*
X76310000Y-68490000D01*
X76640000Y-68730000D01*
G37*
X112440000Y-75597621D02*
X112440000Y-75262379D01*
X113200000Y-75597621D02*
X113200000Y-75262379D01*
X77990000Y-70637221D02*
X77990000Y-70962779D01*
X79010000Y-70637221D02*
X79010000Y-70962779D01*
X80567621Y-68320000D02*
X80232379Y-68320000D01*
X80567621Y-69080000D02*
X80232379Y-69080000D01*
X111460000Y-74800000D02*
X111960000Y-75300000D01*
X111960000Y-74300000D02*
X111460000Y-74800000D01*
X111985000Y-78710000D02*
X104165000Y-78710000D01*
X104165000Y-70890000D01*
X111985000Y-70890000D01*
X111985000Y-78710000D01*
X79092164Y-63240000D02*
X79307836Y-63240000D01*
X79092164Y-63960000D02*
X79307836Y-63960000D01*
X66670000Y-74457379D02*
X66670000Y-74792621D01*
X67430000Y-74457379D02*
X67430000Y-74792621D01*
X118242621Y-74415000D02*
X117907379Y-74415000D01*
X118242621Y-75175000D02*
X117907379Y-75175000D01*
X125650000Y-66935000D02*
X127935000Y-66935000D01*
X127935000Y-65465000D02*
X125650000Y-65465000D01*
X127935000Y-66935000D02*
X127935000Y-65465000D01*
X73677500Y-70360000D02*
X73677500Y-68950000D01*
X75997500Y-70350000D02*
X75997500Y-68950000D01*
X73727500Y-70730000D02*
X73397500Y-70970000D01*
X73397500Y-70490000D01*
X73727500Y-70730000D01*
G36*
X73727500Y-70730000D02*
G01*
X73397500Y-70970000D01*
X73397500Y-70490000D01*
X73727500Y-70730000D01*
G37*
X117302500Y-66699420D02*
X117302500Y-66980580D01*
X118322500Y-66699420D02*
X118322500Y-66980580D01*
X110170000Y-130687621D02*
X110170000Y-130352379D01*
X110930000Y-130687621D02*
X110930000Y-130352379D01*
X115895000Y-75617621D02*
X115895000Y-75282379D01*
X116655000Y-75617621D02*
X116655000Y-75282379D01*
X73640000Y-58290000D02*
X76360000Y-58290000D01*
X73640000Y-59270000D02*
X73640000Y-58290000D01*
X73640000Y-62030000D02*
X73640000Y-63010000D01*
X76220000Y-63010000D02*
X73640000Y-63010000D01*
X77010000Y-63190000D02*
X76530000Y-63190000D01*
X76770000Y-62860000D01*
X77010000Y-63190000D01*
G36*
X77010000Y-63190000D02*
G01*
X76530000Y-63190000D01*
X76770000Y-62860000D01*
X77010000Y-63190000D01*
G37*
X71687221Y-64740000D02*
X72012779Y-64740000D01*
X71687221Y-65760000D02*
X72012779Y-65760000D01*
X112357621Y-129510000D02*
X112022379Y-129510000D01*
X112357621Y-130270000D02*
X112022379Y-130270000D01*
X109077621Y-129510000D02*
X108742379Y-129510000D01*
X109077621Y-130270000D02*
X108742379Y-130270000D01*
X75420000Y-66846359D02*
X75420000Y-67153641D01*
X76180000Y-66846359D02*
X76180000Y-67153641D01*
X123520000Y-76667621D02*
X123520000Y-76332379D01*
X124280000Y-76667621D02*
X124280000Y-76332379D01*
X65560000Y-74050000D02*
X66060000Y-74550000D01*
X66060000Y-73550000D02*
X65560000Y-74050000D01*
X66085000Y-77960000D02*
X58265000Y-77960000D01*
X58265000Y-70140000D01*
X66085000Y-70140000D01*
X66085000Y-77960000D01*
X114690121Y-74420000D02*
X114354879Y-74420000D01*
X114690121Y-75180000D02*
X114354879Y-75180000D01*
X104210000Y-129900000D02*
X104710000Y-130400000D01*
X104710000Y-129400000D02*
X104210000Y-129900000D01*
X104735000Y-133810000D02*
X96915000Y-133810000D01*
X96915000Y-125990000D01*
X104735000Y-125990000D01*
X104735000Y-133810000D01*
X129292621Y-72220000D02*
X128957379Y-72220000D01*
X129292621Y-72980000D02*
X128957379Y-72980000D01*
X119502500Y-65442500D02*
X122222500Y-65442500D01*
X119502500Y-66422500D02*
X119502500Y-65442500D01*
X119502500Y-69182500D02*
X119502500Y-70162500D01*
X122082500Y-70162500D02*
X119502500Y-70162500D01*
X122872500Y-70342500D02*
X122392500Y-70342500D01*
X122632500Y-70012500D01*
X122872500Y-70342500D01*
G36*
X122872500Y-70342500D02*
G01*
X122392500Y-70342500D01*
X122632500Y-70012500D01*
X122872500Y-70342500D01*
G37*
X131665000Y-73075000D02*
X132165000Y-72575000D01*
X132165000Y-72575000D02*
X131665000Y-72075000D01*
X131640000Y-68665000D02*
X139460000Y-68665000D01*
X139460000Y-76485000D01*
X131640000Y-76485000D01*
X131640000Y-68665000D01*
X75225427Y-75578786D02*
X75225427Y-75914028D01*
X75985427Y-75578786D02*
X75985427Y-75914028D01*
X72142164Y-70515000D02*
X72357836Y-70515000D01*
X72142164Y-71235000D02*
X72357836Y-71235000D01*
X75992164Y-77040000D02*
X76207836Y-77040000D01*
X75992164Y-77760000D02*
X76207836Y-77760000D01*
X130395000Y-73392621D02*
X130395000Y-73057379D01*
X131155000Y-73392621D02*
X131155000Y-73057379D01*
X78600000Y-62985000D02*
X80885000Y-62985000D01*
X80885000Y-61515000D02*
X78600000Y-61515000D01*
X80885000Y-62985000D02*
X80885000Y-61515000D01*
X124592164Y-69190000D02*
X124807836Y-69190000D01*
X124592164Y-69910000D02*
X124807836Y-69910000D01*
X83967621Y-68320000D02*
X83632379Y-68320000D01*
X83967621Y-69080000D02*
X83632379Y-69080000D01*
X73677500Y-73710000D02*
X73677500Y-72300000D01*
X75997500Y-73700000D02*
X75997500Y-72300000D01*
X73727500Y-74080000D02*
X73397500Y-74320000D01*
X73397500Y-73840000D01*
X73727500Y-74080000D01*
G36*
X73727500Y-74080000D02*
G01*
X73397500Y-74320000D01*
X73397500Y-73840000D01*
X73727500Y-74080000D01*
G37*
X86335000Y-69230000D02*
X86835000Y-68730000D01*
X86835000Y-68730000D02*
X86335000Y-68230000D01*
X86310000Y-64820000D02*
X94130000Y-64820000D01*
X94130000Y-72640000D01*
X86310000Y-72640000D01*
X86310000Y-64820000D01*
X85120000Y-69467621D02*
X85120000Y-69132379D01*
X85880000Y-69467621D02*
X85880000Y-69132379D01*
X128170000Y-65753641D02*
X128170000Y-65446359D01*
X128930000Y-65753641D02*
X128930000Y-65446359D01*
X125917621Y-72220000D02*
X125582379Y-72220000D01*
X125917621Y-72980000D02*
X125582379Y-72980000D01*
X127070000Y-73392621D02*
X127070000Y-73057379D01*
X127830000Y-73392621D02*
X127830000Y-73057379D01*
%LPC*%
D13*
X54220000Y-100040000D03*
X53560000Y-146770000D03*
X110930000Y-56380000D03*
X144860000Y-100870000D03*
D14*
X123830000Y-146850000D03*
X57090000Y-56110000D03*
X141940000Y-62070000D03*
D15*
X72700000Y-78200000D03*
X72700000Y-79220000D03*
D16*
X82100000Y-69900000D03*
X82100000Y-68705000D03*
D17*
X120400000Y-78112500D03*
X120400000Y-79687500D03*
D15*
X120500000Y-75890000D03*
X120500000Y-76910000D03*
D18*
X68102500Y-74000000D03*
X69297500Y-74000000D03*
D19*
X78720000Y-65500000D03*
X79680000Y-65500000D03*
D15*
X120100000Y-72590000D03*
X120100000Y-73610000D03*
D20*
X136150000Y-95350000D03*
D21*
X133600000Y-92800000D03*
X133600000Y-97900000D03*
X138700000Y-92800000D03*
X138700000Y-97900000D03*
D22*
X123925000Y-79450000D03*
X125575000Y-79450000D03*
D15*
X124312500Y-70530000D03*
X124312500Y-71550000D03*
D19*
X124220000Y-68500000D03*
X125180000Y-68500000D03*
D15*
X78500000Y-72790000D03*
X78500000Y-73810000D03*
D22*
X75625000Y-78700000D03*
X77275000Y-78700000D03*
D16*
X70370000Y-75227500D03*
X70370000Y-74032500D03*
X107290000Y-131107500D03*
X107290000Y-129912500D03*
D23*
X78625000Y-59000000D03*
X80175000Y-59000000D03*
D24*
X122650000Y-74700000D03*
X122650000Y-72680000D03*
D25*
X123800000Y-74700000D03*
D24*
X123950000Y-72680000D03*
D26*
X123612500Y-63640000D03*
D27*
X119412500Y-63640000D03*
D28*
X74162500Y-65250000D03*
X75737500Y-65250000D03*
D18*
X119900000Y-74800000D03*
X121095000Y-74800000D03*
D29*
X60100000Y-95400000D03*
D21*
X62650000Y-97950000D03*
X62650000Y-92850000D03*
X57550000Y-97950000D03*
X57550000Y-92850000D03*
D15*
X72550000Y-68630000D03*
X72550000Y-69650000D03*
D30*
X72697500Y-74000000D03*
X71502500Y-74000000D03*
D17*
X72680000Y-75312500D03*
X72680000Y-76887500D03*
D15*
X72750000Y-71865000D03*
X72750000Y-72885000D03*
D17*
X71150000Y-66762500D03*
X71150000Y-68337500D03*
D19*
X124220000Y-67500000D03*
X125180000Y-67500000D03*
D31*
X121887500Y-71200000D03*
X120312500Y-71200000D03*
D19*
X78720000Y-64550000D03*
X79680000Y-64550000D03*
D32*
X79510000Y-60650000D03*
X78490000Y-60650000D03*
D19*
X123940000Y-78150000D03*
X124900000Y-78150000D03*
D24*
X77250000Y-68710000D03*
X77250000Y-66690000D03*
D25*
X78400000Y-68710000D03*
D24*
X78550000Y-66690000D03*
D16*
X112820000Y-76027500D03*
X112820000Y-74832500D03*
D17*
X78500000Y-70012500D03*
X78500000Y-71587500D03*
D30*
X80997500Y-68700000D03*
X79802500Y-68700000D03*
D29*
X108075000Y-74800000D03*
D21*
X110625000Y-77350000D03*
X110625000Y-72250000D03*
X105525000Y-77350000D03*
X105525000Y-72250000D03*
D19*
X78720000Y-63600000D03*
X79680000Y-63600000D03*
D33*
X67050000Y-74027500D03*
X67050000Y-75222500D03*
D30*
X118672500Y-74795000D03*
X117477500Y-74795000D03*
D31*
X127237500Y-66200000D03*
X125662500Y-66200000D03*
D24*
X74337500Y-70710000D03*
X74337500Y-68690000D03*
D25*
X75487500Y-70710000D03*
D24*
X75637500Y-68690000D03*
D34*
X117812500Y-66065000D03*
X117812500Y-67615000D03*
D16*
X110550000Y-131117500D03*
X110550000Y-129922500D03*
X116275000Y-76047500D03*
X116275000Y-74852500D03*
D35*
X76950000Y-62150000D03*
D36*
X76862500Y-60650000D03*
D35*
X76950000Y-59150000D03*
D28*
X71062500Y-65250000D03*
X72637500Y-65250000D03*
D30*
X112787500Y-129890000D03*
X111592500Y-129890000D03*
X109507500Y-129890000D03*
X108312500Y-129890000D03*
D15*
X75800000Y-66490000D03*
X75800000Y-67510000D03*
D16*
X123900000Y-77097500D03*
X123900000Y-75902500D03*
D29*
X62175000Y-74050000D03*
D21*
X64725000Y-76600000D03*
X64725000Y-71500000D03*
X59625000Y-76600000D03*
X59625000Y-71500000D03*
D30*
X115120000Y-74800000D03*
X113925000Y-74800000D03*
D29*
X100825000Y-129900000D03*
D21*
X103375000Y-132450000D03*
X103375000Y-127350000D03*
X98275000Y-132450000D03*
X98275000Y-127350000D03*
D30*
X129722500Y-72600000D03*
X128527500Y-72600000D03*
D35*
X122812500Y-69302500D03*
D36*
X122725000Y-67802500D03*
D35*
X122812500Y-66302500D03*
D26*
X78400000Y-56600000D03*
D27*
X74200000Y-56600000D03*
D20*
X135550000Y-72575000D03*
D21*
X133000000Y-70025000D03*
X133000000Y-75125000D03*
X138100000Y-70025000D03*
X138100000Y-75125000D03*
D33*
X75605427Y-75148907D03*
X75605427Y-76343907D03*
D19*
X71770000Y-70875000D03*
X72730000Y-70875000D03*
X75620000Y-77400000D03*
X76580000Y-77400000D03*
D16*
X130775000Y-73822500D03*
X130775000Y-72627500D03*
D31*
X80187500Y-62250000D03*
X78612500Y-62250000D03*
D19*
X124220000Y-69550000D03*
X125180000Y-69550000D03*
D30*
X84397500Y-68700000D03*
X83202500Y-68700000D03*
D24*
X74337500Y-74060000D03*
X74337500Y-72040000D03*
D25*
X75487500Y-74060000D03*
D24*
X75637500Y-72040000D03*
D20*
X90220000Y-68730000D03*
D21*
X87670000Y-66180000D03*
X87670000Y-71280000D03*
X92770000Y-66180000D03*
X92770000Y-71280000D03*
D16*
X85500000Y-69897500D03*
X85500000Y-68702500D03*
D37*
X128550000Y-66110000D03*
X128550000Y-65090000D03*
D30*
X126347500Y-72600000D03*
X125152500Y-72600000D03*
D16*
X127450000Y-73822500D03*
X127450000Y-72627500D03*
%LPD*%
M02*
