%TF.GenerationSoftware,KiCad,Pcbnew,8.0.8-8.0.8-0~ubuntu24.04.1*%
%TF.CreationDate,2025-01-18T16:04:40+01:00*%
%TF.ProjectId,rf_lna,72665f6c-6e61-42e6-9b69-6361645f7063,rev?*%
%TF.SameCoordinates,Original*%
%TF.FileFunction,Drillmap*%
%TF.FilePolarity,Positive*%
%FSLAX45Y45*%
G04 Gerber Fmt 4.5, Leading zero omitted, Abs format (unit mm)*
G04 Created by KiCad (PCBNEW 8.0.8-8.0.8-0~ubuntu24.04.1) date 2025-01-18 16:04:40*
%MOMM*%
%LPD*%
G01*
G04 APERTURE LIST*
%ADD10C,0.200000*%
G04 APERTURE END LIST*
D10*
X5000000Y-5000000D02*
X15000000Y-5000000D01*
X15000000Y-15000000D01*
X5000000Y-15000000D01*
X5000000Y-5000000D01*
X5250777Y-15321484D02*
X5250777Y-15121484D01*
X5250777Y-15121484D02*
X5298396Y-15121484D01*
X5298396Y-15121484D02*
X5326967Y-15131008D01*
X5326967Y-15131008D02*
X5346015Y-15150055D01*
X5346015Y-15150055D02*
X5355539Y-15169103D01*
X5355539Y-15169103D02*
X5365063Y-15207198D01*
X5365063Y-15207198D02*
X5365063Y-15235769D01*
X5365063Y-15235769D02*
X5355539Y-15273865D01*
X5355539Y-15273865D02*
X5346015Y-15292912D01*
X5346015Y-15292912D02*
X5326967Y-15311960D01*
X5326967Y-15311960D02*
X5298396Y-15321484D01*
X5298396Y-15321484D02*
X5250777Y-15321484D01*
X5450777Y-15321484D02*
X5450777Y-15188150D01*
X5450777Y-15226246D02*
X5460301Y-15207198D01*
X5460301Y-15207198D02*
X5469824Y-15197674D01*
X5469824Y-15197674D02*
X5488872Y-15188150D01*
X5488872Y-15188150D02*
X5507920Y-15188150D01*
X5574586Y-15321484D02*
X5574586Y-15188150D01*
X5574586Y-15121484D02*
X5565063Y-15131008D01*
X5565063Y-15131008D02*
X5574586Y-15140531D01*
X5574586Y-15140531D02*
X5584110Y-15131008D01*
X5584110Y-15131008D02*
X5574586Y-15121484D01*
X5574586Y-15121484D02*
X5574586Y-15140531D01*
X5698396Y-15321484D02*
X5679348Y-15311960D01*
X5679348Y-15311960D02*
X5669824Y-15292912D01*
X5669824Y-15292912D02*
X5669824Y-15121484D01*
X5803158Y-15321484D02*
X5784110Y-15311960D01*
X5784110Y-15311960D02*
X5774586Y-15292912D01*
X5774586Y-15292912D02*
X5774586Y-15121484D01*
X6031729Y-15321484D02*
X6031729Y-15121484D01*
X6031729Y-15121484D02*
X6098396Y-15264341D01*
X6098396Y-15264341D02*
X6165062Y-15121484D01*
X6165062Y-15121484D02*
X6165062Y-15321484D01*
X6346015Y-15321484D02*
X6346015Y-15216722D01*
X6346015Y-15216722D02*
X6336491Y-15197674D01*
X6336491Y-15197674D02*
X6317443Y-15188150D01*
X6317443Y-15188150D02*
X6279348Y-15188150D01*
X6279348Y-15188150D02*
X6260301Y-15197674D01*
X6346015Y-15311960D02*
X6326967Y-15321484D01*
X6326967Y-15321484D02*
X6279348Y-15321484D01*
X6279348Y-15321484D02*
X6260301Y-15311960D01*
X6260301Y-15311960D02*
X6250777Y-15292912D01*
X6250777Y-15292912D02*
X6250777Y-15273865D01*
X6250777Y-15273865D02*
X6260301Y-15254817D01*
X6260301Y-15254817D02*
X6279348Y-15245293D01*
X6279348Y-15245293D02*
X6326967Y-15245293D01*
X6326967Y-15245293D02*
X6346015Y-15235769D01*
X6441253Y-15188150D02*
X6441253Y-15388150D01*
X6441253Y-15197674D02*
X6460301Y-15188150D01*
X6460301Y-15188150D02*
X6498396Y-15188150D01*
X6498396Y-15188150D02*
X6517443Y-15197674D01*
X6517443Y-15197674D02*
X6526967Y-15207198D01*
X6526967Y-15207198D02*
X6536491Y-15226246D01*
X6536491Y-15226246D02*
X6536491Y-15283388D01*
X6536491Y-15283388D02*
X6526967Y-15302436D01*
X6526967Y-15302436D02*
X6517443Y-15311960D01*
X6517443Y-15311960D02*
X6498396Y-15321484D01*
X6498396Y-15321484D02*
X6460301Y-15321484D01*
X6460301Y-15321484D02*
X6441253Y-15311960D01*
X6622205Y-15302436D02*
X6631729Y-15311960D01*
X6631729Y-15311960D02*
X6622205Y-15321484D01*
X6622205Y-15321484D02*
X6612682Y-15311960D01*
X6612682Y-15311960D02*
X6622205Y-15302436D01*
X6622205Y-15302436D02*
X6622205Y-15321484D01*
X6622205Y-15197674D02*
X6631729Y-15207198D01*
X6631729Y-15207198D02*
X6622205Y-15216722D01*
X6622205Y-15216722D02*
X6612682Y-15207198D01*
X6612682Y-15207198D02*
X6622205Y-15197674D01*
X6622205Y-15197674D02*
X6622205Y-15216722D01*
M02*
